<svg xmlns="http://www.w3.org/2000/svg" xmlns:xlink="http://www.w3.org/1999/xlink" viewBox="0 0 1159.79 354.92"><defs><style>.cls-1{fill:none;}.cls-2{clip-path:url(#clip-path);}.cls-3{fill:#030b1e;}.cls-4{fill:#3aa9ff;}</style><clipPath id="clip-path" transform="translate(1.9 51.02)"><path class="cls-1" d="M1156,0H0V262H1156Z"/></clipPath></defs><g id="Layer_2" data-name="Layer 2"><g id="Layer_1-2" data-name="Layer 1"><g class="cls-2"><path class="cls-3" d="M1154.72,2.91H-1.28v262h1156Z" transform="translate(1.9 51.02)"/><path class="cls-4" d="M954,91.48,930,77.65V49.9h.05L954,36.07h.05l24,13.83V77.62H978Zm-23.8-14L954,91.22l23.8-13.74V50L954,36.28,930.23,50Z" transform="translate(1.9 51.02)"/><path class="cls-4" d="M1001.85,91.48l-24-13.83V49.9l24-13.83,24,13.83V77.62ZM978,77.48l23.81,13.74,23.8-13.74V50l-23.8-13.74L978,50Z" transform="translate(1.9 51.02)"/><path class="cls-4" d="M1049.65,91.48l-24-13.83V49.9l24-13.83h.06l24,13.83V77.62Zm-23.8-14,23.8,13.74,23.8-13.74V50l-23.8-13.74L1025.85,50Z" transform="translate(1.9 51.02)"/><path class="cls-4" d="M1097.46,91.48l-24-13.83V49.9h0l24-13.83h0l24,13.83V77.62h-.06Zm-23.8-14,23.8,13.74,23.8-13.74V50l-23.8-13.74L1073.66,50Z" transform="translate(1.9 51.02)"/><path class="cls-4" d="M1151.14,87.86l-5.87,3.38-23.8-13.74V50l23.8-13.74,5.87,3.39v-.24l-5.82-3.36,0,0-24,13.83,0,0V77.62l24,13.84.06,0,5.87-3.38Z" transform="translate(1.9 51.02)"/><path class="cls-4" d="M977.93,132.88h0l-24-13.86V91.3l24-13.83H978l24,13.83V119h0Zm-23.79-14,23.79,13.74,23.81-13.74V91.42L977.93,77.68,954.1,91.42Z" transform="translate(1.9 51.02)"/><path class="cls-4" d="M1025.75,132.88h0l-24-13.83V91.3h.07l24-13.83,24,13.83V119h0Zm-23.8-14,23.8,13.74,23.8-13.74V91.42l-23.8-13.74L1002,91.42Z" transform="translate(1.9 51.02)"/><path class="cls-4" d="M1073.56,132.88h-.06l-24-13.83V91.3l24-13.83,24,13.83V119Zm-23.8-14,23.8,13.74,23.8-13.74V91.42l-23.8-13.74-23.8,13.74Z" transform="translate(1.9 51.02)"/><path class="cls-4" d="M1121.36,132.88l-24-13.83V91.3l24-13.83,24,13.83V119Zm-23.8-14,23.8,13.74,23.8-13.74V91.42l-23.8-13.74-23.8,13.74Z" transform="translate(1.9 51.02)"/><path class="cls-4" d="M1151.14,122.23l-5.77-3.32V91.42l5.77-3.32v-.24l-5.93,3.42,0,0V119l6,3.44Z" transform="translate(1.9 51.02)"/><path class="cls-4" d="M1049.65,174.28l-24-13.83V132.7l24-13.83h.06l24,13.83v27.72Zm-23.8-14,23.8,13.74,23.8-13.74V132.82l-23.8-13.74-23.8,13.74Z" transform="translate(1.9 51.02)"/><path class="cls-4" d="M1097.46,174.28l-24-13.83V132.7h0l24-13.83h0l24,13.83v27.72h-.06Zm-23.8-14,23.8,13.74,23.8-13.74V132.82l-23.8-13.74-23.8,13.74Z" transform="translate(1.9 51.02)"/><path class="cls-4" d="M1151.14,170.66l-5.87,3.39-23.8-13.74V132.83l23.8-13.74,5.87,3.38v-.24l-5.82-3.36,0,0-24,13.82,0,0v27.72l24,13.83.06,0,5.87-3.39Z" transform="translate(1.9 51.02)"/><path class="cls-4" d="M1073.56,215.68h-.06l-24-13.83V174.1l24-13.83,24,13.83v27.72Zm-23.8-14,23.8,13.74,23.8-13.74V174.22l-23.8-13.74-23.8,13.74Z" transform="translate(1.9 51.02)"/><path class="cls-4" d="M1121.36,215.68l-24-13.83V174.1l24-13.83,24,13.83v27.72Zm-23.8-14,23.8,13.74,23.8-13.74V174.22l-23.8-13.74-23.8,13.74Z" transform="translate(1.9 51.02)"/><path class="cls-4" d="M1151.14,205l-5.77-3.33V174.23l5.77-3.33v-.24l-5.93,3.42,0,0v27.72l6,3.45Z" transform="translate(1.9 51.02)"/><path class="cls-4" d="M1097.46,257.08l-24-13.83V215.5h0l24-13.83h0l24,13.83v27.72h-.06Zm-23.8-14,23.8,13.74,23.8-13.74V215.62l-23.8-13.74-23.8,13.74Z" transform="translate(1.9 51.02)"/><path class="cls-4" d="M1151.14,253.46l-5.87,3.39-23.8-13.74V215.63l23.8-13.74,5.87,3.39V205l-5.82-3.36,0,0-24,13.83,0,0v27.72l24,13.83.06,0,5.87-3.39Z" transform="translate(1.9 51.02)"/><path class="cls-4" d="M1151.14,287.84l-5.77-3.33V257l5.77-3.33v-.24l-5.93,3.42,0,0v27.72l6,3.45Z" transform="translate(1.9 51.02)"/><path class="cls-4" d="M1042.34-8.32V15.19l-30.61,17.68L981.11,15.19V-8.32H980V15.82l31.71,18.3,31.69-18.3V-8.32Z" transform="translate(1.9 51.02)"/><path class="cls-4" d="M1104.64-8.32V15.19L1074,32.87l-30.61-17.68V-8.32h-1.08V15.82L1074,34.12l31.69-18.3V-8.32Z" transform="translate(1.9 51.02)"/><path class="cls-4" d="M1105.72,15.19V-8.32h-1.08V15.82l31.69,18.3,14.81-8.55V24.32l-14.81,8.55Z" transform="translate(1.9 51.02)"/><path class="cls-4" d="M1042.88,88.07l-31.7-18.3V33.18l31.7-18.3,31.69,18.3V69.77Zm-30.61-18.92,30.61,17.67,30.61-17.67V33.8l-30.61-17.67L1012.27,33.8Z" transform="translate(1.9 51.02)"/><path class="cls-4" d="M1105.18,88.07l-31.69-18.3V33.18l31.69-18.3,31.69,18.3V69.77Zm-30.61-18.92,30.61,17.67,30.61-17.67V33.8l-30.61-17.67L1074.57,33.8Z" transform="translate(1.9 51.02)"/><path class="cls-4" d="M1151.14,77.38l-14.26-8.23V33.8l14.26-8.23V24.32l-15.35,8.86v36.6l15.35,8.85Z" transform="translate(1.9 51.02)"/><path class="cls-4" d="M1074,142l-31.69-18.3V87.13L1074,68.83l31.69,18.3v36.6Zm-30.61-18.93L1074,140.78l30.61-17.68V87.76L1074,70.08l-30.61,17.68Z" transform="translate(1.9 51.02)"/><path class="cls-4" d="M1151.14,132.24l-14.81,8.54-30.61-17.67V87.76l30.61-17.67,14.81,8.54V77.38l-14.81-8.54-31.69,18.3v36.59l31.69,18.3,14.81-8.55Z" transform="translate(1.9 51.02)"/><path class="cls-4" d="M1151.14,185.3l-14.26-8.24V141.72l14.26-8.24v-1.24l-15.35,8.85v36.6l15.35,8.86Z" transform="translate(1.9 51.02)"/><path class="cls-4" d="M1105.18,303.9l-31.69-18.3V249l31.69-18.29L1136.87,249v36.6ZM1074.57,285l30.61,17.68L1135.79,285V249.63L1105.18,232l-30.61,17.68Z" transform="translate(1.9 51.02)"/><path class="cls-4" d="M954,93.22a1.86,1.86,0,1,0-.7-3.58,1.87,1.87,0,0,0-1.15,1.72A1.86,1.86,0,0,0,954,93.22Z" transform="translate(1.9 51.02)"/><path class="cls-4" d="M954,37.12a1,1,0,1,0-1-1A1,1,0,0,0,954,37.12Z" transform="translate(1.9 51.02)"/><path class="cls-4" d="M977.93,51.85a1.86,1.86,0,0,0,1.05-.32,1.88,1.88,0,0,0,.7-.85,1.89,1.89,0,0,0-3.32-1.77A1.86,1.86,0,0,0,976,50a1.91,1.91,0,0,0,1.89,1.89Z" transform="translate(1.9 51.02)"/><path class="cls-4" d="M977.93,74.24a3.29,3.29,0,0,0-1.84.56,3.24,3.24,0,0,0-1.22,1.49,3.32,3.32,0,0,0,2.42,4.52,3.21,3.21,0,0,0,1.91-.19,3.31,3.31,0,0,0,2-3.06,3.31,3.31,0,0,0-3.32-3.32Z" transform="translate(1.9 51.02)"/><path class="cls-4" d="M1001.85,37.56a1.46,1.46,0,0,0,.78-.24,1.38,1.38,0,0,0,.51-.63,1.4,1.4,0,0,0,.08-.81,1.37,1.37,0,0,0-.38-.71,1.46,1.46,0,0,0-.72-.39,1.49,1.49,0,0,0-.81.08,1.4,1.4,0,0,0-.63.52,1.4,1.4,0,0,0,1.17,2.18Z" transform="translate(1.9 51.02)"/><path class="cls-4" d="M1025.75,52.54a2.59,2.59,0,0,0,1.43-.44,2.59,2.59,0,0,0,1.1-2.65,2.6,2.6,0,0,0-3.52-1.88,2.69,2.69,0,0,0-1.16,1,2.64,2.64,0,0,0-.43,1.44,2.57,2.57,0,0,0,.76,1.82A2.62,2.62,0,0,0,1025.75,52.54Z" transform="translate(1.9 51.02)"/><path class="cls-4" d="M1025.75,80.64a3.08,3.08,0,1,0-3.08-3.08A3.08,3.08,0,0,0,1025.75,80.64Z" transform="translate(1.9 51.02)"/><path class="cls-4" d="M1049.65,37.77a1.57,1.57,0,0,0,.89-.28,1.49,1.49,0,0,0,.59-.72,1.56,1.56,0,0,0,.1-.93,1.68,1.68,0,0,0-.44-.82,1.6,1.6,0,0,0-.83-.44,1.6,1.6,0,0,0-1.65.68,1.61,1.61,0,0,0,.2,2A1.58,1.58,0,0,0,1049.65,37.77Z" transform="translate(1.9 51.02)"/><path class="cls-4" d="M1073.56,51.81a1.85,1.85,0,0,0,1.81-2.21,1.9,1.9,0,0,0-.5-1,1.85,1.85,0,0,0-.95-.51,1.87,1.87,0,0,0-1.07.11,1.78,1.78,0,0,0-.83.68,1.86,1.86,0,0,0-.31,1,1.81,1.81,0,0,0,.54,1.3A1.86,1.86,0,0,0,1073.56,51.81Z" transform="translate(1.9 51.02)"/><path class="cls-4" d="M1073.56,78.88a1.32,1.32,0,1,0-1.32-1.32A1.32,1.32,0,0,0,1073.56,78.88Z" transform="translate(1.9 51.02)"/><path class="cls-4" d="M1097.46,37.42a1.33,1.33,0,0,0,.69-.21,1.24,1.24,0,0,0,.45-.56,1.18,1.18,0,0,0,.07-.72,1.12,1.12,0,0,0-.34-.63,1.26,1.26,0,0,0-.63-.34,1.27,1.27,0,0,0-.72.07,1.23,1.23,0,0,0-.55.46,1.2,1.2,0,0,0-.21.69,1.27,1.27,0,0,0,.09.47,1.22,1.22,0,0,0,.27.41,1.41,1.41,0,0,0,.4.27A1.28,1.28,0,0,0,1097.46,37.42Z" transform="translate(1.9 51.02)"/><path class="cls-4" d="M1121.36,51.92a2,2,0,0,0,1.11-.34,2,2,0,0,0,.73-.9,1.9,1.9,0,0,0,.12-1.15,2,2,0,0,0-1.57-1.58,2.09,2.09,0,0,0-1.16.12,2,2,0,0,0-.9.74,2,2,0,0,0-.33,1.11,2,2,0,0,0,2,2Z" transform="translate(1.9 51.02)"/><path class="cls-4" d="M1121.36,79.78a2.22,2.22,0,1,0-2.22-2.22A2.23,2.23,0,0,0,1121.36,79.78Z" transform="translate(1.9 51.02)"/><path class="cls-4" d="M1145.26,38a1.92,1.92,0,0,0,1-.31,1.88,1.88,0,0,0,.69-.84,1.9,1.9,0,0,0,.11-1.08,1.84,1.84,0,0,0-.51-1,1.84,1.84,0,0,0-2-.41,1.88,1.88,0,0,0-.61,3A1.9,1.9,0,0,0,1145.26,38Z" transform="translate(1.9 51.02)"/><path class="cls-4" d="M954,121.42a2.52,2.52,0,0,0,1.39-.42,2.48,2.48,0,0,0,.91-1.12,2.54,2.54,0,0,0,.15-1.44,2.55,2.55,0,0,0-2-2,2.54,2.54,0,0,0-1.44.15,2.48,2.48,0,0,0-1.12.91,2.52,2.52,0,0,0-.42,1.39,2.5,2.5,0,0,0,.73,1.76,2.45,2.45,0,0,0,.81.54A2.6,2.6,0,0,0,954,121.42Z" transform="translate(1.9 51.02)"/><path class="cls-4" d="M1001.85,90.09a1.22,1.22,0,0,0-.72.21,1.33,1.33,0,0,0-.48.57,1.25,1.25,0,0,0-.07.74,1.27,1.27,0,0,0,1,1,1.25,1.25,0,0,0,.74-.07,1.3,1.3,0,0,0,.58-.48,1.28,1.28,0,0,0-.17-1.61A1.24,1.24,0,0,0,1001.85,90.09Z" transform="translate(1.9 51.02)"/><path class="cls-4" d="M1001.85,121.33a2.38,2.38,0,0,0,2.19-1.47,2.37,2.37,0,0,0-3.1-3.09,2.34,2.34,0,0,0-1.07.87,2.38,2.38,0,0,0-.4,1.32,2.39,2.39,0,0,0,2.38,2.37Z" transform="translate(1.9 51.02)"/><path class="cls-4" d="M1025.75,134.26a1.49,1.49,0,1,0-1.49-1.49A1.49,1.49,0,0,0,1025.75,134.26Z" transform="translate(1.9 51.02)"/><path class="cls-4" d="M1049.65,87.87a3.5,3.5,0,0,0-2.46,6,3.51,3.51,0,0,0,1.79,1,3.58,3.58,0,0,0,2-.2,3.44,3.44,0,0,0,1.56-1.29,3.48,3.48,0,0,0,.59-1.93,3.41,3.41,0,0,0-.27-1.34,3.36,3.36,0,0,0-.76-1.13,3.31,3.31,0,0,0-1.13-.76A3.44,3.44,0,0,0,1049.65,87.87Z" transform="translate(1.9 51.02)"/><path class="cls-4" d="M1097.46,94a2.59,2.59,0,0,0,2.39-1.6,2.57,2.57,0,0,0-.56-2.82,2.51,2.51,0,0,0-1.33-.71,2.59,2.59,0,1,0-.5,5.13Z" transform="translate(1.9 51.02)"/><path class="cls-4" d="M1121.36,135.34a2.59,2.59,0,0,0,2.38-1.6,2.54,2.54,0,0,0,.15-1.49,2.6,2.6,0,0,0-3.52-1.88,2.56,2.56,0,0,0-1.59,2.39,2.56,2.56,0,0,0,1.59,2.38A2.57,2.57,0,0,0,1121.36,135.34Z" transform="translate(1.9 51.02)"/><path class="cls-4" d="M1097.46,122a3,3,0,0,0,2.77-1.86,2.93,2.93,0,0,0,.17-1.73,3,3,0,0,0-.82-1.54,3,3,0,0,0-3.27-.65,3.05,3.05,0,0,0-1.35,1.11,3,3,0,0,0,2.5,4.67Z" transform="translate(1.9 51.02)"/><path class="cls-4" d="M1145.26,94.13a2.74,2.74,0,0,0,1.54-.47,2.69,2.69,0,0,0,1-1.24,2.82,2.82,0,0,0,.17-1.6,2.78,2.78,0,0,0-2.18-2.18,2.74,2.74,0,0,0-1.6.16,2.77,2.77,0,0,0,1,5.33Z" transform="translate(1.9 51.02)"/><path class="cls-4" d="M979.92,132.76a2,2,0,0,0-.33-1.12,2,2,0,0,0-2.06-.85,2,2,0,0,0-1.57,1.58,1.9,1.9,0,0,0,.12,1.15,2,2,0,0,0,.73.9,2,2,0,0,0,3.11-1.66Z" transform="translate(1.9 51.02)"/><path class="cls-4" d="M1049.66,120.57a1.6,1.6,0,1,0-1.6-1.6A1.6,1.6,0,0,0,1049.66,120.57Z" transform="translate(1.9 51.02)"/><path class="cls-4" d="M1073.56,134.48a1.72,1.72,0,0,0,1.21-2.94,1.72,1.72,0,0,0-.88-.47,1.68,1.68,0,0,0-1,.1,1.7,1.7,0,0,0-.77.63,1.72,1.72,0,0,0,.21,2.17A1.69,1.69,0,0,0,1073.56,134.48Z" transform="translate(1.9 51.02)"/><path class="cls-4" d="M1145.27,175.87a1.7,1.7,0,1,0-1.7-1.7A1.7,1.7,0,0,0,1145.27,175.87Z" transform="translate(1.9 51.02)"/><path class="cls-4" d="M1121.36,158.15a2.22,2.22,0,0,0-1.23.37,2.26,2.26,0,0,0-.82,1,2.24,2.24,0,0,0-.12,1.28,2.15,2.15,0,0,0,.6,1.13,2.18,2.18,0,0,0,1.14.6,2.22,2.22,0,0,0,2.64-2.16,2.26,2.26,0,0,0-.17-.85,2.33,2.33,0,0,0-.48-.72,2.52,2.52,0,0,0-.72-.48A2.2,2.2,0,0,0,1121.36,158.15Z" transform="translate(1.9 51.02)"/><path class="cls-4" d="M1145.27,121.09a2.12,2.12,0,1,0-2.12-2.12A2.12,2.12,0,0,0,1145.27,121.09Z" transform="translate(1.9 51.02)"/><path class="cls-4" d="M1025.75,157.81a2.58,2.58,0,0,0-1.43.43,2.52,2.52,0,0,0-.94,1.15,2.58,2.58,0,0,0-.14,1.48,2.55,2.55,0,0,0,.7,1.31,2.56,2.56,0,0,0,4.37-1.82,2.53,2.53,0,0,0-.2-1,2.73,2.73,0,0,0-.55-.83,2.55,2.55,0,0,0-1.81-.74Z" transform="translate(1.9 51.02)"/><path class="cls-4" d="M1047,174.16a2.7,2.7,0,0,0,.44,1.48,2.65,2.65,0,0,0,1.19,1,2.65,2.65,0,0,0,2.91-.57,2.78,2.78,0,0,0,.73-1.37,2.66,2.66,0,1,0-5.27-.52Z" transform="translate(1.9 51.02)"/><path class="cls-4" d="M1073.56,217.17a1.6,1.6,0,1,0-1.6-1.6A1.6,1.6,0,0,0,1073.56,217.17Z" transform="translate(1.9 51.02)"/><path class="cls-4" d="M1049.66,203.86a2.09,2.09,0,1,0-2.09-2.09A2.1,2.1,0,0,0,1049.66,203.86Z" transform="translate(1.9 51.02)"/><path class="cls-4" d="M1073.56,162.6a2.23,2.23,0,1,0-2.23-2.23A2.23,2.23,0,0,0,1073.56,162.6Z" transform="translate(1.9 51.02)"/><path class="cls-4" d="M1097.46,204.93a3.16,3.16,0,1,0-3.16-3.16A3.17,3.17,0,0,0,1097.46,204.93Z" transform="translate(1.9 51.02)"/><path class="cls-4" d="M1121.36,217.35a1.83,1.83,0,0,0,1-.3,1.8,1.8,0,0,0,.66-.81,1.74,1.74,0,0,0,.1-1,1.79,1.79,0,0,0-1.4-1.41,1.78,1.78,0,0,0-1.84.76,1.79,1.79,0,0,0,1.49,2.79Z" transform="translate(1.9 51.02)"/><path class="cls-4" d="M1097.46,177.29a3.18,3.18,0,0,0,1.74-.53,3.13,3.13,0,0,0,1.15-1.41,3.09,3.09,0,0,0,.18-1.8,3.12,3.12,0,0,0-2.46-2.46,3.19,3.19,0,0,0-1.81.17,3.11,3.11,0,0,0-1.4,1.16,3.07,3.07,0,0,0-.53,1.74,3.12,3.12,0,0,0,3.13,3.13Z" transform="translate(1.9 51.02)"/><path class="cls-4" d="M1145.27,203.19a1.42,1.42,0,1,0-1.42-1.42A1.43,1.43,0,0,0,1145.27,203.19Z" transform="translate(1.9 51.02)"/><path class="cls-4" d="M1073.56,244.89a1.75,1.75,0,0,0,1-.3,1.85,1.85,0,0,0,.64-.77,1.72,1.72,0,0,0,.09-1,1.68,1.68,0,0,0-.47-.89,1.75,1.75,0,0,0-.89-.47,1.68,1.68,0,0,0-1,.1,1.73,1.73,0,0,0-.78.63,1.75,1.75,0,0,0,.21,2.19A1.78,1.78,0,0,0,1073.56,244.89Z" transform="translate(1.9 51.02)"/><path class="cls-4" d="M1097.46,253.6a3.32,3.32,0,0,0-1.88.56,3.38,3.38,0,0,0-1.24,1.51,3.37,3.37,0,0,0,.72,3.68,3.39,3.39,0,0,0,3.68.73,3.37,3.37,0,0,0,1.82-4.41,3.22,3.22,0,0,0-.73-1.09,3.37,3.37,0,0,0-1.09-.73A3.28,3.28,0,0,0,1097.46,253.6Z" transform="translate(1.9 51.02)"/><path class="cls-4" d="M1121.36,245a1.82,1.82,0,0,0,1-.31,1.87,1.87,0,0,0,.68-.82,1.84,1.84,0,0,0,.1-1.06,1.8,1.8,0,0,0-.5-.94,1.87,1.87,0,0,0-.94-.5,1.87,1.87,0,0,0-1.88.78,1.86,1.86,0,0,0,.23,2.31A1.87,1.87,0,0,0,1121.36,245Z" transform="translate(1.9 51.02)"/><path class="cls-4" d="M1145.26,259.7a2.74,2.74,0,0,0,1.52-.46,2.78,2.78,0,0,0,1-1.23,2.74,2.74,0,0,0-.59-3,2.81,2.81,0,0,0-1.41-.75,2.73,2.73,0,0,0-3.27,2.69,2.64,2.64,0,0,0,.2,1,2.71,2.71,0,0,0,.59.89,2.8,2.8,0,0,0,.89.6A2.7,2.7,0,0,0,1145.26,259.7Z" transform="translate(1.9 51.02)"/><path class="cls-4" d="M969,7.88a2.58,2.58,0,1,0-2.58-2.58A2.58,2.58,0,0,0,969,7.88Z" transform="translate(1.9 51.02)"/><path class="cls-4" d="M1018.37-19.53V5.24L993.72,19.47,969.08,5.24V-19.53h-.22V5.37l24.81,14.32.05,0L1018.54,5.4l.05,0v-24.9Z" transform="translate(1.9 51.02)"/><path class="cls-4" d="M1067.87-19.53V5.24l-24.64,14.23L1018.59,5.24V-19.53h-.22V5.37l24.81,14.32,0,0L1068,5.4l0,0v-24.9Z" transform="translate(1.9 51.02)"/><path class="cls-4" d="M1117.37-19.53V5.24l-24.64,14.23L1068.09,5.24V-19.53h-.22V5.37l24.81,14.32,0,0L1117.54,5.4l0,0v-24.9Z" transform="translate(1.9 51.02)"/><path class="cls-4" d="M1117.59,5.24V-19.53h-.22V5.37l24.81,14.32,0,0,15.67-9v-.25l-15.67,9Z" transform="translate(1.9 51.02)"/><path class="cls-4" d="M1068,62.58l-24.87-14.35V19.53h.06L1068,5.21h0l24.81,14.32v28.7h-.06Zm-24.64-14.47L1068,62.33l24.64-14.22V19.65L1068,5.42l-24.64,14.23Z" transform="translate(1.9 51.02)"/><path class="cls-4" d="M1117.48,62.58l-24.81-14.32V19.53h.06l24.8-14.32h0l24.81,14.32v28.7h-.06Zm-24.64-14.47,24.64,14.22,24.63-14.22V19.65L1117.48,5.42l-24.64,14.23Z" transform="translate(1.9 51.02)"/><path class="cls-4" d="M1157.9,57.09l-15.56-9V19.66l15.56-9v-.25l-15.72,9.08-.06,0v28.7l15.78,9.11Z" transform="translate(1.9 51.02)"/><path class="cls-4" d="M1092.73,105.42,1067.92,91.1V62.42h.06l24.8-14.32h0l24.76,14.32v28.7h-.06ZM1068.11,91l24.64,14.23L1117.39,91V62.52l-24.64-14.23-24.64,14.23Z" transform="translate(1.9 51.02)"/><path class="cls-4" d="M1157.9,96.16l-15.67,9L1117.59,91V62.52l24.64-14.22,15.67,9v-.25l-15.61-9-.06,0-24.8,14.32-.06,0V91.1l24.81,14.32,0,0,15.67-9Z" transform="translate(1.9 51.02)"/><path class="cls-4" d="M1117.48,148.32,1092.67,134V105.26h.06l24.8-14.32h0l24.81,14.32V134h-.06Zm-24.64-14.48,24.64,14.23,24.63-14.23V105.42l-24.64-14.23-24.63,14.23Z" transform="translate(1.9 51.02)"/><path class="cls-4" d="M1157.9,142.83l-15.56-9V105.39l15.56-9v-.25l-15.72,9.08-.06,0V134l15.78,9.11Z" transform="translate(1.9 51.02)"/><path class="cls-4" d="M1092.73,276.92l-24.81-14.32V233.9h.06l24.8-14.32h0l24.81,14.32v28.7h-.06Zm-24.62-14.5,24.64,14.22,24.62-14.22V234l-24.64-14.22L1068.11,234Z" transform="translate(1.9 51.02)"/><path class="cls-4" d="M1157.9,267.63l-15.67,9.05-24.64-14.23V234l24.64-14.23,15.67,9v-.25l-15.61-9-.06,0-24.8,14.32-.06,0v28.71l24.81,14.32,0,0,15.67-9.05Z" transform="translate(1.9 51.02)"/><path class="cls-4" d="M1124.92-19.53V9.59l-31.7,18.3-31.69-18.3V-19.53h-1.13V10.24l32.82,19,32.82-19V-19.53Z" transform="translate(1.9 51.02)"/><path class="cls-4" d="M1126,9.59V-19.53h-1.12V10.24l32.81,19,.17-.1V27.8l-.17.09Z" transform="translate(1.9 51.02)"/><path class="cls-4" d="M1157.9,139.72,1125.47,121l-32.81,19v37.89l32.81,19,32.43-18.72Zm-32.43,55.78-31.69-18.3V140.6l31.69-18.3,31.7,18.3v36.6Z" transform="translate(1.9 51.02)"/><path class="cls-4" d="M1093.22,252.66l-32.82-19V195.82l32.82-19,32.82,19v37.89Zm-31.7-19.59,31.7,18.3,31.69-18.3v-36.6l-31.69-18.3-31.7,18.3Z" transform="translate(1.9 51.02)"/><path class="cls-4" d="M1157.9,251.27l-.17.1L1126,233.07v-36.6l31.69-18.3.17.1V177l-.17-.09-32.81,18.94v37.9l32.81,18.94.17-.09Z" transform="translate(1.9 51.02)"/><path class="cls-4" d="M964.75,285.12V252.34L996.44,234l31.71,18.3v32.78h1.12V251.69l-32.83-18.94-32.81,18.94v33.43Z" transform="translate(1.9 51.02)"/><path class="cls-4" d="M1029.27,285.12V252.34L1061,234l31.7,18.3v32.78h1.12V251.69L1061,232.75l-32.81,18.94v33.43Z" transform="translate(1.9 51.02)"/><path class="cls-4" d="M1157.9,285.12V251.47l-32.42-18.72-32.82,18.94v33.43h1.12V252.34l31.7-18.3,31.69,18.3v32.78Z" transform="translate(1.9 51.02)"/><path class="cls-4" d="M1018.48,7.75a2.46,2.46,0,0,0,2.26-1.52,2.43,2.43,0,0,0,.14-1.41,2.46,2.46,0,0,0-.67-1.26,2.5,2.5,0,0,0-1.26-.67,2.52,2.52,0,0,0-1.41.14,2.44,2.44,0,0,0-1.1.91A2.42,2.42,0,0,0,1016,5.3a2.44,2.44,0,0,0,.18.93,2.72,2.72,0,0,0,.53.8,2.38,2.38,0,0,0,.8.53A2.5,2.5,0,0,0,1018.48,7.75Z" transform="translate(1.9 51.02)"/><path class="cls-4" d="M1043.23,21.14a1.55,1.55,0,1,0-1.55-1.55A1.56,1.56,0,0,0,1043.23,21.14Z" transform="translate(1.9 51.02)"/><path class="cls-4" d="M1142.23,22.26a2.66,2.66,0,0,0,2.46-1.65,2.63,2.63,0,0,0,.16-1.54,2.67,2.67,0,0,0-.74-1.37,2.56,2.56,0,0,0-1.36-.73,2.66,2.66,0,0,0-3.19,2.62,2.54,2.54,0,0,0,.2,1,2.69,2.69,0,0,0,1.44,1.45A2.82,2.82,0,0,0,1142.23,22.26Z" transform="translate(1.9 51.02)"/><path class="cls-4" d="M1117.48,8.45a3.15,3.15,0,1,0-3.15-3.15A3.15,3.15,0,0,0,1117.48,8.45Z" transform="translate(1.9 51.02)"/><path class="cls-4" d="M995.78,19.59a2.12,2.12,0,0,0-.34-1.15,2.05,2.05,0,0,0-2.12-.87,2,2,0,0,0-1.05.56,2.09,2.09,0,0,0-.57,1.05,2,2,0,0,0,.12,1.19,2.1,2.1,0,0,0,.76.93,2.06,2.06,0,0,0,3.2-1.71Z" transform="translate(1.9 51.02)"/><path class="cls-4" d="M1068,7a1.66,1.66,0,1,0-1.66-1.66A1.67,1.67,0,0,0,1068,7Z" transform="translate(1.9 51.02)"/><path class="cls-4" d="M1092.73,21.37a1.78,1.78,0,1,0-1.78-1.78A1.78,1.78,0,0,0,1092.73,21.37Z" transform="translate(1.9 51.02)"/><path class="cls-4" d="M1142.23,45.88a2.29,2.29,0,0,0-.45,4.53,2.3,2.3,0,0,0,2.35-1,2.32,2.32,0,0,0,.39-1.27,2.42,2.42,0,0,0-.17-.88,2.52,2.52,0,0,0-.5-.75,2.22,2.22,0,0,0-.75-.49A2,2,0,0,0,1142.23,45.88Z" transform="translate(1.9 51.02)"/><path class="cls-4" d="M1043.23,50.82a2.65,2.65,0,1,0-2.65-2.65A2.65,2.65,0,0,0,1043.23,50.82Z" transform="translate(1.9 51.02)"/><path class="cls-4" d="M1065.23,62.42a2.76,2.76,0,0,0,1.69,2.54,2.71,2.71,0,0,0,1.59.15,2.73,2.73,0,0,0,2.16-2.16,2.71,2.71,0,0,0-1.17-2.82,2.74,2.74,0,0,0-1.52-.46,2.73,2.73,0,0,0-2.75,2.75Z" transform="translate(1.9 51.02)"/><path class="cls-4" d="M1092.73,107a1.66,1.66,0,1,0-1.66-1.66A1.67,1.67,0,0,0,1092.73,107Z" transform="translate(1.9 51.02)"/><path class="cls-4" d="M1068,88.87a2.1,2.1,0,0,0-1.21.36,2.06,2.06,0,0,0-.8,1,2.15,2.15,0,0,0-.13,1.25,2.18,2.18,0,0,0,.59,1.12,2.15,2.15,0,0,0,1.11.59,2.1,2.1,0,0,0,1.26-.12,2.16,2.16,0,0,0,1-.8,2.13,2.13,0,0,0,.37-1.2,2.17,2.17,0,0,0-2.16-2.17Z" transform="translate(1.9 51.02)"/><path class="cls-4" d="M1092.73,50.48a2.31,2.31,0,1,0-2.31-2.31A2.32,2.32,0,0,0,1092.73,50.48Z" transform="translate(1.9 51.02)"/><path class="cls-4" d="M1117.48,94.32A3.28,3.28,0,1,0,1114.2,91,3.28,3.28,0,0,0,1117.48,94.32Z" transform="translate(1.9 51.02)"/><path class="cls-4" d="M1142.23,107.18a1.83,1.83,0,0,0,1.71-1.15,1.83,1.83,0,0,0,.1-1.06,1.9,1.9,0,0,0-.5-1,1.85,1.85,0,0,0-1-.51,1.87,1.87,0,0,0-1.07.11,1.78,1.78,0,0,0-.83.68,1.86,1.86,0,0,0-.31,1,1.81,1.81,0,0,0,.54,1.3A1.86,1.86,0,0,0,1142.23,107.18Z" transform="translate(1.9 51.02)"/><path class="cls-4" d="M1117.48,65.7a3.25,3.25,0,0,0,3-2,3.21,3.21,0,0,0-.7-3.53,3.15,3.15,0,0,0-1.66-.89,3.23,3.23,0,0,0-1.87.18,3.23,3.23,0,0,0-2,3,3.24,3.24,0,0,0,3.24,3.24Z" transform="translate(1.9 51.02)"/><path class="cls-4" d="M1092.73,189.54a1.57,1.57,0,0,0-.85.25,1.53,1.53,0,0,0-.57.69,1.59,1.59,0,0,0-.08.89,1.46,1.46,0,0,0,.42.78,1.5,1.5,0,0,0,.78.42,1.59,1.59,0,0,0,.89-.09,1.56,1.56,0,0,0,.94-1.42,1.56,1.56,0,0,0-.46-1.08A1.52,1.52,0,0,0,1092.73,189.54Z" transform="translate(1.9 51.02)"/><path class="cls-4" d="M1092.73,135.69a1.78,1.78,0,1,0-1.78-1.78A1.78,1.78,0,0,0,1092.73,135.69Z" transform="translate(1.9 51.02)"/><path class="cls-4" d="M1117.48,151.68a3.48,3.48,0,1,0-3.48-3.48A3.48,3.48,0,0,0,1117.48,151.68Z" transform="translate(1.9 51.02)"/><path class="cls-4" d="M1142.23,135.8a1.94,1.94,0,0,0,1.06-.32,1.91,1.91,0,0,0,.29-2.93,2,2,0,0,0-1-.52,2,2,0,0,0-1.1.11,1.92,1.92,0,0,0-.86.71,2,2,0,0,0-.31,1.06,1.89,1.89,0,0,0,1.89,1.89Z" transform="translate(1.9 51.02)"/><path class="cls-4" d="M1094.78,219.64a2.1,2.1,0,0,0-.35-1.14,2,2,0,0,0-.93-.75,2.06,2.06,0,0,0-1.18-.11,2,2,0,0,0-1.6,1.61,2.06,2.06,0,0,0,.11,1.18,2.08,2.08,0,0,0,1.9,1.27,2.09,2.09,0,0,0,.78-.16,2,2,0,0,0,.67-.45,2,2,0,0,0,.44-.67A1.91,1.91,0,0,0,1094.78,219.64Z" transform="translate(1.9 51.02)"/><path class="cls-4" d="M1142.23,193.74a2.65,2.65,0,0,0,1.49-.46,2.62,2.62,0,0,0,1-1.2,2.66,2.66,0,0,0,.16-1.55,2.71,2.71,0,0,0-.74-1.37,2.68,2.68,0,0,0-3.79,3.79A2.7,2.7,0,0,0,1142.23,193.74Z" transform="translate(1.9 51.02)"/><path class="cls-4" d="M1142.23,217a2.67,2.67,0,0,0-2.47,1.64,2.74,2.74,0,0,0-.15,1.55,2.67,2.67,0,0,0,.73,1.36,2.59,2.59,0,0,0,1.37.73,2.63,2.63,0,0,0,1.54-.15,2.67,2.67,0,0,0,1.2-1,2.71,2.71,0,0,0,.45-1.48,2.68,2.68,0,0,0-2.67-2.67Z" transform="translate(1.9 51.02)"/><path class="cls-4" d="M1068,236.06a2.12,2.12,0,0,0,2-1.32,2.08,2.08,0,0,0,.13-1.23,2.2,2.2,0,0,0-.59-1.09,2,2,0,0,0-1.09-.58,2.12,2.12,0,0,0-2.54,2.09,2.13,2.13,0,0,0,2.13,2.13Z" transform="translate(1.9 51.02)"/><path class="cls-4" d="M1117.48,236.29a2.35,2.35,0,1,0-2.35-2.35A2.35,2.35,0,0,0,1117.48,236.29Z" transform="translate(1.9 51.02)"/><path class="cls-4" d="M202,161.42l24,13.83V203h-.05L202,216.8h-.06L177.9,203V175.26h0Zm23.79,14L202,161.68l-23.8,13.74V202.9L202,216.64l23.79-13.74Z" transform="translate(1.9 51.02)"/><path class="cls-4" d="M154.15,161.42l24,13.83V203h-.06l-24,13.83h0l-24-13.83V175.26h0Zm23.8,14-23.8-13.74-23.8,13.74V202.9l23.8,13.74L178,202.9Z" transform="translate(1.9 51.02)"/><path class="cls-4" d="M106.34,161.42h.06l24,13.83V203h-.05l-24,13.83L82.35,203V175.26h.05Zm23.76,14-23.8-13.74L82.54,175.42V202.9l23.8,13.74,23.76-13.78Z" transform="translate(1.9 51.02)"/><path class="cls-4" d="M58.54,161.42h.05l24,13.83V203l-24,13.83L34.54,203V175.26Zm23.8,14-23.8-13.74-23.8,13.74V202.9l23.8,13.74,23.8-13.74Z" transform="translate(1.9 51.02)"/><path class="cls-4" d="M4.87,165l5.86-3.39,23.8,13.74v27.48L10.73,216.6l-5.86-3.39v.24l5.81,3.36.05,0,24-13.83.05,0V175.26l-24-13.83-.06,0-5.86,3.39Z" transform="translate(1.9 51.02)"/><path class="cls-4" d="M178.1,120h.05l24,13.84v27.72h-.05l-24,13.87-24-13.83V133.86h.05Zm23.8,14-23.8-13.76L154.3,134v27.44l23.8,13.78,23.75-13.78Z" transform="translate(1.9 51.02)"/><path class="cls-4" d="M130.25,120l24,13.84v27.72h-.05l-23.95,13.87h-.06l-24-13.83V133.86Zm23.8,14-23.8-13.75L106.45,134v27.43l23.8,13.74,23.85-13.74Z" transform="translate(1.9 51.02)"/><path class="cls-4" d="M82.44,120l24,13.84v27.72l-24,13.87-24-13.83V133.86h.06Zm23.8,14-23.8-13.75L58.64,134v27.43l23.8,13.74,23.8-13.74Z" transform="translate(1.9 51.02)"/><path class="cls-4" d="M34.64,120h0l24,13.84v27.72l-24,13.87h-.06L10.63,161.58V133.86h0Zm23.79,14L34.64,120.23,10.84,134v27.44l23.8,13.74,23.79-13.74Z" transform="translate(1.9 51.02)"/><path class="cls-4" d="M4.87,130.65,10.63,134v27.48l-5.76,3.33V165l5.92-3.42.05,0V133.86l-6-3.45Z" transform="translate(1.9 51.02)"/><path class="cls-4" d="M106.34,78.59h.06l24,13.83v27.72h-.05l-24,13.84-24-13.84V92.42h.05Zm23.8,14-23.8-13.74L82.54,92.57v27.48l23.8,13.75,23.76-13.75Z" transform="translate(1.9 51.02)"/><path class="cls-4" d="M58.54,78.59h.05l24,13.83v27.72L58.54,134l-24-13.84V92.42Zm23.8,14L58.54,78.83,34.74,92.57v27.48l23.8,13.75,23.8-13.75Z" transform="translate(1.9 51.02)"/><path class="cls-4" d="M4.87,82.23l5.86-3.39,23.8,13.74v27.48L10.73,133.8l-5.86-3.39v.24L10.68,134l.05,0,24-13.83.05,0V92.46l-24-13.83-.06,0L4.87,82Z" transform="translate(1.9 51.02)"/><path class="cls-4" d="M82.44,37.19l24,13.83V78.77l-24,13.83-24-13.83V51.05h.06Zm23.8,14L82.44,37.42,58.64,51.17V78.65l23.8,13.77,23.8-13.74Z" transform="translate(1.9 51.02)"/><path class="cls-4" d="M34.64,37.19h0l24,13.86V78.77l-24,13.83h-.06L10.63,78.77V51.05h0Zm23.79,14L34.64,37.42,10.84,51.17V78.65l23.8,13.77L58.43,78.65Z" transform="translate(1.9 51.02)"/><path class="cls-4" d="M4.87,47.85l5.76,3.33V78.66L4.87,82v.24l5.92-3.42.05,0V51.06l-6-3.45Z" transform="translate(1.9 51.02)"/><path class="cls-4" d="M58.54-4.21h.05l24,13.86V37.42l-24,13.83-24-13.83V9.65Zm23.8,14L58.54-4,34.74,9.77V37.25L58.54,51l23.8-13.74Z" transform="translate(1.9 51.02)"/><path class="cls-4" d="M4.87-.58,10.73-4,34.53,9.78V37.26L10.73,51,4.87,47.61v.24l5.81,3.36.05,0,24-13.83.05,0V9.66l-24-13.83-.06,0L4.87-.82Z" transform="translate(1.9 51.02)"/><path class="cls-4" d="M113.66,261.21V237.69L144.27,220l30.62,17.67v23.52H176V237.06l-31.7-18.29-31.69,18.29v24.15Z" transform="translate(1.9 51.02)"/><path class="cls-4" d="M51.36,261.21V237.69L82,220l30.61,17.67v23.52h1.08V237.06L82,218.77,50.28,237.06v24.15Z" transform="translate(1.9 51.02)"/><path class="cls-4" d="M50.28,237.69v23.52h1.08V237.06L19.67,218.77l-14.8,8.54v1.25L19.67,220Z" transform="translate(1.9 51.02)"/><path class="cls-4" d="M113.1,164.81l31.69,18.29v36.6L113.1,238,81.41,219.7V183.1Zm30.61,18.92L113.1,166.06,82.51,183.73v35.35l30.59,17.67,30.61-17.67Z" transform="translate(1.9 51.02)"/><path class="cls-4" d="M50.82,164.81,82.51,183.1v36.6L50.82,238,19.1,219.7V183.1Zm30.61,18.92L50.82,166.06,20.21,183.73v35.35l30.61,17.67,30.61-17.67Z" transform="translate(1.9 51.02)"/><path class="cls-4" d="M4.87,175.5l14.26,8.23v35.35L4.87,227.31v1.25l15.34-8.85v-36.6L4.87,174.25Z" transform="translate(1.9 51.02)"/><path class="cls-4" d="M82,110.85l31.69,18.3v36.59L82,184l-31.69-18.3V129.15Zm30.61,18.92L82,112.1,51.36,129.77v35.35L82,182.79l30.61-17.67Z" transform="translate(1.9 51.02)"/><path class="cls-4" d="M4.87,120.65l14.8-8.55,30.61,17.68v35.34L19.67,182.8l-14.8-8.55v1.25L19.67,184l31.69-18.29v-36.6l-31.69-18.3L4.87,119.4Z" transform="translate(1.9 51.02)"/><path class="cls-4" d="M4.87,67.59l14.26,8.23v35.35L4.87,119.4v1.25l15.34-8.86V75.2L4.87,66.34Z" transform="translate(1.9 51.02)"/><path class="cls-4" d="M50.82-51l31.69,18.3V3.87L50.82,22.17,19.1,3.87V-32.72ZM81.43-32.1,50.82-49.77,20.21-32.1V3.25L50.82,20.92,81.43,3.25Z" transform="translate(1.9 51.02)"/><path class="cls-4" d="M202,159.66a1.73,1.73,0,0,0-1,.31,1.8,1.8,0,0,0-.69.83,1.86,1.86,0,0,0,3.26,1.75,1.91,1.91,0,0,0,.31-1,1.84,1.84,0,0,0-1.85-1.86Z" transform="translate(1.9 51.02)"/><path class="cls-4" d="M202,217.68a1,1,0,1,0-1-1A1,1,0,0,0,202,217.68Z" transform="translate(1.9 51.02)"/><path class="cls-4" d="M178.1,201a1.88,1.88,0,0,0-1,.32,1.83,1.83,0,0,0-.69.84,1.89,1.89,0,0,0-.11,1.1,1.92,1.92,0,0,0,1.48,1.48,1.89,1.89,0,0,0,1.1-.11,1.91,1.91,0,0,0,.85-.69,2,2,0,0,0,.31-1.05A1.88,1.88,0,0,0,178.1,201Z" transform="translate(1.9 51.02)"/><path class="cls-4" d="M178.1,178.64a3.31,3.31,0,0,0,3.07-2,3.33,3.33,0,0,0,.19-1.92,3.33,3.33,0,0,0-2.61-2.61,3.33,3.33,0,0,0-1.92.19,3.31,3.31,0,0,0-2.05,3.07,3.35,3.35,0,0,0,3.32,3.32Z" transform="translate(1.9 51.02)"/><path class="cls-4" d="M154.15,215.32a1.42,1.42,0,0,0-.77.23,1.51,1.51,0,0,0-.52.63,1.41,1.41,0,0,0-.08.81,1.38,1.38,0,0,0,1.1,1.1,1.41,1.41,0,0,0,.81-.08,1.45,1.45,0,0,0,.63-.52,1.42,1.42,0,0,0,.23-.77,1.4,1.4,0,0,0-1.4-1.4Z" transform="translate(1.9 51.02)"/><path class="cls-4" d="M130.25,200.34a2.58,2.58,0,0,0-1.43.43,2.63,2.63,0,0,0-.95,1.16,2.54,2.54,0,0,0-.15,1.49,2.6,2.6,0,0,0,2,2,2.54,2.54,0,0,0,1.49-.15,2.63,2.63,0,0,0,1.16-1,2.62,2.62,0,0,0,.24-2.42,2.57,2.57,0,0,0-1.4-1.4A2.39,2.39,0,0,0,130.25,200.34Z" transform="translate(1.9 51.02)"/><path class="cls-4" d="M130.25,178.4a3.08,3.08,0,1,0-3.08-3.08A3.08,3.08,0,0,0,130.25,178.4Z" transform="translate(1.9 51.02)"/><path class="cls-4" d="M106.34,215.11a1.58,1.58,0,0,0-.89.27,1.54,1.54,0,0,0-.59.72,1.49,1.49,0,0,0-.09.93,1.6,1.6,0,0,0,.44.83,1.68,1.68,0,0,0,.82.44,1.56,1.56,0,0,0,.93-.1,1.54,1.54,0,0,0,.72-.59,1.56,1.56,0,0,0,.27-.89,1.67,1.67,0,0,0-.12-.62,1.64,1.64,0,0,0-.35-.52,1.54,1.54,0,0,0-.52-.35A1.63,1.63,0,0,0,106.34,215.11Z" transform="translate(1.9 51.02)"/><path class="cls-4" d="M82.44,201.07a1.85,1.85,0,0,0-1,.31,1.8,1.8,0,0,0-.69.83,1.86,1.86,0,0,0-.1,1.07,1.88,1.88,0,0,0,1.45,1.45,1.86,1.86,0,0,0,1.07-.1,1.8,1.8,0,0,0,.83-.69,1.78,1.78,0,0,0,.31-1,1.84,1.84,0,0,0-1.85-1.85Z" transform="translate(1.9 51.02)"/><path class="cls-4" d="M82.44,176.64a1.32,1.32,0,1,0-1.32-1.32A1.32,1.32,0,0,0,82.44,176.64Z" transform="translate(1.9 51.02)"/><path class="cls-4" d="M58.54,215.47a1.21,1.21,0,0,0-.69.2,1.23,1.23,0,0,0-.54,1.28,1.18,1.18,0,0,0,.34.65,1.25,1.25,0,0,0,.64.34,1.24,1.24,0,0,0,1.28-.53,1.22,1.22,0,0,0,.21-.69,1.25,1.25,0,0,0-.36-.88A1.22,1.22,0,0,0,58.54,215.47Z" transform="translate(1.9 51.02)"/><path class="cls-4" d="M34.64,201a2,2,0,0,0-1.84,1.23,1.93,1.93,0,0,0-.12,1.16,2,2,0,0,0,1.57,1.57,1.93,1.93,0,0,0,1.16-.12A2,2,0,0,0,36.64,203a2,2,0,0,0-2-2Z" transform="translate(1.9 51.02)"/><path class="cls-4" d="M34.64,177.54a2.22,2.22,0,1,0-2.22-2.22A2.22,2.22,0,0,0,34.64,177.54Z" transform="translate(1.9 51.02)"/><path class="cls-4" d="M10.73,214.85a1.86,1.86,0,0,0-1,.31A1.88,1.88,0,0,0,9,216a1.82,1.82,0,0,0-.11,1.08,1.86,1.86,0,0,0,1.47,1.47,1.82,1.82,0,0,0,1.08-.11,1.83,1.83,0,0,0,1.15-1.72,1.84,1.84,0,0,0-1.87-1.87Z" transform="translate(1.9 51.02)"/><path class="cls-4" d="M202,131.42a2.46,2.46,0,0,0-1.39.41,2.52,2.52,0,0,0-1.07,2.57,2.5,2.5,0,0,0,2,2,2.56,2.56,0,0,0,1.45-.14,2.46,2.46,0,0,0,1.12-.92,2.49,2.49,0,0,0,.42-1.39,2.52,2.52,0,0,0-.72-1.77A2.49,2.49,0,0,0,202,131.42Z" transform="translate(1.9 51.02)"/><path class="cls-4" d="M154.15,162.79a1.29,1.29,0,0,0,.72-.21,1.22,1.22,0,0,0,.47-.58,1.25,1.25,0,0,0,.08-.74,1.27,1.27,0,0,0-1-1,1.25,1.25,0,0,0-.74.08,1.15,1.15,0,0,0-.57.47,1.3,1.3,0,0,0-.22.72,1.33,1.33,0,0,0,.1.48,1.34,1.34,0,0,0,.69.69A1.33,1.33,0,0,0,154.15,162.79Z" transform="translate(1.9 51.02)"/><path class="cls-4" d="M154.15,131.55a2.32,2.32,0,0,0-1.32.39,2.39,2.39,0,0,0-.37,3.65,2.42,2.42,0,0,0,1.22.65,2.34,2.34,0,0,0,2.43-1,2.36,2.36,0,0,0-2-3.68Z" transform="translate(1.9 51.02)"/><path class="cls-4" d="M130.25,121.61a1.49,1.49,0,1,0-1.49-1.49A1.49,1.49,0,0,0,130.25,121.61Z" transform="translate(1.9 51.02)"/><path class="cls-4" d="M106.34,165a3.55,3.55,0,0,0,2-.59,3.42,3.42,0,0,0,1.29-1.57,3.5,3.5,0,0,0,.21-2,3.51,3.51,0,0,0-4.78-2.56,3.5,3.5,0,0,0-1.13,5.71A3.54,3.54,0,0,0,106.34,165Z" transform="translate(1.9 51.02)"/><path class="cls-4" d="M58.54,158.92a2.51,2.51,0,0,0-1.45.42,2.67,2.67,0,0,0-1,1.15A2.61,2.61,0,0,0,56,162a2.64,2.64,0,0,0,.7,1.34,2.56,2.56,0,0,0,1.33.72A2.6,2.6,0,0,0,60.66,163a2.6,2.6,0,0,0,.44-1.45,2.58,2.58,0,0,0-2.56-2.6Z" transform="translate(1.9 51.02)"/><path class="cls-4" d="M34.64,117.53a2.56,2.56,0,0,0-1.44.43,2.59,2.59,0,0,0-1,1.16,2.65,2.65,0,0,0-.15,1.5A2.62,2.62,0,0,0,32.8,122a2.59,2.59,0,0,0,2.83.56,2.59,2.59,0,0,0,1.16-1,2.48,2.48,0,0,0,.43-1.44,2.58,2.58,0,0,0-2.58-2.58Z" transform="translate(1.9 51.02)"/><path class="cls-4" d="M58.54,130.87a3,3,0,0,0-1.66.5,3,3,0,0,0-1.28,3.06,3,3,0,0,0,2.33,2.37,3,3,0,0,0,1.73-.15A2.93,2.93,0,0,0,61,135.57a3,3,0,0,0,.53-1.65,2.92,2.92,0,0,0-.21-1.17,3.09,3.09,0,0,0-.65-1,3,3,0,0,0-1-.66A3,3,0,0,0,58.54,130.87Z" transform="translate(1.9 51.02)"/><path class="cls-4" d="M10.73,158.75a2.74,2.74,0,0,0-2.56,1.71,2.78,2.78,0,0,0,3.62,3.62,2.74,2.74,0,0,0,1.71-2.56,2.71,2.71,0,0,0-.21-1.06,2.76,2.76,0,0,0-1.5-1.5A2.71,2.71,0,0,0,10.73,158.75Z" transform="translate(1.9 51.02)"/><path class="cls-4" d="M176.1,120.11a2,2,0,0,0,.34,1.11,2,2,0,0,0,.9.73,1.9,1.9,0,0,0,1.15.12,2,2,0,0,0,1-.55,2,2,0,0,0,.54-1,2,2,0,0,0-.11-1.16,2,2,0,0,0-.74-.9,2,2,0,0,0-1.11-.33,2,2,0,0,0-2,2Z" transform="translate(1.9 51.02)"/><path class="cls-4" d="M106.35,135.52a1.6,1.6,0,1,0-1.6-1.6A1.6,1.6,0,0,0,106.35,135.52Z" transform="translate(1.9 51.02)"/><path class="cls-4" d="M82.44,118.42a1.69,1.69,0,0,0-1,.29,1.69,1.69,0,0,0-.73,1.77,1.69,1.69,0,0,0,1.35,1.34,1.71,1.71,0,0,0,1.77-.74,1.61,1.61,0,0,0,.28-1,1.65,1.65,0,0,0-.13-.66,1.61,1.61,0,0,0-.37-.56,1.76,1.76,0,0,0-.56-.37A1.65,1.65,0,0,0,82.44,118.42Z" transform="translate(1.9 51.02)"/><path class="cls-4" d="M10.73,80.42A1.7,1.7,0,1,0,9,78.72,1.7,1.7,0,0,0,10.73,80.42Z" transform="translate(1.9 51.02)"/><path class="cls-4" d="M34.64,94.73a2.21,2.21,0,0,0,1.24-.38,2.22,2.22,0,1,0-3.08-3.08,2.21,2.21,0,0,0-.38,1.24,2.26,2.26,0,0,0,.17.85,2.21,2.21,0,0,0,1.2,1.2A2.26,2.26,0,0,0,34.64,94.73Z" transform="translate(1.9 51.02)"/><path class="cls-4" d="M10.73,136a2.12,2.12,0,1,0-2.12-2.12A2.12,2.12,0,0,0,10.73,136Z" transform="translate(1.9 51.02)"/><path class="cls-4" d="M130.25,95.07a2.58,2.58,0,0,0,1.43-.43,2.63,2.63,0,0,0,.94-1.15,2.59,2.59,0,0,0,.14-1.48,2.56,2.56,0,0,0-2-2,2.53,2.53,0,0,0-2.62,1.08,2.53,2.53,0,0,0-.24,2.41,2.5,2.5,0,0,0,1.38,1.38A2.56,2.56,0,0,0,130.25,95.07Z" transform="translate(1.9 51.02)"/><path class="cls-4" d="M109,78.71a2.64,2.64,0,0,0-1.67-2.42,2.7,2.7,0,0,0-1.54-.14,2.66,2.66,0,0,0,.55,5.27,2.56,2.56,0,0,0,1-.21,2.73,2.73,0,0,0,.87-.59,2.58,2.58,0,0,0,.76-1.91Z" transform="translate(1.9 51.02)"/><path class="cls-4" d="M82.44,38.92a1.6,1.6,0,1,0-1.6-1.6A1.6,1.6,0,0,0,82.44,38.92Z" transform="translate(1.9 51.02)"/><path class="cls-4" d="M106.35,53.21a2.09,2.09,0,1,0-2.09-2.09A2.09,2.09,0,0,0,106.35,53.21Z" transform="translate(1.9 51.02)"/><path class="cls-4" d="M82.44,94.75a2.23,2.23,0,1,0-2.23-2.23A2.23,2.23,0,0,0,82.44,94.75Z" transform="translate(1.9 51.02)"/><path class="cls-4" d="M58.54,54.28a3.16,3.16,0,1,0-3.16-3.16A3.16,3.16,0,0,0,58.54,54.28Z" transform="translate(1.9 51.02)"/><path class="cls-4" d="M34.64,35.53a1.74,1.74,0,0,0-1,.29,1.78,1.78,0,0,0-.77,1.84,1.79,1.79,0,0,0,1.41,1.41,1.73,1.73,0,0,0,1-.1,1.83,1.83,0,0,0,.81-.67,1.74,1.74,0,0,0,.29-1,1.78,1.78,0,0,0-1.78-1.78Z" transform="translate(1.9 51.02)"/><path class="cls-4" d="M58.54,75.58a3.17,3.17,0,0,0-1.74.52,3.23,3.23,0,0,0-1.15,1.41,3.2,3.2,0,0,0-.18,1.81,3.13,3.13,0,0,0,4.27,2.28,3.23,3.23,0,0,0,1.41-1.15,3.13,3.13,0,0,0-2.61-4.87Z" transform="translate(1.9 51.02)"/><path class="cls-4" d="M10.73,52.54a1.42,1.42,0,1,0-1.42-1.42A1.42,1.42,0,0,0,10.73,52.54Z" transform="translate(1.9 51.02)"/><path class="cls-4" d="M82.44,8a1.69,1.69,0,0,0-1,.29,1.72,1.72,0,0,0-.64.77,1.68,1.68,0,0,0-.09,1,1.72,1.72,0,0,0,1.35,1.35,1.68,1.68,0,0,0,1-.09,1.66,1.66,0,0,0,.77-.64,1.69,1.69,0,0,0,.29-.95A1.65,1.65,0,0,0,84,9.05a1.68,1.68,0,0,0-.93-.93A1.65,1.65,0,0,0,82.44,8Z" transform="translate(1.9 51.02)"/><path class="cls-4" d="M34.64,7.88A1.8,1.8,0,0,0,33,9a1.83,1.83,0,0,0,2.38,2.4,1.85,1.85,0,0,0,1.13-1.69,1.81,1.81,0,0,0-.53-1.29A1.78,1.78,0,0,0,34.64,7.88Z" transform="translate(1.9 51.02)"/><path class="cls-4" d="M187,250.16a2.58,2.58,0,1,0-2.58-2.58A2.58,2.58,0,0,0,187,250.16Z" transform="translate(1.9 51.02)"/><path class="cls-4" d="M137.63,272.42V247.64l24.64-14.23,24.64,14.23v24.78h.22v-24.9L162.32,233.2l0,0-24.8,14.32-.06,0v24.9Z" transform="translate(1.9 51.02)"/><path class="cls-4" d="M88.13,272.42V247.64l24.64-14.23,24.64,14.23v24.78h.22v-24.9L112.82,233.2l0,0L88,247.49l-.06,0v24.9Z" transform="translate(1.9 51.02)"/><path class="cls-4" d="M38.63,272.42V247.64l24.64-14.23,24.64,14.23v24.78h.22v-24.9L63.32,233.2l0,0-24.8,14.32-.06,0v24.9Z" transform="translate(1.9 51.02)"/><path class="cls-4" d="M38.41,247.64v24.78h.22v-24.9L13.82,233.2l-.05,0-15.67,9v.25l15.67-9.05Z" transform="translate(1.9 51.02)"/><path class="cls-4" d="M88,190.29l24.81,14.32v28.7h-.06L88,247.63h-.06l-24.8-14.32v-28.7Zm24.64,14.48L88,190.54,63.37,204.77v28.45L88,247.42l24.64-14.23Z" transform="translate(1.9 51.02)"/><path class="cls-4" d="M38.52,190.29l24.8,14.32v28.7l-24.8,14.32h-.06l-24.8-14.32v-28.7Zm24.64,14.48L38.52,190.54,13.88,204.77v28.45l24.64,14.2,24.64-14.2Z" transform="translate(1.9 51.02)"/><path class="cls-4" d="M-1.9,195.79l15.56,9v28.46l-15.56,9v.25l15.72-9.08.06,0v-28.7L-1.9,195.54Z" transform="translate(1.9 51.02)"/><path class="cls-4" d="M63.27,147.42,88.1,161.78v28.7H88L63.24,204.8h-.06l-24.8-14.32v-28.7Zm24.64,14.47L63.27,147.67,38.62,161.9v28.46l24.65,14.22,24.64-14.22Z" transform="translate(1.9 51.02)"/><path class="cls-4" d="M-1.9,156.72l15.67-9,24.64,14.23v28.45L13.77,204.59-1.9,195.54v.25l15.62,9,0,0,24.8-14.32.06,0v-28.7L13.82,147.46l-.05,0-15.67,9Z" transform="translate(1.9 51.02)"/><path class="cls-4" d="M38.52,104.56l24.8,14.32v28.7L38.52,161.9h-.06l-24.8-14.32v-28.7ZM63.16,119,38.52,104.81,13.88,119v28.46l24.64,14.23,24.64-14.23Z" transform="translate(1.9 51.02)"/><path class="cls-4" d="M-1.9,110.05l15.56,9v28.45l-15.56,9v.24l15.72-9.07.06,0V118.91L-1.9,109.8Z" transform="translate(1.9 51.02)"/><path class="cls-4" d="M63.27-24,88.1-9.7V19H88L63.27,33.36h-.06L38.41,19V-9.7ZM87.91-9.58,63.27-23.8,38.62-9.58V18.88L63.27,33.11,87.91,18.88Z" transform="translate(1.9 51.02)"/><path class="cls-4" d="M-1.9-14.75l15.67-9L38.41-9.57V18.89L13.77,33.11l-15.67-9v.25l15.62,9,0,0L38.57,19l.06,0V-9.69L13.82-24l-.05,0L-1.9-15Z" transform="translate(1.9 51.02)"/><path class="cls-4" d="M31.08,272.42V243.29L62.78,225l31.7,18.3v29.13H95.6V242.64L62.78,223.7,30,242.64v29.78Z" transform="translate(1.9 51.02)"/><path class="cls-4" d="M30,243.29v29.13h1.12V242.64L-1.73,223.7l-.17.09v1.3l.17-.1Z" transform="translate(1.9 51.02)"/><path class="cls-4" d="M-1.9,113.15l32.42,18.72,32.82-18.94V75L30.52,56.09-1.9,74.81ZM30.52,57.42l31.7,18.3v36.6l-31.7,18.3L-1.17,112.28V75.68Z" transform="translate(1.9 51.02)"/><path class="cls-4" d="M62.78.22,95.59,19.16v37.9L62.78,76,30,57.06V19.16ZM94.47,19.81,62.78,1.51,31.1,19.81V56.42l31.7,18.3,31.67-18.3Z" transform="translate(1.9 51.02)"/><path class="cls-4" d="M-1.9,1.61l.17-.1L30,19.81v36.6L-1.73,74.71l-.17-.09v1.29l.17.1,32.81-19V19.17L-1.73.22l-.17.1Z" transform="translate(1.9 51.02)"/><path class="cls-4" d="M191.24-32.24V.54L159.55,18.85,127.85.54V-32.24h-1.12V1.19l32.82,19L192.37,1.19V-32.24Z" transform="translate(1.9 51.02)"/><path class="cls-4" d="M126.73-32.24V.54L95,18.85,63.34.54V-32.24H62.22V1.19L95,20.14,127.85,1.19V-32.24Z" transform="translate(1.9 51.02)"/><path class="cls-4" d="M-1.9-32.24V1.42L30.52,20.14,63.34,1.19V-32.24H62.22V.54L30.52,18.85-1.17.54V-32.24Z" transform="translate(1.9 51.02)"/><path class="cls-4" d="M137.52,245.13a2.43,2.43,0,0,0-2.26,1.51,2.44,2.44,0,0,0-.14,1.41,2.44,2.44,0,0,0,1.93,1.93,2.44,2.44,0,0,0,1.41-.14,2.43,2.43,0,0,0,1.51-2.26,2.42,2.42,0,0,0-2.45-2.45Z" transform="translate(1.9 51.02)"/><path class="cls-4" d="M112.77,234.84a1.55,1.55,0,1,0-1.55-1.55A1.55,1.55,0,0,0,112.77,234.84Z" transform="translate(1.9 51.02)"/><path class="cls-4" d="M13.77,230.61a2.63,2.63,0,0,0-1.49.44,2.67,2.67,0,0,0-.41,4.13,2.66,2.66,0,0,0,1.37.73,2.58,2.58,0,0,0,1.55-.15,2.66,2.66,0,0,0,1.65-2.47,2.67,2.67,0,0,0-.78-1.89A2.64,2.64,0,0,0,13.77,230.61Z" transform="translate(1.9 51.02)"/><path class="cls-4" d="M38.52,250.73a3.15,3.15,0,1,0-3.15-3.15A3.15,3.15,0,0,0,38.52,250.73Z" transform="translate(1.9 51.02)"/><path class="cls-4" d="M160.21,233.29a2,2,0,0,0,.35,1.14,2.1,2.1,0,0,0,.93.76,2,2,0,0,0,1.19.12,2.05,2.05,0,0,0,1-.57,2,2,0,0,0,.56-1.05,2.05,2.05,0,0,0-.87-2.12,2.06,2.06,0,0,0-2.61.26,2,2,0,0,0-.44.67A2,2,0,0,0,160.21,233.29Z" transform="translate(1.9 51.02)"/><path class="cls-4" d="M88,249.24a1.66,1.66,0,1,0-1.66-1.66A1.66,1.66,0,0,0,88,249.24Z" transform="translate(1.9 51.02)"/><path class="cls-4" d="M63.27,235.07a1.78,1.78,0,1,0-1.78-1.78A1.78,1.78,0,0,0,63.27,235.07Z" transform="translate(1.9 51.02)"/><path class="cls-4" d="M13.77,207a2.32,2.32,0,0,0,1.28-.39,2.3,2.3,0,0,0,1-2.35,2.32,2.32,0,0,0-.63-1.17,2.29,2.29,0,0,0-3.52.34,2.3,2.3,0,0,0,1.9,3.57Z" transform="translate(1.9 51.02)"/><path class="cls-4" d="M112.77,207.36a2.65,2.65,0,1,0-2.65-2.65A2.65,2.65,0,0,0,112.77,207.36Z" transform="translate(1.9 51.02)"/><path class="cls-4" d="M90.77,190.42a2.75,2.75,0,0,0-.46-1.53,2.76,2.76,0,0,0-2.82-1.17,2.77,2.77,0,0,0-1.41.75,2.74,2.74,0,0,0,.42,4.23,2.74,2.74,0,0,0,4.27-2.28Z" transform="translate(1.9 51.02)"/><path class="cls-4" d="M63.27,149.21a1.66,1.66,0,1,0-1.66-1.66A1.66,1.66,0,0,0,63.27,149.21Z" transform="translate(1.9 51.02)"/><path class="cls-4" d="M88,164a2.16,2.16,0,0,0,2.12-2.59,2.16,2.16,0,0,0-1.69-1.69,2.14,2.14,0,0,0-1.25.12A2.16,2.16,0,0,0,88,164Z" transform="translate(1.9 51.02)"/><path class="cls-4" d="M63.27,207A2.31,2.31,0,1,0,61,204.71,2.31,2.31,0,0,0,63.27,207Z" transform="translate(1.9 51.02)"/><path class="cls-4" d="M38.52,165.12a3.28,3.28,0,1,0-3.28-3.28A3.28,3.28,0,0,0,38.52,165.12Z" transform="translate(1.9 51.02)"/><path class="cls-4" d="M13.77,145.7a1.85,1.85,0,0,0-1,.31,1.8,1.8,0,0,0-.69.83,1.86,1.86,0,0,0-.1,1.07,1.88,1.88,0,0,0,1.45,1.45,1.86,1.86,0,0,0,1.07-.1,1.8,1.8,0,0,0,.83-.69,1.78,1.78,0,0,0,.31-1,1.84,1.84,0,0,0-1.85-1.85Z" transform="translate(1.9 51.02)"/><path class="cls-4" d="M38.52,187.18a3.21,3.21,0,0,0-3,2,3.24,3.24,0,0,0,4.23,4.23,3.24,3.24,0,0,0-1.24-6.23Z" transform="translate(1.9 51.02)"/><path class="cls-4" d="M63.27,63.34a1.5,1.5,0,0,0,.85-.26,1.53,1.53,0,0,0,.57-.69,1.56,1.56,0,0,0,.08-.88,1.51,1.51,0,0,0-.41-.79,1.59,1.59,0,0,0-.79-.41,1.56,1.56,0,0,0-.88.08A1.6,1.6,0,0,0,62,61a1.5,1.5,0,0,0-.26.85,1.43,1.43,0,0,0,.12.58,1.49,1.49,0,0,0,.83.83A1.43,1.43,0,0,0,63.27,63.34Z" transform="translate(1.9 51.02)"/><path class="cls-4" d="M63.27,120.76A1.78,1.78,0,1,0,61.49,119,1.78,1.78,0,0,0,63.27,120.76Z" transform="translate(1.9 51.02)"/><path class="cls-4" d="M38.52,108.17A3.48,3.48,0,1,0,35,104.69,3.48,3.48,0,0,0,38.52,108.17Z" transform="translate(1.9 51.02)"/><path class="cls-4" d="M13.77,117.08a2,2,0,0,0-1,.31,1.91,1.91,0,0,0-.69.85,1.89,1.89,0,0,0-.11,1.1,1.92,1.92,0,0,0,1.48,1.48,1.89,1.89,0,0,0,1.1-.11,1.91,1.91,0,0,0,.85-.69,2,2,0,0,0,.31-1,1.88,1.88,0,0,0-1.89-1.89Z" transform="translate(1.9 51.02)"/><path class="cls-4" d="M61.21,33.23a2.11,2.11,0,0,0,1.27,1.91,2.1,2.1,0,0,0,1.19.12,2.14,2.14,0,0,0,1.06-.56,2.07,2.07,0,0,0,.56-1.06,2,2,0,0,0-2-2.46,2.07,2.07,0,0,0-2.06,2Z" transform="translate(1.9 51.02)"/><path class="cls-4" d="M13.77,59.14a2.65,2.65,0,0,0-2.48,1.65,2.74,2.74,0,0,0-.16,1.55,2.67,2.67,0,0,0,3.66,2,2.72,2.72,0,0,0,1.21-1,2.63,2.63,0,0,0,.44-1.49,2.66,2.66,0,0,0-2.67-2.67Z" transform="translate(1.9 51.02)"/><path class="cls-4" d="M13.77,35.91a2.77,2.77,0,0,0,1.5-.45,2.7,2.7,0,0,0,1-1.2,2.68,2.68,0,1,0-4.38.86A2.74,2.74,0,0,0,13.77,35.91Z" transform="translate(1.9 51.02)"/><path class="cls-4" d="M88,16.82a2.08,2.08,0,0,0-1.19.33,2.14,2.14,0,0,0-.81,1,2.07,2.07,0,0,0-.14,1.23A2.14,2.14,0,0,0,87.54,21a2.1,2.1,0,0,0,2.2-.9A2.08,2.08,0,0,0,90.1,19,2.12,2.12,0,0,0,88,16.82Z" transform="translate(1.9 51.02)"/><path class="cls-4" d="M38.52,21.3A2.35,2.35,0,1,0,36.17,19,2.35,2.35,0,0,0,38.52,21.3Z" transform="translate(1.9 51.02)"/></g></g></g></svg>