<svg width="271" height="94" viewBox="0 0 271 94" fill="none" xmlns="http://www.w3.org/2000/svg">
    <g clip-path="url(#clip0_623_137)">
        <path d="M47.86 0C41.31 0 34.83 1.44 28.88 4.2C22.93 6.96 17.65 10.97 13.4 15.97C9.72 19.68 6.97 24.21 5.4 29.19C4.95 30.75 4.69 32.35 4.62 33.97L18.13 39.2C18.85 37.47 19.41 36.06 20 34.67C21.73 30.59 24.32 26.93 27.59 23.93C33.15 18.8 40.46 15.98 48.02 16.05C52.22 16.09 56.36 17.01 60.18 18.76C64 20.51 67.41 23.05 70.19 26.2C71.06 27.27 71.8 28.45 72.38 29.7C72.98 29.34 73.55 28.95 74.09 28.52L77.2 26.76L74.8 46.12L58.15 39.04L57.01 38.56L59.69 36.93L58.51 35.71C55.68 32.88 51.85 31.29 47.85 31.28C43.75 31.33 39.84 33 36.98 35.93C34.12 38.86 32.53 42.82 32.58 46.92C32.53 51.02 34.12 54.98 36.98 57.91C39.84 60.84 43.76 62.52 47.85 62.56C49.28 62.56 50.71 62.35 52.09 61.94C55 61.08 57.59 59.36 59.52 57.01C60.09 56.55 60.82 56.32 61.55 56.39C65.83 57.67 69.94 59.51 74.12 61.15C70.07 71.22 59.2 77.87 47.53 77.94C46.75 77.94 45.97 77.92 45.19 77.87C33.34 77.05 22.29 68.09 19.37 56.77L23.24 54.21L3.69 46.14C3.25 48.5 2.83 50.79 2.41 53.06C1.61 57.37 0.83 61.6 0 66.05L4.82 64.23C10.07 75.97 17.78 83.76 26.35 88.37C26.7 88.56 27.04 88.75 27.4 88.92C27.47 88.96 27.56 89 27.63 89.04C28.07 89.26 28.51 89.48 28.95 89.68C29.44 89.9 29.93 90.12 30.43 90.32L31.17 90.62C36.48 92.75 42.14 93.84 47.86 93.83C73.18 93.83 93.71 72.82 93.71 46.91C93.71 21 73.18 0 47.86 0Z" fill="url(#paint0_linear_623_137)"/>
        <path d="M137.2 50.74C137.2 35.96 115.73 40.65 115.73 32.24C115.73 28.82 118.19 27.19 121.49 27.31C125.09 27.37 127.31 29.53 127.49 32.3H136.73C136.19 24.73 130.31 20.35 121.74 20.35C113.17 20.35 106.99 24.91 106.99 32.48C106.93 47.68 128.52 42.21 128.52 51.28C128.52 54.28 126.18 56.39 122.22 56.39C118.26 56.39 116.1 54.17 115.86 50.8H106.86C106.98 58.73 113.7 63.29 122.39 63.29C131.93 63.29 137.2 57.34 137.2 50.74V50.74ZM150.51 62.87H159.63L165.69 39.63L171.75 62.87H180.81L190.52 29.6H182.48L176.61 54.89L170.37 29.6H161.49L155.13 54.95L149.25 29.6H140.73L150.51 62.87ZM192.91 46.11C192.91 56.5 199.63 63.41 208.03 63.41C210.17 63.48 212.3 63.02 214.22 62.08C216.14 61.14 217.81 59.74 219.07 58V62.86H227.53V29.6H219.07V34.34C217.8 32.64 216.14 31.27 214.23 30.35C212.32 29.43 210.22 28.99 208.1 29.06C199.64 29.06 192.92 35.73 192.92 46.12L192.91 46.11ZM219.06 46.23C219.06 52.54 214.86 56.02 210.24 56.02C205.62 56.02 201.48 52.42 201.48 46.11C201.48 39.8 205.74 36.44 210.24 36.44C214.86 36.44 219.06 39.92 219.06 46.23ZM244.14 34.4V29.6H235.74V78.73H244.14V58.13C245.43 59.81 247.1 61.16 249 62.08C250.91 63 253 63.46 255.11 63.42C263.63 63.42 270.28 56.51 270.28 46.12C270.28 35.73 263.63 29.06 255.11 29.06C252.99 29.01 250.88 29.46 248.97 30.39C247.06 31.32 245.4 32.7 244.13 34.4H244.14ZM261.71 46.11C261.71 52.42 257.45 56.02 252.89 56.02C248.33 56.02 244.13 52.54 244.13 46.23C244.13 39.92 248.38 36.44 252.88 36.44C257.38 36.44 261.7 39.8 261.7 46.11H261.71Z" fill="white"/>
    </g>
    <defs>
        <linearGradient id="paint0_linear_623_137" x1="9.83" y1="70.05" x2="88.25" y2="22.34" gradientUnits="userSpaceOnUse">
            <stop stop-color="#EF3B45"/>
            <stop offset="0.5" stop-color="#F15822"/>
            <stop offset="1" stop-color="#EE225B"/>
        </linearGradient>
        <clipPath id="clip0_623_137">
            <rect width="270.28" height="93.85" fill="white"/>
        </clipPath>
    </defs>
</svg>
