<svg width="79" height="79" viewBox="0 0 79 79" fill="none" xmlns="http://www.w3.org/2000/svg">
<g clip-path="url(#clip0_156_1899)">
<path d="M64.5084 0H14.5163C10.6684 -1.39113e-06 6.97804 1.52769 4.25607 4.24735C1.5341 6.96701 0.00327195 10.6561 0 14.5039V64.4837C0.00326875 68.3327 1.53371 72.0231 4.25532 74.7447C6.97694 77.4663 10.6673 78.9967 14.5163 79H64.5084C68.3541 78.9935 72.04 77.4612 74.757 74.7396C77.474 72.018 79 68.3294 79 64.4837V14.5039C79 10.6594 77.4736 6.97211 74.7563 4.25246C72.0389 1.5328 68.353 0.00327195 64.5084 0Z" fill="#FFF2ED"/>
<path d="M36.5173 37.2279L25.554 47.9756L17.0575 39.3226L27.9724 28.6394L36.5173 37.2279ZM39.7418 31.427C38.5025 31.4366 37.2884 31.0781 36.2533 30.3969C35.2183 29.7158 34.4089 28.7428 33.9281 27.6012C33.4472 26.4597 33.3164 25.2011 33.5522 23.9852C33.7881 22.7692 34.3801 21.6507 35.2529 20.7715C36.1258 19.8923 37.2404 19.292 38.4551 19.0469C39.6699 18.8017 40.9301 18.9226 42.076 19.3944C43.2218 19.8661 44.2017 20.6674 44.8912 21.6966C45.5807 22.7257 45.9489 23.9364 45.9489 25.175C45.9363 26.8136 45.2805 28.3818 44.1226 29.5421C42.9648 30.7023 41.3974 31.3618 39.7579 31.3787L39.7418 31.427ZM39.2903 62.0426L29.2138 51.7784L51.882 29.5417L61.9585 39.806L39.2903 62.0426ZM67.9238 38.3236L41.1122 11.0112C40.7798 10.6748 40.3276 10.4837 39.8546 10.4795C39.3934 10.5017 38.9543 10.684 38.6132 10.9951L11.1083 37.8241C10.9099 38.0134 10.7519 38.2409 10.6438 38.4929C10.5357 38.7449 10.4799 39.0162 10.4795 39.2904C10.4756 39.8485 10.6896 40.3861 11.0761 40.789L24.7157 54.6788L24.9575 54.856L37.7587 67.8918C37.9517 68.0899 38.1823 68.2475 38.437 68.3554C38.6917 68.4633 38.9653 68.5194 39.242 68.5203C39.7955 68.5235 40.3281 68.3094 40.7252 67.9241L67.8915 41.2885C68.0912 41.0967 68.2498 40.8665 68.3579 40.6117C68.466 40.3568 68.5212 40.0828 68.5203 39.806C68.5201 39.2535 68.3064 38.7224 67.9238 38.3236Z" fill="#F66033"/>
</g>
<defs>
<clipPath id="clip0_156_1899">
<rect width="79" height="79" fill="white"/>
</clipPath>
</defs>
</svg>
