<svg width="79" height="79" viewBox="0 0 79 79" fill="none" xmlns="http://www.w3.org/2000/svg">
<path d="M14.3655 69.9633L14.4972 70.0575C20.0631 74.5966 26.7604 77.5339 33.8698 78.554C40.9792 79.574 48.2321 78.6382 54.8498 75.8471C61.4675 73.056 67.2 68.5151 71.4316 62.7118C75.6632 56.9086 78.2342 50.0624 78.8684 42.9083C78.8684 42.7576 78.8684 42.5505 78.8684 42.2493C77.1174 40.8184 75.7053 40.3666 74.6133 40.6866C46.2843 50.753 26.2017 60.5119 14.3655 69.9633Z" fill="#4A3BE4"/>
<path d="M14.3655 69.9445L14.4972 70.0575C20.0631 74.5966 26.7604 77.5339 33.8698 78.554C40.9792 79.574 48.2321 78.6382 54.8498 75.8471C61.4675 73.056 67.2 68.5151 71.4316 62.7118C75.6632 56.9086 78.2342 50.0624 78.8684 42.9083C78.8684 42.7576 78.8684 42.5317 78.8684 42.2493C77.1174 40.8184 75.7053 40.3666 74.6133 40.6866C46.2843 50.7405 26.2017 60.4931 14.3655 69.9445Z" fill="url(#paint0_linear_627_1143)"/>
<path d="M75.0651 56.69L75.291 56.2005C79.0638 48.0438 79.9451 38.8452 77.7899 30.1204C75.6347 21.3957 70.5715 13.6656 63.4346 8.20383C56.2978 2.74209 47.5132 -0.125291 38.5285 0.0742018C29.5437 0.273694 20.8949 3.52813 14.0075 9.30125L13.4991 9.73431C13.4991 12.1819 14.0453 13.6504 15.0997 14.1588C37.9562 25.0034 55.8421 32.4026 63.8249 38.5027C72.3726 45.0044 76.1194 51.0669 75.0651 56.69Z" fill="#B71E5E"/>
<path d="M75.0651 56.69L75.291 56.2005C79.0638 48.0438 79.9451 38.8452 77.7899 30.1204C75.6347 21.3957 70.5715 13.6656 63.4346 8.20383C56.2978 2.74209 47.5132 -0.125291 38.5285 0.0742018C29.5437 0.273694 20.8949 3.52813 14.0075 9.30125L13.4991 9.73431C13.4991 12.1819 14.0453 13.6504 15.0997 14.1588C37.9562 25.0034 55.8421 32.4026 63.8249 38.5027C72.3726 45.0044 76.1194 51.0669 75.0651 56.69Z" fill="url(#paint1_linear_627_1143)"/>
<path d="M36.6003 0.113281H36.0731C27.134 0.935769 18.7409 4.77578 12.274 11.0018C5.80709 17.2277 1.65146 25.469 0.490308 34.3705C-0.670845 43.2719 1.23164 52.3035 5.88504 59.9801C10.5384 67.6567 17.6657 73.5212 26.0947 76.6092L26.7159 76.8352C24.306 48.7446 23.7852 29.3774 25.1533 18.7337C26.5214 8.08987 30.3371 1.88306 36.6003 0.113281Z" fill="#F15522"/>
<path d="M36.6003 0.113281H36.0731C27.134 0.935769 18.7409 4.77578 12.274 11.0018C5.80709 17.2277 1.65146 25.469 0.490308 34.3705C-0.670845 43.2719 1.23164 52.3035 5.88504 59.9801C10.5384 67.6567 17.6657 73.5212 26.0947 76.6092L26.7159 76.8352C24.306 48.7446 23.7852 29.3774 25.1533 18.7337C26.5214 8.08987 30.3371 1.88306 36.6003 0.113281Z" fill="url(#paint2_linear_627_1143)"/>
<path d="M14.3655 69.9627L14.4972 70.0569C18.71 73.528 23.5941 76.0918 28.8437 77.5879H29.1261L27.1115 61.415L26.9044 61.5468C22.5829 64.128 18.3977 66.9307 14.3655 69.9439V69.9627Z" fill="#4A3BE4"/>
<defs>
<linearGradient id="paint0_linear_627_1143" x1="43.2656" y1="67.4781" x2="91.5957" y2="37.4106" gradientUnits="userSpaceOnUse">
<stop stop-opacity="0"/>
<stop offset="1"/>
</linearGradient>
<linearGradient id="paint1_linear_627_1143" x1="50.0997" y1="24.3256" x2="-15.4387" y2="-0.187757" gradientUnits="userSpaceOnUse">
<stop stop-color="#B71E5E"/>
<stop offset="1"/>
</linearGradient>
<linearGradient id="paint2_linear_627_1143" x1="49549.2" y1="-817394" x2="50807" y2="-819150" gradientUnits="userSpaceOnUse">
<stop stop-opacity="0"/>
<stop offset="1"/>
</linearGradient>
</defs>
</svg>
