<svg xmlns="http://www.w3.org/2000/svg" width="178.475" height="177.84" viewBox="0 0 178.475 177.84"><path d="M188.6,160.923l-77.453,45.231-72.269-57.6L97.1,108.711Z" transform="translate(-10.126 -28.314)" fill="#e1e1e1"/><path d="M184.12,173.537,125.43,207.422,25.45,161.134l68.593-39.6Z" transform="translate(-6.629 -31.653)" fill="#f2f2f2"/><path d="M184.12,164.807l-68.593,39.61L25.45,152.4l68.593-39.6Z" transform="translate(-6.629 -29.379)" fill="#fff"/><path d="M117.968,201.815l-.118-.067-83-47.923,61.641-35.595.118.067,83,47.923ZM35.8,153.826l82.164,47.405,60.695-35.04L96.491,118.778Z" transform="translate(-9.077 -30.793)" fill="#3a4648"/><path d="M96.979,144.444l-8.889,5.132L79.2,144.444l8.889-5.132Z" transform="translate(-20.628 -36.284)" fill="#fbbf34"/><path d="M112.726,144.4,86.384,159.615,82.56,157.4,108.9,142.191Z" transform="translate(-21.503 -37.034)" fill="#5e6060"/><path d="M129.184,141.555l-47.73,27.563-3.823-2.211,47.73-27.556Z" transform="translate(-20.219 -36.294)" fill="#5e6060"/><path d="M138.714,147.055l-47.73,27.563-3.823-2.211,47.73-27.556Z" transform="translate(-22.701 -37.726)" fill="#5e6060"/><path d="M148.244,152.562l-47.731,27.556-3.823-2.2,47.73-27.563Z" transform="translate(-25.183 -39.159)" fill="#5e6060"/><path d="M132.2,178.023l-22.157,12.794-3.831-2.2,22.164-12.8Z" transform="translate(-27.662 -45.79)" fill="#5e6060"/><path d="M167.3,163.562l-47.731,27.556-3.831-2.2,47.738-27.563Z" transform="translate(-30.145 -42.024)" fill="#5e6060"/><path d="M176.831,169.065,129.1,196.628l-3.831-2.211,47.738-27.556Z" transform="translate(-32.627 -43.459)" fill="#5e6060"/><path d="M177.834,181.222,138.623,203.86l-3.823-2.211,39.211-22.638Z" transform="translate(-35.109 -46.623)" fill="#5e6060"/><path d="M204.765,176.6l-1.368-1.686-3.2.163-2.64-1.065-2.64,1.065-3.2-.163-1.361,1.686-2.914.784.274,1.849-1.841,1.523,1.841,1.531-.274,1.849,2.914.784,1.361,1.686,3.2-.163,2.64,1.065,2.64-1.065,3.2.163,1.368-1.686,2.914-.784-.274-1.849,1.834-1.531-1.834-1.523.274-1.849Z" transform="translate(-48.41 -45.321)" fill="#f4a717"/><path d="M205.06,177.293a14.945,14.945,0,0,0-13.512,0c-3.735,2.152-3.7,5.65,0,7.8a14.945,14.945,0,0,0,13.512,0C208.787,182.943,208.787,179.452,205.06,177.293Z" transform="translate(-49.163 -45.756)" fill="#fbbf34"/><path d="M70.127,97.908v7.4c0,5.177-3.4,10.317-10.184,14.259-13.645,7.928-35.846,7.928-49.55,0C3.479,115.569.04,110.333.04,105.1V97.7c0,5.228,3.439,10.464,10.354,14.458,13.733,7.928,35.935,7.928,49.55,0C66.718,108.225,70.112,103.07,70.127,97.908Z" transform="translate(-0.01 -25.446)" fill="#48210e"/><path d="M94.6,97.968v7.4a11.827,11.827,0,0,1-.584,3.661v-7.4a11.881,11.881,0,0,0,.584-3.7Z" transform="translate(-24.488 -25.506)" fill="#48210e"/><path d="M91.95,102.941v7.4a17.316,17.316,0,0,1-5.879,8.046v-7.4a17.33,17.33,0,0,0,5.916-8.039Z" transform="translate(-22.417 -26.811)" fill="#48210e"/><path d="M82.3,113.809v7.4a28.8,28.8,0,0,1-3.7,2.551,39.394,39.394,0,0,1-7.018,3.15v-7.4a39.357,39.357,0,0,0,7.018-3.158,29.35,29.35,0,0,0,3.7-2.551Z" transform="translate(-18.643 -29.64)" fill="#48210e"/><path d="M66.471,121.531v7.4a54.2,54.2,0,0,1-14.421,2.707v-7.4a54.184,54.184,0,0,0,14.429-2.7Z" transform="translate(-13.556 -31.653)" fill="#48210e"/><path d="M48.032,125.022v7.4a60.876,60.876,0,0,1-11.382-.451v-7.4a60.174,60.174,0,0,0,11.374.451Z" transform="translate(-9.545 -32.445)" fill="#48210e"/><path d="M27.112,117.573v7.4a46.3,46.3,0,0,1-16.758-5.406C3.439,115.569,0,110.333,0,105.1V97.7c0,5.228,3.439,10.464,10.354,14.458a46.3,46.3,0,0,0,16.758,5.406Z" transform="translate(0 -25.446)" fill="#48210e"/><path d="M59.781,76.366c13.733,7.928,13.807,20.788.163,28.716s-35.846,7.928-49.55,0S-3.443,84.272,10.2,76.366,46.048,68.409,59.781,76.366Z" transform="translate(-0.011 -18.34)" fill="#682f14"/><path d="M68.068,92.619V96c0,4.7-3.106,9.393-9.274,12.979-12.417,7.218-32.622,7.218-45.113,0-6.345-3.631-9.459-8.386-9.451-13.164V92.442c0,4.755,3.128,9.526,9.422,13.157,12.5,7.218,32.7,7.218,45.113,0C64.969,102.012,68.061,97.323,68.068,92.619Z" transform="translate(-1.102 -24.076)" fill="#f4a717"/><path d="M90.363,92.682v3.38A11.359,11.359,0,0,1,89.83,99.4v-3.38a11.092,11.092,0,0,0,.525-3.343Z" transform="translate(-23.396 -24.139)" fill="#f4a717"/><path d="M87.954,97.2v3.38A15.868,15.868,0,0,1,82.6,107.9v-3.372A15.882,15.882,0,0,0,87.954,97.2Z" transform="translate(-21.513 -25.316)" fill="#f4a717"/><path d="M79.159,107.1v3.372a26.377,26.377,0,0,1-3.387,2.322,35.846,35.846,0,0,1-6.382,2.877v-3.38a35.92,35.92,0,0,0,6.39-2.877,27.725,27.725,0,0,0,3.387-2.315Z" transform="translate(-18.073 -27.895)" fill="#f4a717"/><path d="M64.8,114.122v3.38a49.7,49.7,0,0,1-13.134,2.455v-3.38A49.268,49.268,0,0,0,64.8,114.122Z" transform="translate(-13.457 -29.723)" fill="#f4a717"/><path d="M47.984,117.319v3.38a54.516,54.516,0,0,1-10.354-.414v-3.372A55.07,55.07,0,0,0,47.984,117.319Z" transform="translate(-9.801 -30.45)" fill="#f4a717"/><path d="M28.924,110.524V113.9a41.975,41.975,0,0,1-15.25-4.918c-6.338-3.631-9.451-8.386-9.444-13.164V92.442c0,4.755,3.128,9.526,9.422,13.157a42.122,42.122,0,0,0,15.25,4.925Z" transform="translate(-1.102 -24.076)" fill="#f4a717"/><path d="M58.669,72.985c12.5,7.218,12.572,18.918.148,26.136s-32.629,7.218-45.113,0S1.132,80.2,13.557,72.985,46.163,65.767,58.669,72.985Z" transform="translate(-1.117 -17.599)" fill="#ffc641"/><path d="M66.827,88.009v3.173c0,4.437-2.921,8.831-8.719,12.2-11.67,6.789-30.662,6.789-42.413,0C9.778,99.968,6.82,95.486,6.82,91.012v-3.18c0,4.437,2.958,8.956,8.875,12.373,11.744,6.782,30.736,6.782,42.413,0C63.913,96.832,66.812,92.424,66.827,88.009Z" transform="translate(-1.776 -22.876)" fill="#893f24"/><path d="M87.783,88.071v3.173a10.448,10.448,0,0,1-.5,3.136V91.207A10.219,10.219,0,0,0,87.783,88.071Z" transform="translate(-22.732 -22.938)" fill="#893f24"/><path d="M85.509,92.311v3.173a14.846,14.846,0,0,1-5.029,6.878V99.19A14.794,14.794,0,0,0,85.509,92.311Z" transform="translate(-20.961 -24.043)" fill="#893f24"/><path d="M77.245,101.612v3.173a24.351,24.351,0,0,1-3.187,2.182,33.31,33.31,0,0,1-6,2.7v-3.173a33.888,33.888,0,0,0,6.005-2.7A25.578,25.578,0,0,0,77.245,101.612Z" transform="translate(-17.726 -26.465)" fill="#893f24"/><path d="M63.713,108.211v3.173A46.33,46.33,0,0,1,51.37,113.7v-3.18A45.935,45.935,0,0,0,63.713,108.211Z" transform="translate(-13.379 -28.184)" fill="#893f24"/><path d="M47.94,111.2v3.18a52.3,52.3,0,0,1-9.74-.385v-3.18a50.981,50.981,0,0,0,9.732.385Z" transform="translate(-9.949 -28.861)" fill="#893f24"/><path d="M30.037,104.827v3.18a39.593,39.593,0,0,1-14.332-4.63C9.788,99.968,6.83,95.486,6.83,91.012v-3.18c0,4.437,2.958,8.956,8.875,12.373A39.493,39.493,0,0,0,30.037,104.827Z" transform="translate(-1.779 -22.876)" fill="#893f24"/><path d="M57.983,69.545c11.751,6.782,11.833,17.786.141,24.568s-30.669,6.782-42.413,0S3.877,76.364,15.57,69.545,46.231,62.764,57.983,69.545Z" transform="translate(-1.784 -16.785)" fill="#b6623a"/><g transform="translate(18.909 54.156)" opacity="0.4"><path d="M59.264,76.581c7.743,4.437,7.787,11.722.1,16.189s-20.212,4.475-27.955,0-7.787-11.722-.1-16.189S51.52,72.106,59.264,76.581Z" transform="translate(-25.569 -73.228)" fill="#893f24" opacity="0.4"/></g><path d="M63.256,80.236,60.734,85.2c-1.228,2.4-4.031,4.008-8.135,4.245-8.239.473-18.592-4.77-23.133-11.707-2.278-3.5-2.655-6.752-1.413-9.193l2.529-4.962c-1.242,2.441-.865,5.7,1.413,9.193,4.533,6.944,14.895,12.188,23.133,11.707,4.09-.237,6.893-1.842,8.135-4.245Z" transform="translate(-7.124 -16.56)" fill="#48210e"/><path d="M62.739,69.539c4.533,6.944,1.538,12.964-6.7,13.438s-18.6-4.763-23.133-11.707S31.375,58.29,39.614,57.832,58.206,62.6,62.739,69.539Z" transform="translate(-8.02 -15.055)" fill="#381a0b"/><path d="M68.231,67.741l-4.215,8.3c-1.154,2.263-3.786,3.772-7.632,3.994-7.743.451-17.476-4.482-21.743-11-2.145-3.284-2.492-6.353-1.331-8.638l4.215-8.268c-1.168,2.293-.813,5.354,1.331,8.638,4.26,6.53,14,11.456,21.743,11,3.846-.222,6.478-1.731,7.632-3.986Z" transform="translate(-8.505 -13.575)" fill="#682f14"/><path d="M68.382,57.673c4.267,6.523,1.479,12.18-6.3,12.624s-17.483-4.437-21.743-11-1.479-12.18,6.3-12.632S64.122,51.143,68.382,57.673Z" transform="translate(-9.987 -12.146)" fill="#4e2a1a"/><path d="M79.9,42.176,69.782,62.011c-1.228,2.411-4.023,4.016-8.135,4.252-8.209.473-18.563-4.77-23.111-11.714-2.278-3.491-2.655-6.752-1.413-9.185l10.11-19.842c-1.235,2.441-.865,5.695,1.42,9.193,4.533,6.944,14.887,12.18,23.126,11.707,4.09-.237,6.893-1.841,8.135-4.245Z" transform="translate(-9.487 -6.647)" fill="#ffc641"/><path d="M49.1,37.431a15.56,15.56,0,0,1-.843-1.479L38.14,55.823c.251.473.525.961.843,1.442a20.089,20.089,0,0,0,2,2.559L51.1,40.026A19.967,19.967,0,0,1,49.1,37.431Z" transform="translate(-9.934 -9.364)" fill="#ffc641"/><path d="M47.233,25.521,37.123,45.364c-1.072,2.093-.939,4.8.569,7.743L47.809,33.265C46.3,30.329,46.168,27.622,47.233,25.521Z" transform="translate(-9.486 -6.647)" fill="#f8b926"/><path d="M52.1,41.461,41.98,61.259a28.842,28.842,0,0,0,8.557,6.264L60.654,47.688A28.9,28.9,0,0,1,52.1,41.461Z" transform="translate(-10.934 -10.799)" fill="#f8b926"/><path d="M63.667,49.882,53.55,69.716a26.143,26.143,0,0,0,12.5,2.892L76.165,52.766A26.217,26.217,0,0,1,63.667,49.882Z" transform="translate(-13.947 -12.992)" fill="#f4a717"/><path d="M80.636,52.287h-.074L70.43,72.129h.081c4.09-.237,6.885-1.841,8.135-4.252L88.763,48.042C87.528,50.445,84.725,52.05,80.636,52.287Z" transform="translate(-18.343 -12.512)" fill="#f8b926"/><path d="M82.038,31.478c4.541,6.944,1.538,12.957-6.7,13.438S56.745,40.153,52.2,33.208s-1.531-12.957,6.708-13.438S77.5,24.534,82.038,31.478Z" transform="translate(-13.046 -5.141)" fill="#ee9815"/><path d="M87.9,28.948l-4.215,8.268C82.533,39.472,79.9,40.98,76.054,41.2c-7.743.451-17.476-4.474-21.743-11-2.145-3.284-2.492-6.345-1.324-8.638L57.2,13.292c-1.168,2.293-.814,5.354,1.331,8.638,4.267,6.53,14,11.456,21.743,11.012C84.115,32.712,86.748,31.211,87.9,28.948Z" transform="translate(-13.629 -3.462)" fill="#682f14"/><path d="M88.021,18.873C92.288,25.4,89.5,31.054,81.72,31.5S64.244,27.023,59.977,20.493,58.5,8.313,66.278,7.861,83.761,12.343,88.021,18.873Z" transform="translate(-15.101 -2.04)" fill="#582c18"/><path d="M92.516,22.436,89.994,27.4c-1.228,2.4-4.031,4.008-8.135,4.245-8.239.473-18.592-4.77-23.133-11.714-2.278-3.491-2.655-6.752-1.413-9.185l2.529-4.962c-1.242,2.441-.865,5.695,1.413,9.193,4.533,6.944,14.895,12.18,23.133,11.707,4.09-.237,6.893-1.841,8.135-4.245Z" transform="translate(-14.745 -1.506)" fill="#48210e"/><path d="M92,11.738c4.533,6.944,1.538,12.964-6.7,13.438S66.7,20.413,62.166,13.468,60.635.511,68.874.031,87.466,4.779,92,11.738Z" transform="translate(-15.641 0)" fill="#893f24"/><path d="M94.011,13.368c4.334,6.567,1.479,12.24-6.316,12.654S70.02,21.458,65.687,14.884,64.207,2.644,72.01,2.223,89.678,6.83,94.011,13.368Z" transform="translate(-16.581 -0.572)" fill="#893f24"/><path d="M79.057,59.418a3.255,3.255,0,0,0-3.276-.385A10.117,10.117,0,0,0,69.6,65.845a3.27,3.27,0,0,0,.688,3.173l8.068,7.4a3.164,3.164,0,0,1-.688-3.18,10.132,10.132,0,0,1,6.19-6.8,3.267,3.267,0,0,1,3.276.377Z" transform="translate(-18.096 -15.31)" fill="#682f14"/><path d="M86.728,69c2.8-.9,4.57.7,3.957,3.557a10.117,10.117,0,0,1-6.175,6.8c-2.8.9-4.585-.7-3.971-3.557a10.132,10.132,0,0,1,6.19-6.8Z" transform="translate(-20.945 -17.906)" fill="#48210e"/><path d="M91.779,71.22l53.543,48.81a1.94,1.94,0,0,0-.7-.392,3.2,3.2,0,0,0-1.864.1L89.22,70.924a3.128,3.128,0,0,1,1.864-.089A1.737,1.737,0,0,1,91.779,71.22Z" transform="translate(-23.237 -18.423)" fill="#381a0b"/><path d="M142.763,119.694,89.22,70.884a3.128,3.128,0,0,1,1.864-.089,1.738,1.738,0,0,1,.7.392L145.322,120a1.94,1.94,0,0,0-.7-.392,3.2,3.2,0,0,0-1.864.1Z" transform="translate(-23.237 -18.412)" fill="#381a0b"/><path d="M136.742,127.526,83.2,78.716c-.954-.873-.828-2.766.429-4.674a7.816,7.816,0,0,1,3.86-3.121l53.543,48.81a7.79,7.79,0,0,0-3.86,3.121C135.914,124.783,135.788,126.676,136.742,127.526Z" transform="translate(-21.506 -18.472)" fill="#381a0b"/><path d="M136.742,127.526,83.2,78.716c-.954-.873-.828-2.766.429-4.674a7.816,7.816,0,0,1,3.86-3.121l53.543,48.81a7.79,7.79,0,0,0-3.86,3.121C135.914,124.76,135.788,126.654,136.742,127.526Z" transform="translate(-21.506 -18.472)" fill="#381a0b"/><path d="M159.888,136.884a3.2,3.2,0,0,1,1.864-.1c1.657.518,1.775,2.781.266,5.066a7.815,7.815,0,0,1-3.86,3.121,3.12,3.12,0,0,1-1.864.089c-1.657-.51-1.775-2.773-.266-5.059A7.79,7.79,0,0,1,159.888,136.884Z" transform="translate(-40.362 -35.602)" fill="#4a2818"/><path d="M154.525,128.127a3.258,3.258,0,0,0-3.276-.385,10.151,10.151,0,0,0-6.19,6.811,3.27,3.27,0,0,0,.688,3.173l14.532,13.268a3.151,3.151,0,0,1-.688-3.173,10.153,10.153,0,0,1,6.183-6.811,3.245,3.245,0,0,1,3.276.385Z" transform="translate(-37.75 -33.206)" fill="#682f14"/><path d="M170.89,145.683c2.8-.895,4.578.7,3.964,3.557a10.115,10.115,0,0,1-6.183,6.811c-2.8.895-4.578-.7-3.964-3.557a10.153,10.153,0,0,1,6.183-6.811Z" transform="translate(-42.866 -37.878)" fill="#48210e"/></svg>