<svg width="130" height="46" viewBox="0 0 130 46" fill="none" xmlns="http://www.w3.org/2000/svg">
<path d="M23.0201 0C19.8667 0.00405416 16.7517 0.69297 13.8906 2.01912C11.0295 3.34527 8.49063 5.27701 6.44945 7.68075C4.67769 9.46375 3.35763 11.6443 2.59921 14.0407C2.38304 14.7888 2.2579 15.5603 2.22647 16.3384L8.72256 18.8553C9.0679 18.0218 9.33822 17.347 9.62393 16.676C10.4567 14.7129 11.7017 12.9517 13.2745 11.5117C14.6816 10.2179 16.3331 9.21824 18.1319 8.57158C19.9307 7.92492 21.8407 7.64428 23.7495 7.74613C25.6583 7.84798 27.5275 8.33027 29.2473 9.16467C30.9671 9.99907 32.5029 11.1688 33.7643 12.605C34.1837 13.1205 34.5377 13.6859 34.8181 14.2884C35.1047 14.1164 35.38 13.9264 35.6425 13.7194V13.7142L37.1364 12.8724L35.982 22.1828L27.9723 18.7789L27.4245 18.548L28.7154 17.7621L28.1474 17.1753C26.7866 15.8148 24.9424 15.0487 23.0182 15.0445C21.0436 15.0761 19.1605 15.8827 17.7752 17.2903C16.39 18.6978 15.6136 20.5936 15.6136 22.5685C15.6136 24.5434 16.39 26.4391 17.7752 27.8467C19.1605 29.2543 21.0436 30.0609 23.0182 30.0925C23.7083 30.0934 24.3949 29.9934 25.0561 29.7957C26.4581 29.3828 27.703 28.5566 28.6279 27.4249C28.9022 27.2014 29.2534 27.0948 29.6057 27.1282C31.6638 27.7419 33.6421 28.6283 35.6526 29.4171C33.7046 34.263 28.4745 37.4572 22.8648 37.4923C22.4912 37.4949 22.1157 37.483 21.7383 37.4567C16.0406 37.0623 10.7239 32.7523 9.318 27.3081L11.177 26.0758L1.77578 22.1943C1.56559 23.3294 1.36261 24.4308 1.16012 25.5246C0.775332 27.5928 0.397289 29.6278 0 31.7711L2.31641 30.8967C4.843 36.5453 8.54989 40.2902 12.6704 42.5065C12.8369 42.5969 13.0042 42.6869 13.175 42.7711C13.2106 42.7913 13.251 42.8076 13.2866 42.8278C13.4972 42.9336 13.7074 43.039 13.9219 43.1371C14.1562 43.2429 14.3947 43.3482 14.6333 43.4463L14.9907 43.5906C17.5429 44.6155 20.2684 45.14 23.0187 45.1356C35.1971 45.1356 45.0692 35.0311 45.0692 22.5666C45.0692 10.102 35.2 0 23.0201 0Z" fill="url(#paint0_linear_1621_2951)"/>
<path d="M65.9908 24.4075C65.9908 17.3005 55.6641 19.5539 55.6641 15.5093C55.6641 13.8625 56.8469 13.0823 58.4332 13.1405C60.1647 13.1694 61.2315 14.2093 61.319 15.5382H65.7609C65.5016 11.8982 62.6744 9.78906 58.5495 9.78906C54.3958 9.78906 51.4537 11.9847 51.4537 15.6248C51.4248 22.9357 61.8091 20.3047 61.8091 24.6672C61.8091 26.1101 60.6827 27.1202 58.779 27.1202C56.9032 27.1202 55.8368 26.0514 55.7214 24.4339H51.3926C51.4503 28.2471 54.681 30.4423 58.8636 30.4423C63.4536 30.4447 65.9908 27.5848 65.9908 24.4075ZM72.3945 30.2427H76.7791L79.6924 19.0628L82.6057 30.2427H86.9615L91.6337 14.2386H87.769L84.9437 26.4006L81.9424 14.2386H77.6733L74.6157 26.4295L71.7885 14.2386H67.6925L72.3945 30.2427ZM92.788 22.1829C92.788 27.1803 96.0212 30.5039 100.059 30.5039C101.089 30.5376 102.111 30.3182 103.037 29.8648C103.962 29.4115 104.762 28.7381 105.367 27.9037V30.2437H109.434V14.2386H105.367V16.5208C104.758 15.7025 103.96 15.0439 103.041 14.6011C102.122 14.1584 101.109 13.9447 100.09 13.9784C96.0188 13.9784 92.7856 17.1851 92.7856 22.1829H92.788ZM105.364 22.2406C105.364 25.2737 103.344 26.9494 101.123 26.9494C98.959 26.9494 96.9119 25.2179 96.9119 22.1829C96.9119 19.148 98.9595 17.5338 101.123 17.5338C103.348 17.5338 105.367 19.2076 105.367 22.2406H105.364ZM117.425 16.5497V14.241H113.385V37.8734H117.425V27.9604C118.045 28.766 118.845 29.4152 119.761 29.8562C120.677 30.2973 121.684 30.5179 122.701 30.5005C126.796 30.5005 129.999 27.1779 129.999 22.1796C129.999 17.1812 126.799 13.9784 122.701 13.9784C121.679 13.9529 120.667 14.1732 119.748 14.6207C118.83 15.0681 118.032 15.7297 117.422 16.5497H117.425ZM125.876 22.1829C125.876 25.216 123.828 26.9494 121.636 26.9494C119.471 26.9494 117.425 25.2737 117.425 22.2406C117.425 19.2076 119.47 17.5318 121.634 17.5318C123.826 17.5318 125.874 19.1494 125.874 22.1829H125.876Z" fill="white"/>
<defs>
<linearGradient id="paint0_linear_1621_2951" x1="4.73226" y1="33.6711" x2="42.4851" y2="10.7916" gradientUnits="userSpaceOnUse">
<stop stop-color="#E72134"/>
<stop offset="0.498" stop-color="#EB3E16"/>
<stop offset="1" stop-color="#E40049"/>
</linearGradient>
</defs>
</svg>
