<svg width="31" height="33" viewBox="0 0 31 33" fill="none" xmlns="http://www.w3.org/2000/svg">
<path d="M8.36619 27.3404L9.17579 27.9788L9.17579 26.9477L9.17579 0.500479L11.5156 0.500479L11.5156 30.9336C11.5156 31.6933 10.6436 32.1155 10.0483 31.648C10.0483 31.6479 10.0482 31.6479 10.0482 31.6478L0.641696 24.2316C0.641509 24.2315 0.64132 24.2313 0.641133 24.2312C0.589446 24.1898 0.562507 24.132 0.562507 24.0693L0.562507 21.187L8.36619 27.3404ZM22.6963 5.00434L21.8867 4.36596L21.8867 5.39696L21.8867 31.8442L19.5469 31.8442L19.5469 1.40673C19.5469 0.652962 20.4174 0.228365 21.0139 0.696548C21.0141 0.696652 21.0142 0.696757 21.0143 0.696861L30.4208 8.11308C30.421 8.11325 30.4212 8.11341 30.4214 8.11357C30.4731 8.15492 30.5 8.21274 30.5 8.27538L30.5 11.1577L22.6963 5.00434Z" fill="#FE4350" stroke="#FE4350"/>
</svg>
