<svg width="19" height="18" viewBox="0 0 19 18" fill="none" xmlns="http://www.w3.org/2000/svg">
<path d="M1.02783 6.82799H17.4584C17.8446 6.82799 18.1922 6.59634 18.3467 6.24873C18.5011 5.90127 18.4238 5.47651 18.1535 5.2062L13.4425 0.302116C13.0756 -0.0839982 12.4771 -0.103409 12.091 0.263463C11.7049 0.630338 11.6855 1.22883 12.0524 1.61495L15.1995 4.89718L1.02787 4.89731C0.506536 4.89731 0.0625 5.32207 0.0625 5.86268C0.0625 6.40329 0.487263 6.82805 1.02787 6.82805L1.02783 6.82799Z" fill="white"/>
<path d="M17.4407 10.4355H1.02943C0.643311 10.4355 0.295709 10.6672 0.141215 11.0148C-0.0132618 11.3623 0.0640438 11.787 0.334344 12.0573L5.02605 16.9614C5.21918 17.1546 5.47009 17.251 5.72112 17.251C5.95276 17.251 6.2038 17.1544 6.37753 16.9807C6.76365 16.6138 6.78306 16.0153 6.41619 15.6292L3.26904 12.347H17.4407C17.962 12.347 18.4061 11.9222 18.4061 11.3816C18.4062 10.8604 17.9814 10.4356 17.4408 10.4356L17.4407 10.4355Z" fill="white"/>
</svg>
