<svg width="22" height="23" viewBox="0 0 22 23" fill="none" xmlns="http://www.w3.org/2000/svg">
<path d="M11.237 0.550781C9.69769 0.55276 8.17715 0.889047 6.78054 1.53639C5.38394 2.18374 4.1446 3.12669 3.14822 4.30005C2.28336 5.1704 1.63899 6.2348 1.26877 7.4046C1.16325 7.76978 1.10217 8.14636 1.08682 8.52617L4.25782 9.75479C4.42639 9.34791 4.55835 9.01851 4.69781 8.69098C5.10433 7.73271 5.71205 6.87301 6.47981 6.1701C7.16666 5.53851 7.97281 5.05056 8.85089 4.7349C9.72896 4.41924 10.6613 4.28225 11.593 4.33196C12.5248 4.38168 13.4372 4.61711 14.2767 5.02441C15.1163 5.43171 15.8659 6.00268 16.4816 6.70377C16.6864 6.95539 16.8592 7.2314 16.996 7.52551C17.1359 7.44155 17.2703 7.34878 17.3985 7.24777V7.24519L18.1277 6.83432L17.5642 11.379L13.6544 9.71746L13.3869 9.60477L14.0171 9.22112L13.7398 8.93469C13.0756 8.2706 12.1753 7.89663 11.2361 7.8946C10.2722 7.91001 9.35297 8.30373 8.67678 8.99082C8.00058 9.67792 7.62161 10.6033 7.62161 11.5673C7.62161 12.5314 8.00058 13.4567 8.67678 14.1438C9.35297 14.8309 10.2722 15.2247 11.2361 15.2401C11.573 15.2405 11.9081 15.1917 12.2309 15.0952C12.9152 14.8937 13.5229 14.4903 13.9744 13.9379C14.1083 13.8288 14.2797 13.7768 14.4517 13.7931C15.4563 14.0927 16.422 14.5254 17.4034 14.9104C16.4525 17.2759 13.8995 18.8351 11.1612 18.8522C10.9788 18.8535 10.7955 18.8477 10.6113 18.8348C7.83005 18.6423 5.23475 16.5384 4.54847 13.8809L5.45593 13.2794L0.866828 11.3847C0.764227 11.9388 0.665141 12.4764 0.566297 13.0103C0.378469 14.0199 0.193932 15.0133 0 16.0595L1.13073 15.6326C2.36405 18.3899 4.17353 20.218 6.18493 21.2998C6.26616 21.344 6.34787 21.3879 6.43122 21.429C6.44859 21.4388 6.46831 21.4468 6.48569 21.4567C6.58852 21.5083 6.69112 21.5597 6.79584 21.6076C6.91018 21.6593 7.02663 21.7107 7.14308 21.7586L7.31752 21.829C8.56336 22.3293 9.89379 22.5853 11.2363 22.5832C17.1811 22.5832 22 17.6508 22 11.5664C22 5.48195 17.1825 0.550781 11.237 0.550781Z" fill="white"/>
</svg>
