<svg width="44" height="44" viewBox="0 0 44 44" fill="none" xmlns="http://www.w3.org/2000/svg">
<path d="M21.9128 43.437C33.7582 43.437 43.3608 33.8344 43.3608 21.989C43.3608 10.1436 33.7582 0.541016 21.9128 0.541016C10.0674 0.541016 0.464844 10.1436 0.464844 21.989C0.464844 33.8344 10.0674 43.437 21.9128 43.437Z" fill="#F7FBFE"/>
<path fill-rule="evenodd" clip-rule="evenodd" d="M32.3861 26.4256H17.7315V18.2536H15.4711V27.5616C15.4708 27.7096 15.5001 27.8561 15.5573 27.9926C15.6154 28.1282 15.6993 28.2512 15.8044 28.3547C16.0164 28.565 16.3027 28.6833 16.6013 28.6842H29.436L26.7867 31.0691H12.567V17.5409H27.2235C27.5023 17.5416 27.7713 17.4385 27.9782 17.2517L33.1409 12.6197C33.3106 12.4671 33.4301 12.2668 33.4838 12.045C33.5234 11.8791 33.5249 11.7063 33.4882 11.5397C33.4516 11.3731 33.3777 11.2169 33.2721 11.0829C33.1665 10.949 33.0319 10.8406 32.8785 10.766C32.725 10.6915 32.5567 10.6526 32.3861 10.6523H16.6013C16.453 10.6523 16.3061 10.6816 16.1691 10.7384C16.0321 10.7952 15.9076 10.8785 15.8028 10.9835C15.698 11.0885 15.6149 11.2131 15.5584 11.3502C15.5018 11.4873 15.4728 11.6342 15.473 11.7826V14.5717H17.7315V12.8994H29.4399L26.7906 15.2843H11.4387C11.289 15.2832 11.1406 15.3119 11.0021 15.3688C10.8636 15.4257 10.7379 15.5097 10.6322 15.6157C10.5268 15.72 10.4434 15.8445 10.387 15.9816C10.3315 16.1185 10.3029 16.2649 10.3027 16.4126V32.1974C10.3025 32.3458 10.3315 32.4927 10.3881 32.6298C10.4447 32.7669 10.5277 32.8915 10.6325 32.9965C10.7373 33.1015 10.8618 33.1848 10.9988 33.2416C11.1358 33.2984 11.2827 33.3277 11.431 33.3276H27.2158C27.4944 33.3274 27.7632 33.2244 27.9706 33.0384L33.1332 28.3949C33.303 28.2423 33.4224 28.0417 33.4758 27.8198C33.5292 27.5978 33.514 27.3649 33.4323 27.1517C33.3505 26.9386 33.206 26.7552 33.0178 26.6259C32.8297 26.4966 32.6067 26.4275 32.3784 26.4276" fill="#EF425D"/>
</svg>
