<svg width="30" height="20" viewBox="0 0 30 20" fill="none" xmlns="http://www.w3.org/2000/svg">
<g filter="url(#filter0_d_3103_879)">
<path d="M5.24409 17.799C4.7658 17.329 5.12538 17.0132 5.3224 16.7168C6.64711 14.7227 7.99753 12.7536 10.1597 12.0681C10.7603 11.8777 10.7115 11.597 10.3371 11.1071C9.33629 9.79891 7.88125 9.7337 6.4988 10.9859C4.63497 12.6738 3.34893 14.961 2.11642 17.3078C1.93237 17.6582 1.78695 18.3191 1.2482 17.775C1.05457 17.5795 0.892763 17.4314 1.08928 17.0568C2.61406 14.1538 4.13562 11.2488 6.68403 9.48996C8.30375 8.37216 9.75244 8.66009 11.0233 10.3256C12.2847 11.9773 13.5355 13.6407 14.7893 15.3011C15.7888 16.6242 16.688 16.7978 17.9211 15.7922C19.9797 14.1122 21.3516 11.6594 22.7199 9.2162C24.2621 6.4624 25.5773 3.54183 26.8947 0.623673C27.0772 0.219617 27.1896 -0.257045 27.7423 0.163671C28.163 0.484056 28.0375 0.752722 27.8878 1.01063L27.1513 2.58825C25.4127 6.41883 23.611 10.2024 21.3013 13.5822C20.4357 14.8485 19.4242 15.9375 18.3289 16.8946C17.7817 17.3726 17.1524 17.675 16.4719 17.5857C15.5409 17.7057 14.8775 17.1435 14.2991 16.3895C13.7806 15.7136 13.3107 14.981 12.7792 14.321C11.8048 13.1112 10.7029 12.9215 9.46894 13.6723C8.0427 14.5398 7.03256 15.9595 6.07887 17.4598C5.93087 17.6925 5.82 18 5.60002 18C5.50533 17.9997 5.39058 17.9429 5.24409 17.799ZM14.5621 13.2873C16.8268 12.0465 18.1992 9.78455 19.4903 7.44886C20.3707 5.85588 21.1626 4.18863 21.9756 2.54095C22.1484 2.19035 22.2742 1.87923 22.656 2.17693C22.9745 2.42483 23.1067 2.6575 22.8694 3.15182C21.3203 6.37855 19.7927 9.62231 17.5726 12.2567C17.1129 12.7929 16.6139 13.2761 16.082 13.7003C15.7221 13.9925 15.5123 14.151 15.3361 14.151C15.1069 14.151 14.9344 13.8822 14.5621 13.2873ZM12.3423 10.291C14.2815 9.25294 15.4389 7.28152 16.5526 5.25515C16.7893 4.82511 17.0341 4.40203 17.2633 3.96608C17.4582 3.59616 17.6879 3.7423 17.882 3.91965C18.0538 4.07673 18.3171 4.20367 18.0912 4.61438C16.8785 6.82027 15.7234 9.08889 13.8994 10.6461C13.6307 10.8751 13.3405 11.0998 13.0641 11.0998C12.7999 11.0997 12.5486 10.8942 12.3423 10.291Z" fill="white"/>
</g>
<defs>
<filter id="filter0_d_3103_879" x="0" y="0" width="29.0291" height="20" filterUnits="userSpaceOnUse" color-interpolation-filters="sRGB">
<feFlood flood-opacity="0" result="BackgroundImageFix"/>
<feColorMatrix in="SourceAlpha" type="matrix" values="0 0 0 0 0 0 0 0 0 0 0 0 0 0 0 0 0 0 127 0" result="hardAlpha"/>
<feOffset dy="1"/>
<feGaussianBlur stdDeviation="0.5"/>
<feComposite in2="hardAlpha" operator="out"/>
<feColorMatrix type="matrix" values="0 0 0 0 0 0 0 0 0 0 0 0 0 0 0 0 0 0 0.4 0"/>
<feBlend mode="normal" in2="BackgroundImageFix" result="effect1_dropShadow_3103_879"/>
<feBlend mode="normal" in="SourceGraphic" in2="effect1_dropShadow_3103_879" result="shape"/>
</filter>
</defs>
</svg>
