<svg width="103" height="20" viewBox="0 0 103 20" fill="none" xmlns="http://www.w3.org/2000/svg">
<g filter="url(#filter0_d_1365_2064)">
<path d="M41.1479 5.9852C40.4814 5.9852 39.9653 6.23656 39.5997 6.73928C39.2341 7.23819 39.0513 7.93515 39.0513 8.83014C39.0513 10.6925 39.7501 11.6237 41.1479 11.6237C41.7344 11.6237 42.4446 11.477 43.2787 11.1838V12.6691C42.5932 12.9547 41.8277 13.0976 40.9822 13.0976C39.7673 13.0976 38.838 12.73 38.1944 11.995C37.5507 11.2562 37.2289 10.1974 37.2289 8.81872C37.2289 7.95038 37.387 7.19059 37.7031 6.53933C38.0192 5.88427 38.4724 5.38346 39.0627 5.03688C39.6568 4.6865 40.3519 4.51131 41.1479 4.51131C41.9591 4.51131 42.7741 4.70745 43.5929 5.09972L43.0216 6.53933C42.7093 6.3908 42.3951 6.26131 42.079 6.15087C41.7629 6.04042 41.4525 5.9852 41.1479 5.9852Z" fill="white"/>
<path d="M52.6419 8.79587C52.6419 10.1784 52.2991 11.2409 51.6136 11.9836C50.9281 12.7262 49.9455 13.0976 48.6658 13.0976C47.3862 13.0976 46.4036 12.7262 45.718 11.9836C45.0325 11.2409 44.6898 10.1745 44.6898 8.78444C44.6898 7.39434 45.0325 6.33368 45.718 5.60244C46.4074 4.8674 47.3938 4.49988 48.6772 4.49988C49.9607 4.49988 50.9414 4.86931 51.6193 5.60816C52.301 6.34701 52.6419 7.40958 52.6419 8.79587ZM46.5464 8.79587C46.5464 9.72895 46.7235 10.4316 47.0777 10.9039C47.4319 11.3761 47.9613 11.6123 48.6658 11.6123C50.0788 11.6123 50.7852 10.6735 50.7852 8.79587C50.7852 6.91447 50.0826 5.97377 48.6772 5.97377C47.9727 5.97377 47.4414 6.2118 47.0834 6.68787C46.7254 7.16012 46.5464 7.86279 46.5464 8.79587Z" fill="white"/>
<path d="M57.909 12.9833L55.8982 6.43079H55.8467C55.9191 7.76377 55.9553 8.65305 55.9553 9.09864V12.9833H54.3729V4.63128H56.7836L58.7602 11.0181H58.7945L60.8911 4.63128H63.3019V12.9833H61.6509V9.03009C61.6509 8.84348 61.6528 8.62829 61.6566 8.38455C61.6642 8.14081 61.6909 7.49336 61.7366 6.44222H61.6852L59.5315 12.9833H57.909Z" fill="white"/>
<path d="M68.9461 12.9833L66.9352 6.43079H66.8838C66.9561 7.76377 66.9923 8.65305 66.9923 9.09864V12.9833H65.4099V4.63128H67.8207L69.7973 11.0181H69.8315L71.9281 4.63128H74.3389V12.9833H72.6879V9.03009C72.6879 8.84348 72.6898 8.62829 72.6936 8.38455C72.7012 8.14081 72.7279 7.49336 72.7736 6.44222H72.7222L70.5685 12.9833H68.9461Z" fill="white"/>
<path d="M84.0277 8.79587C84.0277 10.1784 83.6849 11.2409 82.9994 11.9836C82.3139 12.7262 81.3313 13.0976 80.0516 13.0976C78.772 13.0976 77.7894 12.7262 77.1039 11.9836C76.4183 11.2409 76.0756 10.1745 76.0756 8.78444C76.0756 7.39434 76.4183 6.33368 77.1039 5.60244C77.7932 4.8674 78.7796 4.49988 80.0631 4.49988C81.3465 4.49988 82.3272 4.86931 83.0051 5.60816C83.6869 6.34701 84.0277 7.40958 84.0277 8.79587ZM77.9322 8.79587C77.9322 9.72895 78.1093 10.4316 78.4635 10.9039C78.8177 11.3761 79.3471 11.6123 80.0516 11.6123C81.4646 11.6123 82.1711 10.6735 82.1711 8.79587C82.1711 6.91447 81.4684 5.97377 80.0631 5.97377C79.3585 5.97377 78.8272 6.2118 78.4692 6.68787C78.1112 7.16012 77.9322 7.86279 77.9322 8.79587Z" fill="white"/>
<path d="M92.6882 8.72732C92.6882 10.1022 92.296 11.1552 91.5114 11.8865C90.7307 12.6177 89.6014 12.9833 88.1237 12.9833H85.7587V4.63128H88.3808C89.7443 4.63128 90.803 4.99118 91.5571 5.71099C92.3112 6.43079 92.6882 7.43624 92.6882 8.72732ZM90.8487 8.77302C90.8487 6.97922 90.0566 6.08231 88.4722 6.08231H87.5296V11.5208H88.2894C89.9956 11.5208 90.8487 10.6049 90.8487 8.77302Z" fill="white"/>
<path d="M102 8.79587C102 10.1784 101.657 11.2409 100.972 11.9836C100.286 12.7262 99.3036 13.0976 98.0239 13.0976C96.7443 13.0976 95.7617 12.7262 95.0762 11.9836C94.3906 11.2409 94.0479 10.1745 94.0479 8.78444C94.0479 7.39434 94.3906 6.33368 95.0762 5.60244C95.7655 4.8674 96.7519 4.49988 98.0354 4.49988C99.3188 4.49988 100.3 4.86931 100.977 5.60816C101.659 6.34701 102 7.40958 102 8.79587ZM95.9045 8.79587C95.9045 9.72895 96.0816 10.4316 96.4358 10.9039C96.79 11.3761 97.3194 11.6123 98.0239 11.6123C99.4369 11.6123 100.143 10.6735 100.143 8.79587C100.143 6.91447 99.4407 5.97377 98.0354 5.97377C97.3308 5.97377 96.7995 6.2118 96.4415 6.68787C96.0835 7.16012 95.9045 7.86279 95.9045 8.79587Z" fill="white"/>
<path d="M6.10301 17.3535C5.52793 16.8953 5.96027 16.5874 6.19717 16.2984C7.78998 14.3542 9.4137 12.4344 12.0135 11.7661C12.7355 11.5804 12.6769 11.3068 12.2268 10.8292C11.0234 9.55369 9.27388 9.49012 7.61165 10.711C5.37062 12.3566 3.82431 14.5866 2.34236 16.8747C2.12106 17.2163 1.94622 17.8606 1.29843 17.3302C1.06561 17.1395 0.87106 16.9952 1.10735 16.63C2.94071 13.7996 4.7702 10.9673 7.83437 9.25248C9.78189 8.16265 11.5238 8.44337 13.0518 10.0672C14.5685 11.6776 16.0725 13.2994 17.58 14.9182C18.7818 16.2082 19.863 16.3775 21.3456 15.397C23.8208 13.7591 25.4704 11.3677 27.1156 8.98556C28.9699 6.30068 30.5513 3.45319 32.1353 0.608065C32.3547 0.214121 32.4899 -0.250612 33.1544 0.159575C33.6602 0.471942 33.5094 0.733885 33.3294 0.985343L32.4438 2.52348C30.3534 6.2582 28.1871 9.94709 25.4099 13.2423C24.3692 14.477 23.1529 15.5386 21.8359 16.4718C21.178 16.9378 20.4213 17.2326 19.6032 17.1456C18.4837 17.2626 17.6861 16.7145 16.9906 15.9793C16.3672 15.3204 15.8022 14.6061 15.1631 13.9627C13.9915 12.7831 12.6666 12.5982 11.1829 13.3301C9.46801 14.1759 8.25343 15.5601 7.10674 17.0229C6.92878 17.2497 6.79548 17.5496 6.53097 17.5496C6.41712 17.5492 6.27915 17.4939 6.10301 17.3535ZM17.3068 12.9548C20.0298 11.745 21.68 9.53969 23.2324 7.26245C24.291 5.70934 25.2432 4.08381 26.2207 2.47736C26.4284 2.13554 26.5797 1.8322 27.0388 2.12245C27.4217 2.36415 27.5807 2.591 27.2954 3.07294C25.4328 6.21892 23.596 9.38151 20.9266 11.95C20.3738 12.4728 19.7738 12.9439 19.1343 13.3574C18.7016 13.6423 18.4493 13.7968 18.2375 13.7968C17.9618 13.7968 17.7545 13.5348 17.3068 12.9548ZM14.6378 10.0335C16.9694 9.02138 18.361 7.0993 19.7002 5.12364C19.9847 4.70436 20.2791 4.29187 20.5547 3.86683C20.7891 3.50616 21.0652 3.64865 21.2986 3.82156C21.5051 3.97471 21.8217 4.09847 21.5502 4.4989C20.092 6.6496 18.7031 8.86144 16.51 10.3796C16.1869 10.603 15.838 10.8221 15.5056 10.8221C15.1879 10.8219 14.8858 10.6216 14.6378 10.0335Z" fill="white"/>
</g>
<defs>
<filter id="filter0_d_1365_2064" x="0" y="0" width="103" height="19.5488" filterUnits="userSpaceOnUse" color-interpolation-filters="sRGB">
<feFlood flood-opacity="0" result="BackgroundImageFix"/>
<feColorMatrix in="SourceAlpha" type="matrix" values="0 0 0 0 0 0 0 0 0 0 0 0 0 0 0 0 0 0 127 0" result="hardAlpha"/>
<feOffset dy="1"/>
<feGaussianBlur stdDeviation="0.5"/>
<feComposite in2="hardAlpha" operator="out"/>
<feColorMatrix type="matrix" values="0 0 0 0 0 0 0 0 0 0 0 0 0 0 0 0 0 0 0.4 0"/>
<feBlend mode="normal" in2="BackgroundImageFix" result="effect1_dropShadow_1365_2064"/>
<feBlend mode="normal" in="SourceGraphic" in2="effect1_dropShadow_1365_2064" result="shape"/>
</filter>
</defs>
</svg>
