<svg width="34" height="23" viewBox="0 0 34 23" fill="none" xmlns="http://www.w3.org/2000/svg">
<mask id="mask0_544_164" style="mask-type:luminance" maskUnits="userSpaceOnUse" x="0" y="0" width="34" height="23">
<path d="M34 0H0V22.0904H34V0Z" fill="white"/>
</mask>
<g mask="url(#mask0_544_164)">
<path d="M30.6265 15.2493C30.6265 20.1143 24.6891 22.0913 17.3169 22.0913C9.94479 22.0913 3.9209 20.1143 3.9209 15.2493C3.9209 10.3842 9.90157 6.44751 17.2738 6.44751C24.6459 6.44751 30.6265 10.3928 30.6265 15.2493Z" fill="#4BAF74"/>
<path d="M29.2789 4.64285C29.2789 2.08139 27.1874 0.00128174 24.6119 0.00128174C23.1599 0.00128174 21.8636 0.663135 21.0079 1.69459C19.8412 1.43673 18.5966 1.29061 17.3088 1.29061C16.0212 1.29061 14.7766 1.42813 13.6098 1.69459C12.7456 0.663135 11.4492 0.00128174 10.0059 0.00128174C7.43037 0.00128174 5.33887 2.08139 5.33887 4.64285C5.33887 5.48521 5.56357 6.26739 5.95248 6.94644C5.58085 7.73722 5.38208 8.57957 5.38208 9.45632C5.38208 13.9689 10.7232 17.622 17.3088 17.622C23.8945 17.622 29.2356 13.9689 29.2356 9.45632C29.2356 8.57957 29.0369 7.73722 28.6652 6.94644C29.0541 6.26739 29.2789 5.48521 29.2789 4.64285Z" fill="#4BC174"/>
<path d="M9.63429 7.22692C11.2094 7.22692 12.4863 5.95697 12.4863 4.39041C12.4863 2.82384 11.2094 1.55389 9.63429 1.55389C8.05914 1.55389 6.78223 2.82384 6.78223 4.39041C6.78223 5.95697 8.05914 7.22692 9.63429 7.22692Z" fill="#EEEEEE"/>
<path d="M24.8455 7.22692C26.4206 7.22692 27.6975 5.95697 27.6975 4.39041C27.6975 2.82384 26.4206 1.55389 24.8455 1.55389C23.2703 1.55389 21.9934 2.82384 21.9934 4.39041C21.9934 5.95697 23.2703 7.22692 24.8455 7.22692Z" fill="#EEEEEE"/>
<path d="M8.10537 21.7442C8.71899 21.7442 9.20298 21.2112 9.13384 20.6096C8.88321 18.4778 7.82017 13.8621 3.14451 11.0858C-3.07816 7.38973 1.84812 20.1111 1.84812 20.1111L0.56037 20.8503C0.128239 21.0995 0.309734 21.7442 0.802363 21.7442H8.10537Z" fill="#4BC174"/>
<path d="M26.6822 21.7442C26.1291 21.7442 25.6969 21.2112 25.7574 20.6096C25.9735 18.4866 26.9415 13.8621 31.159 11.0858C36.7854 7.38973 32.3345 20.1111 32.3345 20.1111L33.5011 20.8503C33.8901 21.0995 33.7258 21.7442 33.2852 21.7442H26.6822Z" fill="#4BC174"/>
<path d="M9.6311 4.90415C9.91749 4.90415 10.1497 4.67323 10.1497 4.38841C10.1497 4.10358 9.91749 3.87268 9.6311 3.87268C9.34471 3.87268 9.11255 4.10358 9.11255 4.38841C9.11255 4.67323 9.34471 4.90415 9.6311 4.90415Z" fill="#0D0D0D"/>
<path d="M24.8372 4.90415C25.1236 4.90415 25.3557 4.67323 25.3557 4.38841C25.3557 4.10358 25.1236 3.87268 24.8372 3.87268C24.5508 3.87268 24.3186 4.10358 24.3186 4.38841C24.3186 4.67323 24.5508 4.90415 24.8372 4.90415Z" fill="#0D0D0D"/>
</g>
</svg>
