<svg width="121" height="42" viewBox="0 0 121 42" fill="none" xmlns="http://www.w3.org/2000/svg">
<mask id="mask0_389_4288" style="mask-type:luminance" maskUnits="userSpaceOnUse" x="0" y="0" width="121" height="42">
<path d="M120.524 0H0V41.85H120.524V0Z" fill="white"/>
</mask>
<g mask="url(#mask0_389_4288)">
<path d="M21.3419 0C18.4211 0 15.5315 0.642131 12.8783 1.87288C10.225 3.10363 7.87056 4.89179 5.97539 7.12141C4.33438 8.77579 3.10809 10.7958 2.40799 13.0165C2.20733 13.7122 2.09138 14.4257 2.06017 15.1481L8.08461 17.4802C8.40567 16.7088 8.65539 16.08 8.91849 15.4602C9.68994 13.6408 10.8449 12.0087 12.3031 10.671C14.7824 8.38338 18.0421 7.12587 21.4133 7.15709C23.2862 7.17492 25.1323 7.58517 26.8357 8.36554C28.5392 9.14591 30.0598 10.2786 31.2994 11.6832C31.6874 12.1604 32.0174 12.6865 32.276 13.244C32.5436 13.0834 32.7977 12.9095 33.0385 12.7178L34.4254 11.9329L33.3551 20.566L25.9305 17.4089L25.4221 17.1948L26.6172 16.468L26.091 15.924C24.8291 14.662 23.1212 13.953 21.3375 13.9485C19.5092 13.9708 17.7656 14.7155 16.4903 16.0221C15.2149 17.3286 14.5059 19.0945 14.5282 20.9228C14.5059 22.7511 15.2149 24.5169 16.4903 25.8235C17.7656 27.13 19.5136 27.8792 21.3375 27.897C21.9751 27.897 22.6128 27.8034 23.2282 27.6206C24.5258 27.2371 25.6808 26.4701 26.5414 25.4221C26.7956 25.217 27.1211 25.1145 27.4466 25.1457C29.3552 25.7165 31.1879 26.537 33.0519 27.2683C31.2459 31.7587 26.3987 34.7241 21.1948 34.7553C20.847 34.7553 20.4991 34.7464 20.1513 34.7241C14.8671 34.3585 9.93965 30.363 8.63755 25.3151L10.3633 24.1736L1.64546 20.575C1.44925 21.6273 1.26197 22.6485 1.07468 23.6607C0.717938 25.5827 0.370117 27.4689 0 29.4533L2.14936 28.6417C4.49046 33.8769 7.92853 37.3506 11.7501 39.4063C11.9062 39.4911 12.0578 39.5758 12.2183 39.6516C12.2495 39.6694 12.2897 39.6873 12.3209 39.7051C12.5171 39.8032 12.7133 39.9013 12.9095 39.9905C13.128 40.0886 13.3465 40.1867 13.5695 40.2759L13.8995 40.4097C16.2673 41.3595 18.7913 41.8455 21.3419 41.8411C32.6327 41.8411 41.7876 32.4722 41.7876 20.9183C41.7876 9.36441 32.6327 0 21.3419 0Z" fill="url(#paint0_linear_389_4288)"/>
<path d="M61.1807 22.6262C61.1807 16.0354 51.6067 18.1268 51.6067 14.3766C51.6067 12.8515 52.7037 12.1246 54.1752 12.1782C55.7806 12.2049 56.7705 13.1681 56.8508 14.4033H60.9711C60.7303 11.0277 58.1083 9.07452 54.2867 9.07452C50.4651 9.07452 47.7093 11.1079 47.7093 14.4836C47.6826 21.2616 57.3101 18.8224 57.3101 22.867C57.3101 24.2047 56.2666 25.1456 54.5008 25.1456C52.7349 25.1456 51.7717 24.1557 51.6647 22.6529H47.6514C47.7049 26.1891 50.7015 28.2225 54.5766 28.2225C58.8307 28.2225 61.1807 25.5693 61.1807 22.6262ZM67.116 28.0352H71.1828L73.8851 17.6719L76.5874 28.0352H80.6275L84.9574 13.1993H81.3722L78.7546 24.4768L75.972 13.1993H72.0122L69.1761 24.5035L66.5541 13.1993H62.7548L67.116 28.0352ZM86.0232 20.5615C86.0232 25.1947 89.0198 28.276 92.7655 28.276C93.7198 28.3072 94.6696 28.1021 95.5258 27.6829C96.382 27.2638 97.1267 26.6395 97.6885 25.8636V28.0308H101.461V13.1993H97.6885V15.313C97.1222 14.5549 96.382 13.944 95.5303 13.5338C94.6785 13.1235 93.7421 12.9273 92.7967 12.9585C89.0242 12.9585 86.0276 15.9328 86.0276 20.566L86.0232 20.5615ZM97.6841 20.615C97.6841 23.4288 95.8112 24.9806 93.751 24.9806C91.6909 24.9806 89.8447 23.3753 89.8447 20.5615C89.8447 17.7478 91.7444 16.2494 93.751 16.2494C95.8112 16.2494 97.6841 17.8013 97.6841 20.615ZM108.868 15.3398V13.1993H105.122V35.1076H108.868V25.9215C109.443 26.6707 110.188 27.2727 111.035 27.6829C111.887 28.0932 112.819 28.2983 113.76 28.2805C117.559 28.2805 120.524 25.1991 120.524 20.566C120.524 15.9328 117.559 12.9585 113.76 12.9585C112.814 12.9362 111.873 13.1369 111.022 13.5516C110.17 13.9663 109.43 14.5817 108.863 15.3398H108.868ZM116.703 20.5615C116.703 23.3753 114.803 24.9806 112.77 24.9806C110.736 24.9806 108.863 23.4288 108.863 20.615C108.863 17.8013 110.759 16.2494 112.765 16.2494C114.772 16.2494 116.698 17.7478 116.698 20.5615H116.703Z" fill="#CDCFD4"/>
</g>
<defs>
<linearGradient id="paint0_linear_389_4288" x1="7.00001" y1="46.5" x2="-1.96394e-05" y2="350.5" gradientUnits="userSpaceOnUse">
<stop stop-color="#FE2B56"/>
<stop offset="1" stop-color="#FE2B56"/>
</linearGradient>
</defs>
</svg>
