<svg width="10" height="14" viewBox="0 0 10 14" fill="none" xmlns="http://www.w3.org/2000/svg">
<path d="M3.90771 13.9266L9.30778 4.62852C9.43003 4.418 9.25664 4.15895 9.01542 4.19176L5.42343 4.67999L6.28167 0.174227C6.3106 0.0223326 6.11477 -0.0647026 6.02141 0.0585357L0.711968 7.06701C0.557312 7.27113 0.721074 7.56139 0.975754 7.53459L4.93589 7.11773L3.63764 13.8254C3.60633 13.9872 3.82494 14.0691 3.90771 13.9266Z" fill="#FFDC64"/>
<path d="M2.37234 6.57061C2.27316 6.57854 2.20729 6.47013 2.26001 6.38577L6.22975 0.034199C6.17068 -0.0125315 6.07771 -0.0155393 6.02141 0.058781L0.711968 7.06726C0.557312 7.27141 0.721074 7.56163 0.975754 7.53484L4.93589 7.11798L3.63764 13.8256C3.62014 13.9161 3.68117 13.9798 3.75251 13.995L5.97717 6.95542C6.08146 6.62547 5.81836 6.29491 5.47342 6.32252L2.37234 6.57061Z" fill="#FFC850"/>
</svg>
