<svg width="19" height="14" viewBox="0 0 19 14" fill="none" xmlns="http://www.w3.org/2000/svg">
<path d="M15.5787 1.11231C14.4388 0.59823 13.217 0.21826 11.9392 0.00219799C11.9278 1.34717e-05 11.9161 0.00142126 11.9055 0.00622667C11.895 0.0110321 11.8862 0.0189974 11.8804 0.0290195C11.7239 0.303939 11.5496 0.662304 11.4274 0.945419C10.0722 0.742944 8.69451 0.742944 7.33935 0.945419C7.20325 0.631653 7.04979 0.325713 6.87966 0.0290195C6.87389 0.018874 6.86517 0.0107285 6.85465 0.00566998C6.84413 0.000611428 6.83233 -0.00111966 6.8208 0.000707843C5.5438 0.21677 4.32193 0.59674 3.18128 1.11156C3.17146 1.11568 3.16314 1.1227 3.15744 1.13168C0.838871 4.54024 0.203351 7.86461 0.515523 11.1473C0.516392 11.1553 0.518888 11.1631 0.522858 11.1701C0.526829 11.1772 0.532191 11.1833 0.53862 11.1882C1.89191 12.1735 3.40132 12.924 5.00365 13.4085C5.01482 13.4119 5.02676 13.4119 5.03793 13.4084C5.04909 13.405 5.05896 13.3982 5.06623 13.3891C5.41044 12.9272 5.71739 12.4392 5.97965 11.9266C5.99529 11.8968 5.98039 11.861 5.9491 11.8491C5.46781 11.6678 5.00147 11.4491 4.55439 11.1949C4.54635 11.1904 4.53958 11.1838 4.53469 11.176C4.52979 11.1682 4.52691 11.1592 4.52632 11.15C4.52573 11.1407 4.52744 11.1315 4.5313 11.1231C4.53516 11.1147 4.54104 11.1074 4.54843 11.1018C4.6423 11.0325 4.73618 10.9603 4.82558 10.888C4.83363 10.8815 4.84332 10.8773 4.85358 10.876C4.86384 10.8747 4.87427 10.8763 4.88369 10.8805C7.80947 12.1948 10.9781 12.1948 13.8696 10.8805C13.8791 10.876 13.8896 10.8743 13.9 10.8754C13.9104 10.8766 13.9203 10.8807 13.9285 10.8872C14.0179 10.9603 14.111 11.0325 14.2056 11.1018C14.2131 11.1073 14.2191 11.1145 14.2231 11.1228C14.227 11.1312 14.2289 11.1403 14.2284 11.1496C14.228 11.1588 14.2253 11.1678 14.2205 11.1757C14.2158 11.1836 14.2091 11.1902 14.2012 11.1949C13.7556 11.4512 13.2922 11.668 12.8057 11.8483C12.7982 11.8511 12.7914 11.8553 12.7857 11.8609C12.7801 11.8664 12.7756 11.8731 12.7727 11.8805C12.7698 11.8879 12.7686 11.8959 12.769 11.9038C12.7694 11.9118 12.7715 11.9195 12.7752 11.9266C13.0434 12.4384 13.3503 12.9257 13.6878 13.3883C13.6949 13.3978 13.7046 13.4049 13.7158 13.4087C13.727 13.4124 13.7391 13.4126 13.7504 13.4092C15.3555 12.9261 16.8674 12.1752 18.2222 11.1882C18.2288 11.1836 18.2343 11.1776 18.2384 11.1707C18.2425 11.1638 18.2451 11.156 18.246 11.148C18.6185 7.35277 17.6216 4.05522 15.6018 1.13317C15.5969 1.12367 15.5887 1.11627 15.5787 1.11231ZM6.41699 9.14831C5.53635 9.14831 4.80994 8.35186 4.80994 7.37512C4.80994 6.39762 5.52219 5.60192 6.41699 5.60192C7.31849 5.60192 8.0382 6.40433 8.02404 7.37512C8.02404 8.35261 7.31178 9.14831 6.41699 9.14831ZM12.3587 9.14831C11.4773 9.14831 10.7516 8.35186 10.7516 7.37512C10.7516 6.39762 11.4631 5.60192 12.3587 5.60192C13.2602 5.60192 13.9799 6.40433 13.9657 7.37512C13.9657 8.35261 13.2609 9.14831 12.3587 9.14831Z" fill="#C9C9C9"/>
</svg>
