<svg width="16" height="18" viewBox="0 0 16 18" fill="none" xmlns="http://www.w3.org/2000/svg">
<path d="M11.3333 5.66675H15L10.5 1.16675V4.83341C10.5 5.33341 10.8333 5.66675 11.3333 5.66675ZM11.3333 15.6667H4.66667C3.25 15.6667 2.16667 14.5834 2.16667 13.1667V4.83341C2.16667 4.33341 1.83333 4.00008 1.33333 4.00008C0.833333 4.00008 0.5 4.33341 0.5 4.83341V13.1667C0.5 15.5001 2.33333 17.3334 4.66667 17.3334H11.3333C11.8333 17.3334 12.1667 17.0001 12.1667 16.5001C12.1667 16.0001 11.8333 15.6667 11.3333 15.6667ZM11.3333 7.33342C9.91667 7.33342 8.83333 6.25008 8.83333 4.83341V0.666748H6.33333C4.91667 0.666748 3.83333 1.75008 3.83333 3.16675V11.5001C3.83333 12.9167 4.91667 14.0001 6.33333 14.0001H13C14.4167 14.0001 15.5 12.9167 15.5 11.5001V7.33342H11.3333Z" fill="#C9C9C9"/>
</svg>
