<svg width="23" height="24" viewBox="0 0 23 24" fill="none" xmlns="http://www.w3.org/2000/svg">
<path d="M13.8 9.67793C11.6494 5.2572 7.52728 0 7.52728 0C7.52728 0.000208344 0 9.55845 0 13.7104C0 17.8624 3.37538 21.2377 7.52728 21.2377C8.63242 21.2377 9.67793 20.9987 10.6039 20.5805C10.3051 19.7442 10.0961 18.8481 10.0961 17.9221C10.1259 15.7714 12.0078 12.3662 13.8001 9.67793H13.8Z" fill="white"/>
<path d="M17.6227 7.91602C15.2631 11.0822 12.2461 15.8316 12.2461 17.8926C12.2461 20.8498 14.6655 23.2693 17.6227 23.2693C20.5799 23.2693 22.9994 20.8498 22.9994 17.8926C22.9994 15.8316 19.9824 11.0823 17.6227 7.91602ZM18.3993 21.4771C18.3993 21.4771 20.1916 20.0732 21.1175 16.429C21.1175 16.4292 22.7304 20.8499 18.3993 21.4771Z" fill="white"/>
</svg>
