<svg width="19" height="18" viewBox="0 0 19 18" fill="none" xmlns="http://www.w3.org/2000/svg">
<path fill-rule="evenodd" clip-rule="evenodd" d="M9.3967 0C4.4489 0 0.441406 4.00749 0.441406 8.9553C0.441406 12.918 3.00486 16.2651 6.56459 17.4516C7.01236 17.53 7.18027 17.2613 7.18027 17.0263C7.18027 16.8136 7.16907 16.1083 7.16907 15.3583C4.91905 15.7725 4.33696 14.8098 4.15785 14.3061C4.05711 14.0486 3.62054 13.2538 3.23994 13.0412C2.9265 12.8732 2.47874 12.4591 3.22874 12.4479C3.93397 12.4367 4.43771 13.0971 4.60562 13.3658C5.4116 14.7203 6.69892 14.3397 7.21385 14.1046C7.29221 13.5225 7.52729 13.1307 7.78475 12.9068C5.7922 12.6829 3.71009 11.9105 3.71009 8.48514C3.71009 7.51125 4.05711 6.70528 4.62801 6.07841C4.53846 5.85453 4.22502 4.93661 4.71756 3.70525C4.71756 3.70525 5.46757 3.47018 7.18027 4.62317C7.89669 4.42168 8.65789 4.32093 9.41909 4.32093C10.1803 4.32093 10.9415 4.42168 11.6579 4.62317C13.3706 3.45898 14.1206 3.70525 14.1206 3.70525C14.6132 4.93661 14.2997 5.85453 14.2102 6.07841C14.7811 6.70528 15.1281 7.50006 15.1281 8.48514C15.1281 11.9217 13.0348 12.6829 11.0422 12.9068C11.3669 13.1867 11.6467 13.724 11.6467 14.5636C11.6467 15.7613 11.6355 16.724 11.6355 17.0263C11.6355 17.2613 11.8034 17.5412 12.2512 17.4516C14.029 16.8514 15.5738 15.7088 16.6682 14.1847C17.7626 12.6606 18.3515 10.8316 18.352 8.9553C18.352 4.00749 14.3445 0 9.3967 0Z" fill="#C9C9C9"/>
</svg>
