<svg width="17" height="22" viewBox="0 0 17 22" fill="none" xmlns="http://www.w3.org/2000/svg">
<path d="M2.40761 19.5969C1.66936 19.0527 1.06956 18.3468 0.655609 17.5347C0.241695 16.723 0.0249452 15.8271 0.0225769 14.9184C-0.0245246 12.3653 0.0162241 9.81047 0.0191562 7.25616C0.0206222 6.05103 0.660835 5.21279 1.61204 4.56863C3.63635 3.1961 7.18445 3.212 9.19707 4.59483C10.2632 5.32676 10.8334 6.31454 10.798 7.6262C10.7788 8.34566 10.7946 9.06605 10.7946 9.81648H5.79182V6.56584H3.78025V7.14869C3.78025 9.39497 3.78025 11.6415 3.78025 13.8881C3.78025 16.7891 5.17792 18.7452 7.94834 19.6993C9.80391 20.3403 11.8114 20.4195 13.7128 19.9265C13.8719 19.8871 14.0301 19.8443 14.1899 19.809C14.2199 19.8025 14.2562 19.8246 14.344 19.8482C13.567 20.5688 12.618 21.0838 11.5851 21.3457C10.6022 21.6193 9.58659 21.7612 8.5654 21.7675C6.36937 21.7675 4.30942 21.0567 2.40761 19.5969ZM7.35542 17.1524C6.85155 16.8319 6.44154 16.3868 6.16641 15.8615C5.89132 15.336 5.76084 14.7489 5.78742 14.1583C5.8052 13.437 5.79084 12.7156 5.79084 11.9558H10.7839V15.199H12.8045V14.6344C12.8045 12.3516 12.7614 10.068 12.8158 7.78661C12.8811 5.08344 11.5322 3.33463 9.15463 2.28433C7.11566 1.38286 4.98669 1.3261 2.8325 1.85151C2.65906 1.89384 2.48516 1.93278 2.15105 2.01067C2.85728 1.31952 3.72499 0.810052 4.67792 0.527104C8.11735 -0.525144 11.3044 -0.0131914 14.1674 2.16408C14.9082 2.70516 15.5106 3.40943 15.9264 4.22068C16.3423 5.03197 16.5601 5.92784 16.5625 6.83679C16.6098 9.40821 16.5676 11.981 16.5625 14.5534C16.5603 15.74 15.915 16.5578 14.9859 17.1938C13.9821 17.881 12.5989 18.2227 11.2136 18.2229C9.79511 18.2232 8.37417 17.8656 7.35542 17.1524Z" fill="white"/>
</svg>
