<svg width="74" height="24" viewBox="0 0 74 24" fill="none" xmlns="http://www.w3.org/2000/svg">
<g filter="url(#filter0_d_1365_2060)">
<path d="M3.40761 19.5969C2.66936 19.0527 2.06956 18.3468 1.65561 17.5347C1.24169 16.723 1.02495 15.8271 1.02258 14.9184C0.975475 12.3653 1.01622 9.81047 1.01916 7.25616C1.02062 6.05103 1.66083 5.21279 2.61204 4.56863C4.63635 3.1961 8.18445 3.212 10.1971 4.59483C11.2632 5.32676 11.8334 6.31454 11.798 7.6262C11.7788 8.34566 11.7946 9.06605 11.7946 9.81648H6.79182V6.56584H4.78025V7.14869C4.78025 9.39497 4.78025 11.6415 4.78025 13.8881C4.78025 16.7891 6.17792 18.7452 8.94834 19.6993C10.8039 20.3403 12.8114 20.4195 14.7128 19.9265C14.8719 19.8871 15.0301 19.8443 15.1899 19.809C15.2199 19.8025 15.2562 19.8246 15.344 19.8482C14.567 20.5688 13.618 21.0838 12.5851 21.3457C11.6022 21.6193 10.5866 21.7612 9.5654 21.7675C7.36937 21.7675 5.30942 21.0567 3.40761 19.5969ZM8.35542 17.1524C7.85155 16.8319 7.44154 16.3868 7.16641 15.8615C6.89132 15.336 6.76084 14.7489 6.78742 14.1583C6.8052 13.437 6.79084 12.7156 6.79084 11.9558H11.7839V15.199H13.8045V14.6344C13.8045 12.3516 13.7614 10.068 13.8158 7.78661C13.8811 5.08344 12.5322 3.33463 10.1546 2.28433C8.11566 1.38286 5.98669 1.3261 3.8325 1.85151C3.65906 1.89384 3.48516 1.93278 3.15105 2.01067C3.85728 1.31952 4.72499 0.810052 5.67792 0.527104C9.11735 -0.525144 12.3044 -0.0131914 15.1674 2.16408C15.9082 2.70516 16.5106 3.40943 16.9264 4.22068C17.3423 5.03197 17.5601 5.92784 17.5625 6.83679C17.6098 9.40821 17.5676 11.981 17.5625 14.5534C17.5603 15.74 16.915 16.5578 15.9859 17.1938C14.9821 17.881 13.5989 18.2227 12.2136 18.2229C10.7951 18.2232 9.37417 17.8656 8.35542 17.1524Z" fill="white"/>
<path d="M30.7404 13.6866H28.954V10.0388H25.6068V13.6866H23.8145V5.23454H25.6068V8.54725H28.954V5.23454H30.7404V13.6866ZM38.0535 13.6866L37.4406 11.6746H34.3595L33.7466 13.6866H31.8156L34.7987 5.19983H36.9899L39.9845 13.6866H38.0535ZM37.013 10.1716L36.4001 8.20615C36.3615 8.07507 36.3097 7.90734 36.244 7.70307C36.1822 7.49495 36.1188 7.2849 36.0531 7.07294C35.9917 6.85709 35.9415 6.67019 35.9029 6.51216C35.8645 6.67019 35.8104 6.86673 35.7411 7.10184C35.6757 7.33308 35.612 7.55277 35.5502 7.76089C35.4888 7.96907 35.4442 8.11735 35.4174 8.20615L34.8102 10.1716H37.013ZM43.5167 5.23454C44.2837 5.23454 44.9158 5.32703 45.413 5.51204C45.914 5.69702 46.2858 5.97644 46.5288 6.35029C46.7715 6.72415 46.893 7.19627 46.893 7.76667C46.893 8.15203 46.8197 8.48918 46.6731 8.77841C46.5268 9.06736 46.334 9.31205 46.0952 9.51248C45.8562 9.71291 45.598 9.87669 45.3203 10.0041L47.8064 13.6866H45.8176L43.8 10.4433H42.8461V13.6866H41.054V5.23454H43.5167ZM43.3896 6.70295H42.8461V8.98645H43.4242C44.0176 8.98645 44.4416 8.88835 44.6962 8.69158C44.9544 8.49115 45.0835 8.19826 45.0835 7.8129C45.0835 7.4121 44.9445 7.1269 44.6671 6.95731C44.3934 6.78772 43.9677 6.70295 43.3896 6.70295ZM48.87 5.23454H51.5004C52.626 5.23454 53.4776 5.39254 54.0558 5.70858C54.634 6.02462 54.9229 6.57962 54.9229 7.37356C54.9229 7.69343 54.8708 7.98261 54.7667 8.24083C54.6667 8.49905 54.5201 8.71104 54.3276 8.87679C54.1347 9.04227 53.8996 9.15023 53.6222 9.20041V9.2582C53.9036 9.31599 54.1578 9.41635 54.3853 9.55871C54.6125 9.69768 54.7938 9.90178 54.9286 10.1716C55.0675 10.4377 55.1369 10.792 55.1369 11.2354C55.1369 11.7479 55.0114 12.1874 54.7611 12.5533C54.5105 12.9195 54.1522 13.2009 53.6857 13.3976C53.2233 13.5902 52.6722 13.6866 52.0323 13.6866H48.87V5.23454ZM50.6623 8.58192H51.7028C52.2232 8.58192 52.5834 8.50074 52.7839 8.33893C52.9843 8.17317 53.0844 7.93045 53.0844 7.61058C53.0844 7.28685 52.9651 7.05558 52.7261 6.91686C52.491 6.77424 52.1172 6.70295 51.6044 6.70295H50.6623V8.58192ZM50.6623 10.0041V12.2066H51.8299C52.3695 12.2066 52.7453 12.1026 52.9572 11.8945C53.1692 11.6862 53.2752 11.4068 53.2752 11.0562C53.2752 10.8481 53.229 10.6649 53.1365 10.507C53.0441 10.3489 52.8879 10.2257 52.6683 10.1369C52.4524 10.0484 52.1538 10.0041 51.7721 10.0041H50.6623ZM64.4965 9.44905C64.4965 10.1002 64.4156 10.6939 64.2538 11.2295C64.0917 11.7615 63.845 12.2201 63.5138 12.6055C63.186 12.9908 62.7699 13.2877 62.265 13.4957C61.7601 13.7001 61.1628 13.8021 60.4727 13.8021C59.7829 13.8021 59.1855 13.7001 58.6806 13.4957C58.1758 13.2877 57.7577 12.9908 57.4262 12.6055C57.0986 12.2201 56.8539 11.7595 56.6918 11.2239C56.53 10.688 56.4491 10.0926 56.4491 9.43749C56.4491 8.56247 56.5918 7.80135 56.8771 7.15388C57.166 6.50252 57.6091 5.99764 58.2065 5.6392C58.8041 5.28077 59.5633 5.10156 60.4842 5.10156C61.4015 5.10156 62.1551 5.28077 62.7448 5.6392C63.3385 5.99764 63.7777 6.50252 64.063 7.15388C64.3519 7.80529 64.4965 8.57037 64.4965 9.44905ZM58.328 9.44905C58.328 10.0388 58.4013 10.5473 58.5476 10.9753C58.6981 11.3992 58.9313 11.7268 59.2473 11.958C59.5633 12.1854 59.9717 12.2991 60.4727 12.2991C60.9815 12.2991 61.3939 12.1854 61.7099 11.958C62.0259 11.7268 62.2554 11.3992 62.3981 10.9753C62.5444 10.5473 62.6177 10.0388 62.6177 9.44905C62.6177 8.56247 62.4519 7.86505 62.1204 7.3562C61.7889 6.84748 61.2437 6.59309 60.4842 6.59309C59.9794 6.59309 59.5672 6.70873 59.2473 6.93997C58.9313 7.16735 58.6981 7.49495 58.5476 7.92284C58.4013 8.34682 58.328 8.85537 58.328 9.44905ZM68.7109 5.23454C69.478 5.23454 70.11 5.32703 70.6073 5.51204C71.1082 5.69702 71.48 5.97644 71.723 6.35029C71.9657 6.72415 72.0872 7.19627 72.0872 7.76667C72.0872 8.15203 72.0139 8.48918 71.8673 8.77841C71.721 9.06736 71.5282 9.31205 71.2894 9.51248C71.0504 9.71291 70.7922 9.87669 70.5148 10.0041L73.0006 13.6866H71.0118L68.9942 10.4433H68.0403V13.6866H66.2482V5.23454H68.7109ZM68.5838 6.70295H68.0403V8.98645H68.6185C69.2119 8.98645 69.6358 8.88835 69.8904 8.69158C70.1486 8.49115 70.2777 8.19826 70.2777 7.8129C70.2777 7.4121 70.139 7.1269 69.8613 6.95731C69.5876 6.78772 69.162 6.70295 68.5838 6.70295Z" fill="white"/>
</g>
<defs>
<filter id="filter0_d_1365_2060" x="0" y="0" width="74" height="23.7676" filterUnits="userSpaceOnUse" color-interpolation-filters="sRGB">
<feFlood flood-opacity="0" result="BackgroundImageFix"/>
<feColorMatrix in="SourceAlpha" type="matrix" values="0 0 0 0 0 0 0 0 0 0 0 0 0 0 0 0 0 0 127 0" result="hardAlpha"/>
<feOffset dy="1"/>
<feGaussianBlur stdDeviation="0.5"/>
<feComposite in2="hardAlpha" operator="out"/>
<feColorMatrix type="matrix" values="0 0 0 0 0 0 0 0 0 0 0 0 0 0 0 0 0 0 0.4 0"/>
<feBlend mode="normal" in2="BackgroundImageFix" result="effect1_dropShadow_1365_2060"/>
<feBlend mode="normal" in="SourceGraphic" in2="effect1_dropShadow_1365_2060" result="shape"/>
</filter>
</defs>
</svg>
