<svg width="14" height="19" viewBox="0 0 14 19" fill="none" xmlns="http://www.w3.org/2000/svg">
<path d="M2.03239 17.1054C1.40919 16.6304 0.902871 16.0142 0.553434 15.3054C0.204023 14.5969 0.0210618 13.8149 0.0190611 13.0217C-0.0207026 10.7932 0.0136923 8.56318 0.0161741 6.33362C0.0174066 5.28171 0.557841 4.55004 1.36081 3.98778C3.06963 2.78975 6.06476 2.80363 7.76374 4.01065C8.66369 4.64952 9.14503 5.51172 9.11515 6.65661C9.09894 7.2846 9.11228 7.9134 9.11228 8.56842H4.88917V5.73106H3.1911V6.23981C3.1911 8.2005 3.1911 10.1614 3.1911 12.1224C3.1911 14.6545 4.37095 16.362 6.7096 17.1947C8.27598 17.7543 9.97061 17.8234 11.5757 17.3931C11.71 17.3587 11.8435 17.3213 11.9784 17.2905C12.0037 17.2848 12.0344 17.3041 12.1085 17.3247C11.4526 17.9537 10.6515 18.4032 9.77958 18.6318C8.94986 18.8706 8.09254 18.9945 7.23049 19C5.37671 19 3.6378 18.3796 2.03239 17.1054ZM6.20909 14.9717C5.78375 14.6919 5.43764 14.3034 5.20538 13.8449C4.97317 13.3862 4.86302 12.8737 4.88546 12.3582C4.90047 11.7286 4.88835 11.099 4.88835 10.4358H9.10324V13.2666H10.8089V12.7738C10.8089 10.7812 10.7726 8.78796 10.8185 6.79663C10.8736 4.43714 9.73492 2.91067 7.72787 1.9939C6.00669 1.20704 4.20952 1.1575 2.39106 1.61611C2.24465 1.65306 2.09785 1.68705 1.81581 1.75504C2.41198 1.15176 3.14446 0.707063 3.94887 0.460089C6.85227 -0.458378 9.54263 -0.0115141 11.9594 1.88894C12.5848 2.36123 13.0933 2.97596 13.4443 3.68407C13.7954 4.39221 13.9792 5.17418 13.9813 5.96757C14.0212 8.21206 13.9856 10.4577 13.9813 12.7031C13.9794 13.7388 13.4347 14.4527 12.6504 15.0078C11.803 15.6076 10.6354 15.9059 9.46598 15.9061C8.26855 15.9063 7.06907 15.5942 6.20909 14.9717Z" fill="#615B9D"/>
</svg>
