<svg width="17" height="17" viewBox="0 0 17 17" fill="none" xmlns="http://www.w3.org/2000/svg">
<path d="M15.6946 12.9911C15.6946 14.4823 14.4798 15.6961 12.9895 15.6961H4.00925C2.5172 15.6961 1.3042 14.4823 1.3042 12.9911V4.01079C1.3042 2.51874 2.5172 1.30574 4.00925 1.30574H12.9895C14.4798 1.30574 15.6946 2.51874 15.6946 4.01079V12.9911ZM5.04434 6.03502C4.68126 6.03502 4.39022 6.32866 4.39022 6.68997V13.2943C4.39022 13.6557 4.68126 13.9484 5.04434 13.9484C5.40579 13.9484 5.69683 13.6557 5.69683 13.2943V6.68997C5.69683 6.32852 5.40579 6.03502 5.04434 6.03502ZM11.9547 6.03502C11.5933 6.03502 11.2998 6.32866 11.2998 6.68997V13.2943C11.2998 13.6557 11.5934 13.9484 11.9547 13.9484C12.317 13.9484 12.6097 13.6557 12.6097 13.2943V6.68997C12.6097 6.32852 12.317 6.03502 11.9547 6.03502ZM8.49774 3.05271C8.14066 3.05271 7.84703 3.34537 7.84703 3.70765V13.2939C7.84703 13.6553 8.14066 13.948 8.49774 13.948C8.86 13.948 9.15268 13.6553 9.15268 13.2939V3.70765C9.15268 3.34539 8.86002 3.05271 8.49774 3.05271ZM12.9893 0H4.00905C1.79768 0 0 1.7993 0 4.01067V12.991C0 15.2015 1.79768 17 4.00905 17H12.9893C15.2015 17 17 15.2015 17 12.991V4.01067C17 1.7993 15.2015 0 12.9893 0Z" fill="#697589"/>
</svg>
