<svg width="32" height="32" viewBox="0 0 32 32" fill="none" xmlns="http://www.w3.org/2000/svg">
<circle cx="16" cy="16" r="15.5" stroke="#FE2B56"/>
<path d="M17.75 10.375C17.75 10.6172 17.7031 10.8438 17.6133 11.0508C17.5195 11.2617 17.3945 11.4414 17.2383 11.5977C17.0781 11.7539 16.8945 11.8789 16.6797 11.9688C16.4648 12.0625 16.2383 12.1055 15.9961 12.1055C15.7539 12.1055 15.5273 12.0586 15.3125 11.9688C15.0977 11.875 14.9141 11.7539 14.7578 11.5977C14.6016 11.4414 14.4766 11.2578 14.3867 11.0508C14.293 10.8398 14.25 10.6133 14.25 10.375C14.25 10.1367 14.2969 9.91406 14.3867 9.70313C14.4766 9.49219 14.6016 9.30469 14.7578 9.14844C14.9141 8.99219 15.0977 8.86719 15.3125 8.77734C15.5273 8.6875 15.7539 8.64062 15.9961 8.64062C16.2383 8.64062 16.4648 8.6875 16.6797 8.77734C16.8945 8.87109 17.0781 8.99219 17.2383 9.14844C17.3984 9.30469 17.5234 9.48828 17.6133 9.70313C17.7031 9.91406 17.75 10.1367 17.75 10.375ZM17.3008 23.3633H14.6797V13.1484H17.3008V23.3633Z" fill="#FE2B56"/>
</svg>
