<svg width="25" height="23" viewBox="0 0 25 23" fill="none" xmlns="http://www.w3.org/2000/svg">
<g opacity="0.5">
<path d="M4.94611 2.4497C4.94611 3.80256 3.84947 4.89939 2.49641 4.89939C1.14356 4.89939 0.046875 3.80259 0.046875 2.4497C0.046875 1.09684 1.14352 0 2.49641 0C3.84943 0 4.94611 1.0968 4.94611 2.4497Z" fill="white"/>
<path d="M4.94611 11.0239C4.94611 12.3768 3.84947 13.4736 2.49641 13.4736C1.14356 13.4736 0.046875 12.3768 0.046875 11.0239C0.046875 9.67102 1.14352 8.57422 2.49641 8.57422C3.84943 8.57422 4.94611 9.67102 4.94611 11.0239Z" fill="white"/>
<path d="M4.94611 19.5981C4.94611 20.951 3.84947 22.0478 2.49641 22.0478C1.14356 22.0478 0.046875 20.951 0.046875 19.5981C0.046875 18.2453 1.14352 17.1484 2.49641 17.1484C3.84943 17.1484 4.94611 18.2452 4.94611 19.5981Z" fill="white"/>
<path d="M9.84588 3.67626H23.319C23.7565 3.67626 24.161 3.44281 24.3796 3.06386C24.5985 2.68493 24.5985 2.21805 24.3796 1.83911C24.1609 1.46003 23.7565 1.22656 23.319 1.22656H9.84588C9.40837 1.22656 9.00388 1.46001 8.78522 1.83911C8.56638 2.21805 8.56638 2.68493 8.78522 3.06386C9.00391 3.4428 9.40837 3.67626 9.84588 3.67626Z" fill="white"/>
<path d="M23.319 9.79883H9.84588C9.40837 9.79883 9.00388 10.0323 8.78522 10.4112C8.56638 10.7902 8.56638 11.257 8.78522 11.636C9.00391 12.0149 9.40837 12.2484 9.84588 12.2484H23.319C23.7565 12.2484 24.161 12.0149 24.3796 11.636C24.5985 11.257 24.5985 10.7902 24.3796 10.4112C24.1609 10.0323 23.7565 9.79883 23.319 9.79883Z" fill="white"/>
<path d="M23.319 18.373H9.84588C9.40837 18.373 9.00388 18.6065 8.78522 18.9854C8.56638 19.3644 8.56638 19.8313 8.78522 20.2102C9.00391 20.5893 9.40837 20.8227 9.84588 20.8227H23.319C23.7565 20.8227 24.161 20.5893 24.3796 20.2102C24.5985 19.8313 24.5985 19.3644 24.3796 18.9854C24.1609 18.6065 23.7565 18.373 23.319 18.373Z" fill="white"/>
</g>
</svg>
