<svg width="18" height="18" viewBox="0 0 18 18" fill="none" xmlns="http://www.w3.org/2000/svg">
<g clip-path="url(#clip0_389_6232)">
<path d="M17.1022 15.536H5.06564C4.94769 15.536 4.8309 15.5128 4.72193 15.4677C4.61296 15.4225 4.51395 15.3564 4.43054 15.273C4.34714 15.1896 4.28099 15.0906 4.23585 14.9816C4.19071 14.8726 4.16748 14.7558 4.16748 14.6379C4.16748 14.5199 4.19071 14.4031 4.23585 14.2942C4.28099 14.1852 4.34714 14.0862 4.43054 14.0028C4.51395 13.9194 4.61296 13.8532 4.72193 13.8081C4.8309 13.763 4.94769 13.7397 5.06564 13.7397H17.1019C17.3401 13.7397 17.5685 13.8343 17.737 14.0027C17.9055 14.1711 18.0001 14.3995 18.0002 14.6377C18.0002 14.8759 17.9056 15.1044 17.7372 15.2729C17.5688 15.4413 17.3404 15.536 17.1022 15.536ZM17.1022 9.89829H5.06564C4.82743 9.89829 4.59898 9.80367 4.43054 9.63523C4.26211 9.46679 4.16748 9.23834 4.16748 9.00014C4.16748 8.76193 4.26211 8.53348 4.43054 8.36504C4.59898 8.1966 4.82743 8.10198 5.06564 8.10198H17.1019C17.3401 8.10194 17.5685 8.19653 17.737 8.36494C17.9055 8.53334 18.0001 8.76178 18.0002 8.99999C18.0002 9.23819 17.9056 9.46666 17.7372 9.63512C17.5688 9.80359 17.3404 9.89825 17.1022 9.89829ZM17.1022 4.26055H5.06564C4.94769 4.26055 4.8309 4.23732 4.72193 4.19218C4.61296 4.14705 4.51395 4.08089 4.43054 3.99749C4.34714 3.91408 4.28099 3.81507 4.23585 3.7061C4.19071 3.59713 4.16748 3.48034 4.16748 3.36239C4.16748 3.24444 4.19071 3.12765 4.23585 3.01868C4.28099 2.90971 4.34714 2.8107 4.43054 2.7273C4.51395 2.6439 4.61296 2.57774 4.72193 2.5326C4.8309 2.48746 4.94769 2.46423 5.06564 2.46423H17.1019C17.3401 2.46419 17.5685 2.55878 17.737 2.72719C17.9055 2.8956 18.0001 3.12404 18.0002 3.36224C18.0002 3.60045 17.9056 3.82892 17.7372 3.99738C17.5688 4.16585 17.3404 4.26051 17.1022 4.26055Z" fill="#FE2B56"/>
<path d="M1.20623 4.63804C1.87241 4.63804 2.41245 4.09799 2.41245 3.43181C2.41245 2.76563 1.87241 2.22559 1.20623 2.22559C0.540046 2.22559 0 2.76563 0 3.43181C0 4.09799 0.540046 4.63804 1.20623 4.63804Z" fill="#FE2B56"/>
<path d="M1.20623 10.2063C1.87241 10.2063 2.41245 9.66623 2.41245 9.00005C2.41245 8.33387 1.87241 7.79382 1.20623 7.79382C0.540046 7.79382 0 8.33387 0 9.00005C0 9.66623 0.540046 10.2063 1.20623 10.2063Z" fill="#FE2B56"/>
<path d="M1.20623 15.7746C1.87241 15.7746 2.41245 15.2346 2.41245 14.5684C2.41245 13.9022 1.87241 13.3622 1.20623 13.3622C0.540046 13.3622 0 13.9022 0 14.5684C0 15.2346 0.540046 15.7746 1.20623 15.7746Z" fill="#FE2B56"/>
</g>
<defs>
<clipPath id="clip0_389_6232">
<rect width="18" height="18" fill="white"/>
</clipPath>
</defs>
</svg>
