<svg width="19" height="15" viewBox="0 0 19 15" fill="none" xmlns="http://www.w3.org/2000/svg">
<path d="M2.1871 3.00956C2.19839 2.89732 2.18326 2.78399 2.14292 2.67864C2.10257 2.57329 2.03813 2.47884 1.95474 2.40286L0.232356 0.312574V0H5.57839L9.71101 9.13288L13.3439 0H18.441V0.312574L16.9684 1.73345C16.906 1.78162 16.8579 1.84584 16.8292 1.91924C16.8004 1.99265 16.7922 2.07248 16.8052 2.15021V12.6007C16.7922 12.6784 16.8004 12.7583 16.8292 12.8317C16.8579 12.9051 16.906 12.9693 16.9684 13.0175L18.4068 14.4393V14.7528H11.1743V14.4402L12.6643 12.9834C12.8109 12.8358 12.8109 12.7925 12.8109 12.5675V4.11971L8.66909 14.7177H8.11033L3.28802 4.11971V11.2232C3.24837 11.521 3.34703 11.8225 3.55542 12.0383L5.49264 14.4061V14.7177H0V14.4061L1.9363 12.0383C2.03875 11.9313 2.11479 11.802 2.15833 11.6604C2.20188 11.5189 2.21173 11.3692 2.1871 11.2232V3.00956Z" fill="#C9C9C9"/>
</svg>
