<svg width="430" height="430" viewBox="0 0 430 430" fill="none" xmlns="http://www.w3.org/2000/svg">
<g clip-path="url(#clip0_601_178)">
<g clip-path="url(#clip1_601_178)">
<path d="M325.118 182.679C325.118 229.051 269.963 247.895 201.48 247.895C132.997 247.895 77.0386 229.051 77.0386 182.679C77.0386 136.306 132.596 98.7822 201.078 98.7822C269.561 98.7822 325.118 136.388 325.118 182.679Z" fill="#4BAF74"/>
<path d="M312.531 81.7179C312.531 57.3028 293.103 37.4758 269.178 37.4758C255.69 37.4758 243.647 43.7844 235.699 53.616C224.861 51.1581 213.3 49.7653 201.337 49.7653C189.375 49.7653 177.814 51.0761 166.975 53.616C158.947 43.7844 146.904 37.4758 133.497 37.4758C109.572 37.4758 90.1428 57.3028 90.1428 81.7179C90.1428 89.7471 92.2302 97.2027 95.843 103.675C92.3908 111.213 90.5442 119.242 90.5442 127.599C90.5442 170.612 140.16 205.432 201.337 205.432C262.514 205.432 312.13 170.612 312.13 127.599C312.13 119.242 310.283 111.213 306.831 103.675C310.444 97.2027 312.531 89.7471 312.531 81.7179Z" fill="#32DA6D"/>
<path d="M130.002 106.331C144.634 106.331 156.496 94.2258 156.496 79.2937C156.496 64.3617 144.634 52.2568 130.002 52.2568C115.37 52.2568 103.508 64.3617 103.508 79.2937C103.508 94.2258 115.37 106.331 130.002 106.331Z" fill="white"/>
<path d="M271.369 106.331C286.002 106.331 297.863 94.2258 297.863 79.2937C297.863 64.3617 286.002 52.2568 271.369 52.2568C256.737 52.2568 244.875 64.3617 244.875 79.2937C244.875 94.2258 256.737 106.331 271.369 106.331Z" fill="white"/>
<path d="M115.857 244.709C121.557 244.709 126.053 239.629 125.411 233.894C123.082 213.575 113.207 169.579 69.7734 143.116C11.9684 107.886 57.7307 229.142 57.7307 229.142L45.7682 236.188C41.754 238.564 43.44 244.709 48.0162 244.709H115.857Z" fill="#32DA6D"/>
<path d="M288.349 244.709C283.211 244.709 279.197 239.629 279.759 233.894C281.766 213.657 290.758 169.579 329.937 143.116C382.202 107.886 340.856 229.142 340.856 229.142L351.694 236.188C355.307 238.564 353.781 244.709 349.687 244.709H288.349Z" fill="#32DA6D"/>
<path d="M130.05 84.0656C132.711 84.0656 134.868 81.8647 134.868 79.1498C134.868 76.4349 132.711 74.234 130.05 74.234C127.39 74.234 125.233 76.4349 125.233 79.1498C125.233 81.8647 127.39 84.0656 130.05 84.0656Z" fill="#0D0D0D"/>
<path d="M271.284 84.0656C273.945 84.0656 276.101 81.8647 276.101 79.1498C276.101 76.4349 273.945 74.234 271.284 74.234C268.624 74.234 266.467 76.4349 266.467 79.1498C266.467 81.8647 268.624 84.0656 271.284 84.0656Z" fill="#0D0D0D"/>
</g>
<rect x="34" y="269.496" width="329" height="126.696" fill="#AC4BFF"/>
</g>
<rect x="216" y="219" width="181" height="181" rx="90.5" fill="white"/>
<path d="M360.853 253.264L313.613 288.218L322.397 267.619L360.853 253.264Z" fill="#E17726" stroke="#E17726" stroke-width="0.899186" stroke-linecap="round" stroke-linejoin="round"/>
<path d="M251.888 253.264L298.707 288.545L290.343 267.619L251.888 253.264Z" fill="#E27625" stroke="#E27625" stroke-width="0.899186" stroke-linecap="round" stroke-linejoin="round"/>
<path d="M343.843 334.311L331.274 353.513L358.188 360.923L365.898 334.731L343.843 334.311Z" fill="#E27625" stroke="#E27625" stroke-width="0.899186" stroke-linecap="round" stroke-linejoin="round"/>
<path d="M246.888 334.731L254.551 360.923L281.418 353.513L268.896 334.311L246.888 334.731Z" fill="#E27625" stroke="#E27625" stroke-width="0.899186" stroke-linecap="round" stroke-linejoin="round"/>
<path d="M279.97 301.874L272.494 313.152L299.127 314.364L298.24 285.702L279.97 301.874Z" fill="#E27625" stroke="#E27625" stroke-width="0.899186" stroke-linecap="round" stroke-linejoin="round"/>
<path d="M332.769 301.874L314.219 285.376L313.612 314.365L340.245 313.153L332.769 301.874Z" fill="#E27625" stroke="#E27625" stroke-width="0.899186" stroke-linecap="round" stroke-linejoin="round"/>
<path d="M281.419 353.513L297.539 345.73L283.662 334.917L281.419 353.513Z" fill="#E27625" stroke="#E27625" stroke-width="0.899186" stroke-linecap="round" stroke-linejoin="round"/>
<path d="M315.201 345.73L331.275 353.513L329.079 334.917L315.201 345.73Z" fill="#E27625" stroke="#E27625" stroke-width="0.899186" stroke-linecap="round" stroke-linejoin="round"/>
<path d="M331.275 353.513L315.201 345.73L316.51 356.17L316.369 360.597L331.275 353.513Z" fill="#D5BFB2" stroke="#D5BFB2" stroke-width="0.899186" stroke-linecap="round" stroke-linejoin="round"/>
<path d="M281.419 353.513L296.371 360.597L296.278 356.17L297.539 345.73L281.419 353.513Z" fill="#D5BFB2" stroke="#D5BFB2" stroke-width="0.899186" stroke-linecap="round" stroke-linejoin="round"/>
<path d="M296.651 328.02L283.287 324.105L292.726 319.77L296.651 328.02Z" fill="#233447" stroke="#233447" stroke-width="0.899186" stroke-linecap="round" stroke-linejoin="round"/>
<path d="M316.089 328.02L320.014 319.77L329.5 324.105L316.089 328.02Z" fill="#233447" stroke="#233447" stroke-width="0.899186" stroke-linecap="round" stroke-linejoin="round"/>
<path d="M281.418 353.513L283.755 334.311L268.896 334.731L281.418 353.513Z" fill="#CC6228" stroke="#CC6228" stroke-width="0.899186" stroke-linecap="round" stroke-linejoin="round"/>
<path d="M328.985 334.311L331.275 353.513L343.844 334.731L328.985 334.311Z" fill="#CC6228" stroke="#CC6228" stroke-width="0.899186" stroke-linecap="round" stroke-linejoin="round"/>
<path d="M340.245 313.152L313.612 314.364L316.088 328.02L320.013 319.77L329.498 324.105L340.245 313.152Z" fill="#CC6228" stroke="#CC6228" stroke-width="0.899186" stroke-linecap="round" stroke-linejoin="round"/>
<path d="M283.287 324.105L292.726 319.77L296.651 328.02L299.127 314.364L272.494 313.152L283.287 324.105Z" fill="#CC6228" stroke="#CC6228" stroke-width="0.899186" stroke-linecap="round" stroke-linejoin="round"/>
<path d="M272.494 313.152L283.662 334.917L283.288 324.105L272.494 313.152Z" fill="#E27525" stroke="#E27525" stroke-width="0.899186" stroke-linecap="round" stroke-linejoin="round"/>
<path d="M329.499 324.105L329.079 334.917L340.246 313.152L329.499 324.105Z" fill="#E27525" stroke="#E27525" stroke-width="0.899186" stroke-linecap="round" stroke-linejoin="round"/>
<path d="M299.129 314.364L296.652 328.02L299.783 344.145L300.484 322.893L299.129 314.364Z" fill="#E27525" stroke="#E27525" stroke-width="0.899186" stroke-linecap="round" stroke-linejoin="round"/>
<path d="M313.613 314.364L312.304 322.846L312.958 344.145L316.089 328.02L313.613 314.364Z" fill="#E27525" stroke="#E27525" stroke-width="0.899186" stroke-linecap="round" stroke-linejoin="round"/>
<path d="M316.089 328.02L312.958 344.145L315.201 345.73L329.079 334.917L329.5 324.105L316.089 328.02Z" fill="#F5841F" stroke="#F5841F" stroke-width="0.899186" stroke-linecap="round" stroke-linejoin="round"/>
<path d="M283.287 324.105L283.661 334.917L297.538 345.73L299.781 344.145L296.651 328.02L283.287 324.105Z" fill="#F5841F" stroke="#F5841F" stroke-width="0.899186" stroke-linecap="round" stroke-linejoin="round"/>
<path d="M316.37 360.597L316.51 356.169L315.295 355.144H297.446L296.278 356.169L296.371 360.597L281.419 353.513L286.652 357.801L297.259 365.118H315.435L326.088 357.801L331.275 353.513L316.37 360.597Z" fill="#C0AC9D" stroke="#C0AC9D" stroke-width="0.899186" stroke-linecap="round" stroke-linejoin="round"/>
<path d="M315.201 345.73L312.958 344.145H299.781L297.539 345.73L296.277 356.17L297.445 355.144H315.295L316.51 356.17L315.201 345.73Z" fill="#161616" stroke="#161616" stroke-width="0.899186" stroke-linecap="round" stroke-linejoin="round"/>
<path d="M362.862 290.502L366.833 271.207L360.852 253.264L315.201 287.053L332.77 301.874L357.582 309.098L363.049 302.713L360.666 300.988L364.45 297.54L361.553 295.303L365.338 292.413L362.862 290.502Z" fill="#763E1A" stroke="#763E1A" stroke-width="0.899186" stroke-linecap="round" stroke-linejoin="round"/>
<path d="M245.907 271.207L249.925 290.502L247.355 292.413L251.187 295.303L248.29 297.54L252.075 300.988L249.692 302.713L255.159 309.098L279.97 301.874L297.539 287.053L251.888 253.264L245.907 271.207Z" fill="#763E1A" stroke="#763E1A" stroke-width="0.899186" stroke-linecap="round" stroke-linejoin="round"/>
<path d="M357.582 309.097L332.77 301.874L340.246 313.152L329.079 334.917L343.844 334.731H365.899L357.582 309.097Z" fill="#F5841F" stroke="#F5841F" stroke-width="0.899186" stroke-linecap="round" stroke-linejoin="round"/>
<path d="M279.97 301.874L255.158 309.097L246.888 334.731H268.896L283.661 334.917L272.494 313.152L279.97 301.874Z" fill="#F5841F" stroke="#F5841F" stroke-width="0.899186" stroke-linecap="round" stroke-linejoin="round"/>
<path d="M313.613 314.364L315.201 287.053L322.397 267.619H290.343L297.539 287.053L299.127 314.364L299.735 322.939L299.782 344.145H312.958L313.005 322.939L313.613 314.364Z" fill="#F5841F" stroke="#F5841F" stroke-width="0.899186" stroke-linecap="round" stroke-linejoin="round"/>
<defs>
<clipPath id="clip0_601_178">
<rect x="34" y="30" width="329" height="329" rx="59.22" fill="white"/>
</clipPath>
<clipPath id="clip1_601_178">
<rect width="315.84" height="210.56" fill="white" transform="translate(40.5393 37.3566)"/>
</clipPath>
</defs>
</svg>
