<svg width="68" height="77" viewBox="0 0 68 77" fill="none" xmlns="http://www.w3.org/2000/svg">
<path d="M32.3745 38.09L38.575 31.8895H38.5756C39.1231 31.3227 39.1146 30.4219 38.5575 29.8648C38.0004 29.3075 37.0996 29.2992 36.5328 29.8467L30.3323 36.0478L24.1318 29.8473V29.8467C23.565 29.2992 22.6642 29.3076 22.1071 29.8648C21.5498 30.4219 21.5415 31.3227 22.089 31.8895L28.2901 38.09L22.0896 44.2905H22.089C21.8104 44.56 21.6519 44.9295 21.6485 45.317C21.6447 45.7046 21.7976 46.0773 22.0715 46.3506C22.3449 46.6247 22.7177 46.7775 23.1052 46.7737C23.4927 46.7704 23.8623 46.6118 24.1318 46.3333L30.3322 40.1321L36.5327 46.3325V46.3333C37.0995 46.8807 38.0003 46.8723 38.5575 46.3152C39.1146 45.7581 39.1231 44.8573 38.5756 44.2904L32.3745 38.09Z" fill="white" fill-opacity="0.37"/>
<path d="M65.8783 66.8328L60.6642 61.6187V19.1091C60.6616 17.9182 60.171 16.7801 59.3062 15.9605L43.7217 1.18454C42.9131 0.421723 41.8433 -0.00256348 40.7318 1.16537e-05H4.33315C3.18474 0.00388048 2.08469 0.461061 1.27286 1.27288C0.461031 2.0847 0.00321892 3.18541 0 4.33316V72.6668C0 73.8159 0.456526 74.9178 1.26899 75.7304C2.08148 76.5435 3.18418 77 4.33309 77H56.3311C57.1597 76.9994 57.9703 76.7614 58.6665 76.3133C59.3629 75.8652 59.9162 75.2255 60.2599 74.4724C60.857 74.7678 61.5147 74.9212 62.1809 74.92C63.3454 74.9206 64.4628 74.4582 65.2862 73.6341L65.8782 73.0422C66.697 72.2162 67.1568 71.1 67.1568 69.9368C67.1568 68.7738 66.697 67.6573 65.8782 66.8315L65.8783 66.8328ZM55.6089 16.4228H44.776C43.9783 16.4228 43.3316 15.7761 43.3316 14.9784V4.79535L55.6089 16.4228ZM56.3311 74.1125H4.33309C3.53545 74.1125 2.88869 73.4657 2.88869 72.6681V4.33447C2.88869 3.53683 3.53545 2.89008 4.33309 2.89008H40.4428V14.9797C40.4428 16.1288 40.8993 17.2315 41.7118 18.0438C42.5242 18.8561 43.627 19.3128 44.7759 19.3128H57.7754V58.7455L52.8354 53.8054C52.1081 53.0839 50.9344 53.0839 50.2065 53.8054L49.1851 54.8268L44.6211 50.2629V50.2622C48.9137 45.259 50.2942 38.3834 48.2663 32.1109C46.2384 25.838 41.094 21.0722 34.6846 19.5285C28.2758 17.9847 21.5251 19.8864 16.8633 24.5476C12.2019 29.209 10.301 35.9597 11.8441 42.3689C13.3878 48.7777 18.1544 53.9228 24.4271 55.9507C30.6993 57.9786 37.5755 56.5975 42.5786 52.3055L47.1425 56.8683L46.0462 57.9645C45.3215 58.6963 45.3215 59.8757 46.0462 60.6076L57.7749 72.3376V72.6703C57.7749 73.0533 57.6227 73.4202 57.3518 73.6917C57.0811 73.9626 56.7135 74.1147 56.3305 74.1147L56.3311 74.1125ZM30.3321 53.9769C26.1182 53.9769 22.0771 52.3029 19.0974 49.3233C16.1177 46.3436 14.4438 42.3026 14.4438 38.0886C14.4438 33.8746 16.1178 29.8336 19.0974 26.8539C22.0771 23.8741 26.1181 22.2003 30.3321 22.2003C34.5461 22.2003 38.5871 23.8744 41.5669 26.8539C44.5466 29.8336 46.2204 33.8746 46.2204 38.0886C46.2178 42.3017 44.5432 46.3416 41.5641 49.3207C38.5851 52.2997 34.5453 53.9743 30.3321 53.9769ZM63.8419 71.0059L63.25 71.5978C62.66 72.1756 61.716 72.1756 61.1267 71.5978L48.8061 59.2772L51.5214 56.5619L63.8419 68.8825C64.4197 69.4718 64.4197 70.4158 63.8419 71.0059Z" fill="white" fill-opacity="0.37"/>
</svg>
