<svg width="17" height="17" viewBox="0 0 17 17" fill="none" xmlns="http://www.w3.org/2000/svg">
<g clip-path="url(#clip0_389_4860)">
<path d="M9.00113 5.51417H1.30411C1.09797 5.51417 0.900273 5.43228 0.754509 5.28652C0.608745 5.14075 0.526855 4.94305 0.526855 4.73691C0.526855 4.53077 0.608745 4.33307 0.754509 4.18731C0.900273 4.04155 1.09797 3.95966 1.30411 3.95966H9.00207C9.20821 3.95966 9.40591 4.04155 9.55167 4.18731C9.69743 4.33307 9.77932 4.53077 9.77932 4.73691C9.77932 4.94305 9.69743 5.14075 9.55167 5.28652C9.40591 5.43228 9.20821 5.51417 9.00207 5.51417H9.00113ZM15.6678 5.51417H13.7222C13.5161 5.51417 13.3184 5.43228 13.1726 5.28652C13.0268 5.14075 12.9449 4.94305 12.9449 4.73691C12.9449 4.53077 13.0268 4.33307 13.1726 4.18731C13.3184 4.04155 13.5161 3.95966 13.7222 3.95966H15.6678C15.874 3.95966 16.0717 4.04155 16.2174 4.18731C16.3632 4.33307 16.4451 4.53077 16.4451 4.73691C16.4451 4.94305 16.3632 5.14075 16.2174 5.28652C16.0717 5.43228 15.874 5.51417 15.6678 5.51417ZM15.6678 12.6923H7.9708C7.76466 12.6923 7.56696 12.6104 7.4212 12.4646C7.27543 12.3189 7.19354 12.1212 7.19354 11.915C7.19354 11.7089 7.27543 11.5112 7.4212 11.3654C7.56696 11.2197 7.76466 11.1378 7.9708 11.1378H15.6678C15.874 11.1378 16.0717 11.2197 16.2174 11.3654C16.3632 11.5112 16.4451 11.7089 16.4451 11.915C16.4451 12.1212 16.3632 12.3189 16.2174 12.4646C16.0717 12.6104 15.874 12.6923 15.6678 12.6923ZM3.24974 12.6923H1.30411C1.09797 12.6923 0.900273 12.6104 0.754509 12.4646C0.608745 12.3189 0.526855 12.1212 0.526855 11.915C0.526855 11.7089 0.608745 11.5112 0.754509 11.3654C0.900273 11.2197 1.09797 11.1378 1.30411 11.1378H3.24974C3.45588 11.1378 3.65358 11.2197 3.79935 11.3654C3.94511 11.5112 4.027 11.7089 4.027 11.915C4.027 12.1212 3.94511 12.3189 3.79935 12.4646C3.65358 12.6104 3.45588 12.6923 3.24974 12.6923Z" fill="#4AC9E2"/>
<path d="M5.61042 14.9954C4.98978 14.9955 4.38306 14.8115 3.86699 14.4667C3.35092 14.122 2.94867 13.6319 2.71112 13.0585C2.47357 12.4852 2.41138 11.8542 2.53243 11.2455C2.65347 10.6368 2.9523 10.0776 3.39114 9.63874C3.82998 9.19986 4.38911 8.90097 4.99782 8.77986C5.60652 8.65876 6.23748 8.72088 6.81088 8.95838C7.38428 9.19587 7.87438 9.59807 8.21919 10.1141C8.56401 10.6301 8.74805 11.2368 8.74805 11.8575C8.74748 12.6895 8.41673 13.4873 7.82844 14.0756C7.24016 14.6639 6.44243 14.9948 5.61042 14.9954ZM5.61042 10.2744C5.29722 10.2743 4.99104 10.3671 4.7306 10.5411C4.47016 10.7151 4.26716 10.9624 4.14727 11.2517C4.02739 11.5411 3.99601 11.8595 4.05709 12.1666C4.11818 12.4738 4.26899 12.756 4.49046 12.9775C4.71192 13.1989 4.99409 13.3497 5.30128 13.4108C5.60846 13.4719 5.92686 13.4405 6.21621 13.3206C6.50555 13.2008 6.75285 12.9978 6.92681 12.7373C7.10078 12.4769 7.1936 12.1707 7.19354 11.8575C7.19288 11.4378 7.02588 11.0355 6.72913 10.7388C6.43238 10.442 6.03009 10.275 5.61042 10.2744ZM11.3615 7.87482C10.7409 7.87482 10.1342 7.69079 9.61816 7.34598C9.10212 7.00118 8.69993 6.5111 8.46242 5.93772C8.22492 5.36434 8.16278 4.7334 8.28385 4.1247C8.40493 3.516 8.70379 2.95687 9.14264 2.51802C9.58149 2.07917 10.1406 1.78031 10.7493 1.65923C11.358 1.53816 11.989 1.6003 12.5623 1.8378C13.1357 2.0753 13.6258 2.4775 13.9706 2.99353C14.3154 3.50957 14.4994 4.11626 14.4994 4.73688C14.4989 5.56894 14.1681 6.36675 13.5797 6.9551C12.9914 7.54346 12.1936 7.87425 11.3615 7.87482ZM11.3615 3.15376C11.0483 3.15376 10.7422 3.24664 10.4818 3.42064C10.2214 3.59464 10.0184 3.84196 9.89858 4.13131C9.77874 4.42066 9.7474 4.73905 9.80852 5.04622C9.86964 5.35338 10.0205 5.63552 10.242 5.85696C10.4634 6.07839 10.7456 6.22917 11.0528 6.29023C11.36 6.35129 11.6783 6.31989 11.9677 6.2C12.257 6.08011 12.5043 5.87711 12.6782 5.61667C12.8522 5.35624 12.945 5.05007 12.9449 4.73688C12.9443 4.31716 12.7772 3.91482 12.4804 3.61807C12.1836 3.32131 11.7812 3.15434 11.3615 3.15376Z" fill="#4AC9E2"/>
</g>
<defs>
<clipPath id="clip0_389_4860">
<rect width="15.9182" height="15.9182" fill="white" transform="translate(0.526855 0.366821)"/>
</clipPath>
</defs>
</svg>
