<svg width="20" height="20" viewBox="0 0 20 20" fill="none" xmlns="http://www.w3.org/2000/svg">
<path d="M10.64 2.87835C10.9531 2.56691 11.3768 2.39209 11.8184 2.39209C12.26 2.39209 12.6836 2.56691 12.9967 2.87835L17.1217 7.00335C17.4341 7.3159 17.6097 7.73974 17.6097 8.18168C17.6097 8.62362 17.4341 9.04747 17.1217 9.36002C16.9671 9.51514 16.7834 9.63822 16.5812 9.7222C16.379 9.80618 16.1621 9.84941 15.9431 9.84941C15.7242 9.84941 15.5073 9.80618 15.3051 9.7222C15.1029 9.63822 14.9192 9.51514 14.7646 9.36002L14.47 9.06543L12.0104 11.525C12.7521 13.5333 12.2559 16.0113 10.6396 17.6096C10.5612 17.6872 10.4553 17.7307 10.345 17.7307C10.2347 17.7307 10.1288 17.6872 10.0504 17.6096L6.51502 14.0742L3.86336 16.7258C3.78477 16.8017 3.67952 16.8437 3.57027 16.8428C3.46103 16.8418 3.35652 16.798 3.27927 16.7208C3.20201 16.6435 3.15819 16.539 3.15724 16.4298C3.15629 16.3205 3.19829 16.2153 3.27419 16.1367L5.92586 13.485L2.39044 9.9496C2.3512 9.91119 2.32002 9.86533 2.29873 9.81471C2.27744 9.76408 2.26648 9.70972 2.26648 9.65481C2.26648 9.59989 2.27744 9.54553 2.29873 9.49491C2.32002 9.44429 2.3512 9.39843 2.39044 9.36002C3.96669 7.78377 6.36128 7.2196 8.47461 7.98918L10.9342 5.5296L10.64 5.23543C10.3276 4.92276 10.1522 4.49887 10.1522 4.05689C10.1522 3.61492 10.3276 3.19102 10.64 2.87835Z" fill="#FE2B56"/>
</svg>
