<svg width="17" height="18" viewBox="0 0 17 18" fill="none" xmlns="http://www.w3.org/2000/svg">
<path d="M6.29624 7.31868H10.7036C10.811 7.31873 10.9166 7.28973 11.0103 7.23442C11.1041 7.17912 11.183 7.09935 11.2394 7.0027C11.2959 6.90604 11.3281 6.79571 11.3329 6.68217C11.3378 6.56864 11.3151 6.45567 11.2672 6.35401L9.06346 1.68734C9.00541 1.58386 8.92293 1.49815 8.82414 1.43861C8.72534 1.37908 8.61362 1.34778 8.49995 1.34778C8.38627 1.34778 8.27455 1.37908 8.17575 1.43861C8.07696 1.49815 7.99448 1.58386 7.93643 1.68734L5.73272 6.35401C5.68474 6.45567 5.66211 6.56864 5.66696 6.68217C5.67182 6.79571 5.70401 6.90604 5.76047 7.0027C5.81693 7.09935 5.89579 7.17912 5.98957 7.23442C6.08334 7.28973 6.18891 7.31873 6.29624 7.31868ZM4.09254 11.9853H12.9074C13.0147 11.9854 13.1203 11.9564 13.214 11.9011C13.3078 11.8458 13.3867 11.766 13.4431 11.6694C13.4996 11.5727 13.5318 11.4624 13.5366 11.3488C13.5415 11.2353 13.5189 11.1223 13.4709 11.0207L12.2116 8.35401C12.1593 8.24319 12.0789 8.14999 11.9793 8.08487C11.8798 8.01975 11.7651 7.98528 11.6481 7.98534H5.3518C5.23479 7.98528 5.12009 8.01975 5.02055 8.08487C4.92101 8.14999 4.84058 8.24319 4.78828 8.35401L3.52902 11.0207C3.48104 11.1223 3.4584 11.2353 3.46326 11.3488C3.46812 11.4624 3.5003 11.5727 3.55677 11.6694C3.61323 11.766 3.69209 11.8458 3.78586 11.9011C3.87963 11.9564 3.9852 11.9854 4.09254 11.9853ZM15.6746 15.6867L14.4153 13.02C14.3629 12.9093 14.2825 12.8162 14.1829 12.7513C14.0834 12.6863 13.9687 12.6519 13.8518 12.652H3.14809C3.03109 12.652 2.91638 12.6864 2.81685 12.7515C2.71731 12.8167 2.63688 12.9099 2.58458 13.0207L1.32532 15.6873C1.27734 15.789 1.2547 15.902 1.25956 16.0155C1.26441 16.129 1.2966 16.2394 1.35306 16.336C1.40952 16.4327 1.48839 16.5125 1.58216 16.5678C1.67593 16.6231 1.7815 16.6521 1.88883 16.652H15.1111C15.2184 16.6521 15.324 16.6231 15.4177 16.5678C15.5115 16.5125 15.5904 16.4327 15.6468 16.336C15.7033 16.2394 15.7355 16.129 15.7403 16.0155C15.7452 15.902 15.7226 15.7883 15.6746 15.6867Z" fill="#A1C7FF"/>
</svg>
