<svg width="19" height="20" viewBox="0 0 19 20" fill="none" xmlns="http://www.w3.org/2000/svg">
<path d="M9.50497 12.0178C10.9047 12.0178 12.0395 10.9216 12.0395 9.56929C12.0395 8.21698 10.9047 7.12073 9.50497 7.12073C8.1052 7.12073 6.97046 8.21698 6.97046 9.56929C6.97046 10.9216 8.1052 12.0178 9.50497 12.0178Z" fill="#507FE5"/>
<path d="M13.9805 5.21312C12.7842 4.05679 11.1928 3.42017 9.50011 3.42017C7.80737 3.42017 6.21633 4.05679 5.01972 5.21312C3.82279 6.36884 3.16382 7.90623 3.16382 9.54156C3.16382 11.1769 3.82279 12.714 5.01972 13.87C5.15276 13.9981 5.32207 14.0852 5.50631 14.1205C5.69055 14.1557 5.88146 14.1375 6.05498 14.068C6.2285 13.9986 6.37686 13.8811 6.48135 13.7303C6.58584 13.5796 6.64178 13.4023 6.64212 13.2208C6.64212 12.9754 6.54296 12.7446 6.36364 12.5717C5.52567 11.7621 5.06439 10.6863 5.06439 9.54187C5.06439 8.39747 5.52567 7.32133 6.36364 6.51208C7.20162 5.70283 8.31522 5.25689 9.49979 5.25689C10.6844 5.25689 11.7983 5.70253 12.6359 6.51208C13.4736 7.32164 13.9352 8.39747 13.9352 9.54187C13.9352 10.6863 13.4739 11.7624 12.6359 12.5713C12.5474 12.6565 12.4772 12.7577 12.4294 12.8692C12.3816 12.9806 12.3571 13.1002 12.3575 13.2208C12.3575 13.466 12.4566 13.6968 12.6359 13.87C12.8153 14.0432 13.0541 14.139 13.3079 14.139C13.5617 14.139 13.8005 14.0432 13.9799 13.87C15.1768 12.7143 15.8358 11.1769 15.8358 9.54156C15.8358 7.90623 15.1774 6.36884 13.9805 5.21312Z" fill="#507FE5"/>
<path d="M16.2206 3.04861C12.5154 -0.531492 6.48519 -0.531186 2.77941 3.04861C0.986877 4.78035 0 7.08597 0 9.54127C0 11.9966 0.986877 14.3025 2.77941 16.0339C3.15009 16.392 3.75267 16.392 4.12334 16.0339C4.49401 15.6758 4.49401 15.0937 4.12334 14.7356C1.15922 11.8717 1.15922 7.21116 4.12334 4.34726C7.08809 1.48306 11.9116 1.48367 14.8763 4.34726C17.8405 7.21116 17.8405 11.8717 14.8763 14.7356C14.7438 14.8641 14.6535 15.0277 14.6171 15.2057C14.5806 15.3838 14.5995 15.5682 14.6714 15.7359C14.7433 15.9035 14.865 16.0468 15.0211 16.1478C15.1772 16.2487 15.3608 16.3027 15.5486 16.303C15.8024 16.303 16.0413 16.2072 16.2206 16.0339C18.0131 14.3025 19 11.9969 19 9.54127C19 7.08567 18.0131 4.78035 16.2206 3.04861Z" fill="#507FE5"/>
<path d="M10.1383 12.324H8.87101C8.78699 12.324 8.70641 12.3562 8.64699 12.4136C8.58758 12.471 8.5542 12.5489 8.5542 12.63V18.4454C8.5542 18.9516 8.98063 19.3636 9.50464 19.3636C10.0287 19.3636 10.4551 18.9516 10.4551 18.4454V12.63C10.4551 12.5489 10.4217 12.471 10.3623 12.4136C10.3029 12.3562 10.2223 12.324 10.1383 12.324Z" fill="#507FE5"/>
</svg>
