<svg width="19" height="17" viewBox="0 0 19 17" fill="none" xmlns="http://www.w3.org/2000/svg">
<path d="M0.659636 0.0297153C0.234116 0.159221 -0.0396972 0.55514 0.00470488 0.97326C0.0158054 1.08427 0.049107 1.22117 0.0824086 1.28407C0.152712 1.42098 0.337721 1.60969 0.470927 1.67629C0.52643 1.70589 1.29237 1.9131 2.17301 2.13882C3.05735 2.36083 3.78998 2.56064 3.80478 2.57544C3.81959 2.59024 4.1156 4.74004 4.46342 7.35236C5.01844 11.5077 5.10725 12.1219 5.18495 12.2921C5.28855 12.5178 5.45136 12.688 5.64747 12.7842C5.77698 12.8508 5.99899 12.8545 10.9054 12.8656C14.2578 12.8693 16.0709 12.8619 16.1634 12.836C16.4927 12.7472 16.7406 12.4697 16.8775 12.0331C16.9293 11.874 17.4066 10.4457 17.9432 8.85833L18.9163 5.9722L18.92 5.63548C18.92 5.32467 18.9126 5.28766 18.809 5.12116C18.7313 4.99165 18.6425 4.91395 18.513 4.84734L18.3317 4.75114H13.6287H8.92583L8.77042 4.85474C8.54841 4.99905 8.4263 5.20256 8.4041 5.46157C8.3782 5.75759 8.51881 6.0314 8.78152 6.19421L8.95913 6.30521L12.9442 6.32371L16.9293 6.34221L16.6888 7.16365L16.4446 7.98879H12.4188C8.52991 7.98879 8.3856 7.99249 8.25239 8.0591C7.72697 8.32921 7.68997 9.03224 8.18949 9.33936L8.3671 9.45036L12.1857 9.46886L16.0043 9.48736L15.7786 10.2459L15.5528 11.0044L11.1089 11.0155L6.66872 11.0229L6.50961 9.79448C6.42451 9.11735 6.1618 7.01195 5.92869 5.12116C5.67337 3.01946 5.48466 1.61709 5.44766 1.51719C5.34406 1.24707 5.15165 1.08797 4.79643 0.98066C4.197 0.803052 0.96675 -0.00358627 0.859445 0.0001139C0.800243 0.0001139 0.711438 0.0149146 0.659636 0.0297153Z" fill="white"/>
<path d="M6.76495 13.4318C6.30983 13.5206 5.86211 13.8684 5.6475 14.305C5.52909 14.5455 5.52539 14.5714 5.52539 14.9821C5.52539 15.3855 5.53279 15.4225 5.6438 15.6556C5.86211 16.1144 6.29873 16.4437 6.81305 16.5399C7.30517 16.6324 7.8491 16.4474 8.20432 16.0737C8.80005 15.441 8.79265 14.4863 8.18212 13.8758C7.9416 13.639 7.66779 13.491 7.34218 13.4318C7.09056 13.3874 7.00176 13.3874 6.76495 13.4318Z" fill="white"/>
<path d="M13.6473 13.4429C13.3402 13.5095 13.096 13.6427 12.8665 13.8684C12.2375 14.4974 12.2375 15.4669 12.8665 16.0959C13.7842 17.0098 15.3272 16.4992 15.5381 15.2079C15.6676 14.3901 15.0867 13.5872 14.243 13.4281C13.9988 13.3837 13.91 13.3837 13.6473 13.4429Z" fill="white"/>
</svg>
