<svg width="22" height="22" viewBox="0 0 22 22" fill="none" xmlns="http://www.w3.org/2000/svg">
<path d="M12.7188 14.7812H3.4375" stroke="white" stroke-width="1.5" stroke-linecap="round" stroke-linejoin="round"/>
<path d="M18.5625 14.7812H16.1562" stroke="white" stroke-width="1.5" stroke-linecap="round" stroke-linejoin="round"/>
<path d="M14.4375 16.5C15.3867 16.5 16.1562 15.7305 16.1562 14.7812C16.1562 13.832 15.3867 13.0625 14.4375 13.0625C13.4883 13.0625 12.7188 13.832 12.7188 14.7812C12.7188 15.7305 13.4883 16.5 14.4375 16.5Z" stroke="white" stroke-width="1.5" stroke-linecap="round" stroke-linejoin="round"/>
<path d="M7.21875 7.21875H3.4375" stroke="white" stroke-width="1.5" stroke-linecap="round" stroke-linejoin="round"/>
<path d="M18.5625 7.21875H10.6562" stroke="white" stroke-width="1.5" stroke-linecap="round" stroke-linejoin="round"/>
<path d="M8.9375 8.9375C9.88674 8.9375 10.6562 8.16799 10.6562 7.21875C10.6562 6.26951 9.88674 5.5 8.9375 5.5C7.98826 5.5 7.21875 6.26951 7.21875 7.21875C7.21875 8.16799 7.98826 8.9375 8.9375 8.9375Z" stroke="white" stroke-width="1.5" stroke-linecap="round" stroke-linejoin="round"/>
</svg>
