<svg width="16" height="15" viewBox="0 0 16 15" fill="none" xmlns="http://www.w3.org/2000/svg">
<path d="M0.533333 2.67825H0.609067C0.725478 3.1377 0.990964 3.54509 1.36358 3.83606C1.7362 4.12703 2.19471 4.285 2.66667 4.285C3.13863 4.285 3.59713 4.12703 3.96975 3.83606C4.34237 3.54509 4.60786 3.1377 4.72427 2.67825H15.4667C15.6081 2.67825 15.7438 2.6218 15.8438 2.52133C15.9438 2.42086 16 2.28459 16 2.1425C16 2.00041 15.9438 1.86414 15.8438 1.76367C15.7438 1.66319 15.6081 1.60675 15.4667 1.60675H4.72427C4.60786 1.1473 4.34237 0.739907 3.96975 0.448935C3.59713 0.157964 3.13863 0 2.66667 0C2.19471 0 1.7362 0.157964 1.36358 0.448935C0.990964 0.739907 0.725478 1.1473 0.609067 1.60675H0.533333C0.391885 1.60675 0.256229 1.66319 0.15621 1.76367C0.0561903 1.86414 0 2.00041 0 2.1425C0 2.28459 0.0561903 2.42086 0.15621 2.52133C0.256229 2.6218 0.391885 2.67825 0.533333 2.67825ZM2.66667 1.071C2.87763 1.071 3.08386 1.13384 3.25927 1.25158C3.43469 1.36932 3.5714 1.53666 3.65214 1.73245C3.73287 1.92824 3.754 2.14369 3.71284 2.35154C3.67168 2.55939 3.57009 2.75031 3.42091 2.90016C3.27174 3.05002 3.08168 3.15207 2.87476 3.19341C2.66785 3.23475 2.45338 3.21354 2.25847 3.13244C2.06356 3.05134 1.89697 2.914 1.77977 2.73779C1.66256 2.56159 1.6 2.35442 1.6 2.1425C1.6 1.85832 1.71238 1.58578 1.91242 1.38483C2.11246 1.18389 2.38377 1.071 2.66667 1.071ZM15.4667 6.96425H15.3909C15.2745 6.5048 15.009 6.09741 14.6364 5.80644C14.2638 5.51546 13.8053 5.3575 13.3333 5.3575C12.8614 5.3575 12.4029 5.51546 12.0302 5.80644C11.6576 6.09741 11.3921 6.5048 11.2757 6.96425H0.533333C0.391885 6.96425 0.256229 7.02069 0.15621 7.12117C0.0561903 7.22164 0 7.35791 0 7.5C0 7.64209 0.0561903 7.77836 0.15621 7.87883C0.256229 7.9793 0.391885 8.03575 0.533333 8.03575H11.2757C11.3921 8.4952 11.6576 8.90259 12.0302 9.19356C12.4029 9.48454 12.8614 9.6425 13.3333 9.6425C13.8053 9.6425 14.2638 9.48454 14.6364 9.19356C15.009 8.90259 15.2745 8.4952 15.3909 8.03575H15.4667C15.6081 8.03575 15.7438 7.9793 15.8438 7.87883C15.9438 7.77836 16 7.64209 16 7.5C16 7.35791 15.9438 7.22164 15.8438 7.12117C15.7438 7.02069 15.6081 6.96425 15.4667 6.96425ZM13.3333 8.5715C13.1224 8.5715 12.9161 8.50866 12.7407 8.39092C12.5653 8.27318 12.4286 8.10584 12.3479 7.91004C12.2671 7.71425 12.246 7.49881 12.2872 7.29096C12.3283 7.08311 12.4299 6.89219 12.5791 6.74233C12.7283 6.59248 12.9183 6.49043 13.1252 6.44909C13.3322 6.40774 13.5466 6.42896 13.7415 6.51006C13.9364 6.59116 14.103 6.7285 14.2202 6.90471C14.3374 7.08091 14.4 7.28808 14.4 7.5C14.4 7.78418 14.2876 8.05672 14.0876 8.25766C13.8875 8.45861 13.6162 8.5715 13.3333 8.5715ZM15.4667 12.3218H10.0576C9.94119 11.8623 9.6757 11.4549 9.30309 11.1639C8.93047 10.873 8.47196 10.715 8 10.715C7.52804 10.715 7.06953 10.873 6.69692 11.1639C6.3243 11.4549 6.05881 11.8623 5.9424 12.3218H0.533333C0.391885 12.3218 0.256229 12.3782 0.15621 12.4787C0.0561903 12.5791 0 12.7154 0 12.8575C0 12.9996 0.0561903 13.1359 0.15621 13.2363C0.256229 13.3368 0.391885 13.3933 0.533333 13.3933H5.9424C6.05881 13.8527 6.3243 14.2601 6.69692 14.5511C7.06953 14.842 7.52804 15 8 15C8.47196 15 8.93047 14.842 9.30309 14.5511C9.6757 14.2601 9.94119 13.8527 10.0576 13.3933H15.4667C15.6081 13.3933 15.7438 13.3368 15.8438 13.2363C15.9438 13.1359 16 12.9996 16 12.8575C16 12.7154 15.9438 12.5791 15.8438 12.4787C15.7438 12.3782 15.6081 12.3218 15.4667 12.3218ZM8 13.929C7.78903 13.929 7.5828 13.8662 7.40739 13.7484C7.23198 13.6307 7.09526 13.4633 7.01453 13.2675C6.9338 13.0718 6.91267 12.8563 6.95383 12.6485C6.99499 12.4406 7.09658 12.2497 7.24575 12.0998C7.39493 11.95 7.58499 11.8479 7.7919 11.8066C7.99882 11.7652 8.21329 11.7865 8.4082 11.8676C8.6031 11.9487 8.76969 12.086 8.8869 12.2622C9.00411 12.4384 9.06667 12.6456 9.06667 12.8575C9.06667 13.1417 8.95429 13.4142 8.75425 13.6152C8.55421 13.8161 8.2829 13.929 8 13.929Z" fill="white"/>
</svg>
