<svg width="18" height="18" viewBox="0 0 18 18" fill="none" xmlns="http://www.w3.org/2000/svg">
<path d="M8.4375 11.25C8.4375 10.8022 8.25975 10.373 7.94306 10.0569C7.78647 9.90008 7.60049 9.7757 7.39577 9.69085C7.19105 9.60601 6.97161 9.56238 6.75 9.56245H2.8125C2.36475 9.56245 1.93556 9.7402 1.61944 10.0569C1.46263 10.2135 1.33824 10.3995 1.2534 10.6042C1.16856 10.8089 1.12492 11.0283 1.125 11.25V15.1875C1.125 15.6352 1.30275 16.0644 1.61944 16.3805C1.77603 16.5373 1.962 16.6617 2.16673 16.7466C2.37145 16.8314 2.59089 16.875 2.8125 16.875H6.75C7.19775 16.875 7.62694 16.6972 7.94306 16.3805C8.09987 16.2239 8.22426 16.0379 8.3091 15.8332C8.39394 15.6285 8.43758 15.4091 8.4375 15.1875V11.25ZM16.875 11.25C16.875 10.8022 16.6973 10.373 16.3806 10.0569C16.224 9.90008 16.038 9.7757 15.8333 9.69085C15.6286 9.60601 15.4091 9.56238 15.1875 9.56245H11.25C10.8022 9.56245 10.3731 9.7402 10.0569 10.0569C9.90013 10.2135 9.77574 10.3995 9.6909 10.6042C9.60606 10.8089 9.56242 11.0283 9.5625 11.25V15.1875C9.5625 15.6352 9.74025 16.0644 10.0569 16.3805C10.2135 16.5373 10.3995 16.6617 10.6042 16.7466C10.8089 16.8314 11.0284 16.875 11.25 16.875H15.1875C15.6353 16.875 16.0644 16.6972 16.3806 16.3805C16.5374 16.2239 16.6618 16.0379 16.7466 15.8332C16.8314 15.6285 16.8751 15.4091 16.875 15.1875V11.25ZM14.4118 8.32102L16.7586 5.97427C17.0749 5.65781 17.2526 5.22867 17.2526 4.7812C17.2526 4.33374 17.0749 3.90459 16.7586 3.58814L14.4118 1.24139C14.0954 0.925034 13.6662 0.747314 13.2188 0.747314C12.7713 0.747314 12.3421 0.925034 12.0257 1.24139L9.67894 3.58814C9.36258 3.90459 9.18486 4.33374 9.18486 4.7812C9.18486 5.22867 9.36258 5.65781 9.67894 5.97427L12.0257 8.32102C12.3421 8.63737 12.7713 8.81509 13.2188 8.81509C13.6662 8.81509 14.0954 8.63737 14.4118 8.32102ZM8.4375 2.81245C8.4375 2.3647 8.25975 1.93552 7.94306 1.61939C7.78647 1.46258 7.60049 1.3382 7.39577 1.25335C7.19105 1.16851 6.97161 1.12488 6.75 1.12495H2.8125C2.36475 1.12495 1.93556 1.3027 1.61944 1.61939C1.46263 1.77598 1.33824 1.96196 1.2534 2.16668C1.16856 2.3714 1.12492 2.59085 1.125 2.81245V6.74995C1.125 7.1977 1.30275 7.62689 1.61944 7.94302C1.77603 8.09983 1.962 8.22421 2.16673 8.30905C2.37145 8.3939 2.59089 8.43753 2.8125 8.43745H6.75C7.19775 8.43745 7.62694 8.2597 7.94306 7.94302C8.09987 7.78643 8.22426 7.60045 8.3091 7.39573C8.39394 7.191 8.43758 6.97156 8.4375 6.74995V2.81245Z" fill="#FE2B56"/>
</svg>
