<svg width="16" height="16" viewBox="0 0 16 16" fill="none" xmlns="http://www.w3.org/2000/svg">
<path d="M15.0126 5.28667L10.576 4.90167L8.84346 0.8225C8.53179 0.08 7.46846 0.08 7.15679 0.8225L5.42429 4.91083L0.996794 5.28667C0.190128 5.35083 -0.139872 6.35917 0.474294 6.89083L3.83846 9.80583L2.83013 14.1325C2.64679 14.9208 3.49929 15.5442 4.19596 15.1225L8.00013 12.8308L11.8043 15.1317C12.501 15.5533 13.3535 14.93 13.1701 14.1417L12.1618 9.80583L15.526 6.89083C16.1401 6.35917 15.8193 5.35083 15.0126 5.28667ZM8.00013 11.1167L4.55346 13.1975L5.47013 9.27417L2.42679 6.63417L6.44179 6.28583L8.00013 2.59167L9.56763 6.295L13.5826 6.64333L10.5393 9.28333L11.456 13.2067L8.00013 11.1167Z" fill="#8C89B4"/>
</svg>
