<svg width="13" height="13" viewBox="0 0 13 13" fill="none" xmlns="http://www.w3.org/2000/svg">
<path d="M11.6074 1.39918H11.5877V0.341797C11.5877 0.153125 11.4346 0 11.2459 0C11.0573 0 10.9041 0.153125 10.9041 0.341797V1.39918H10.8845C10.3945 1.39918 9.99578 1.79785 9.99578 2.28785V9.16289C9.99578 9.65289 10.3945 10.0516 10.8845 10.0516H10.9041V11.1089C10.9041 11.2976 11.0573 11.4507 11.2459 11.4507C11.4346 11.4507 11.5877 11.2976 11.5877 11.1089V10.0516H11.6074C12.0974 10.0516 12.4961 9.65289 12.4961 9.16289V2.28785C12.4961 1.79785 12.0974 1.39918 11.6074 1.39918ZM8.27559 4.71406H8.2559V4.18988C8.2559 4.00121 8.10277 3.84809 7.9141 3.84809C7.72543 3.84809 7.5723 4.00121 7.5723 4.18988V4.71406H7.55262C7.06262 4.71406 6.66395 5.11273 6.66395 5.60273V10.7412C6.66395 11.2312 7.06262 11.6298 7.55262 11.6298H7.5723V12.154C7.5723 12.3427 7.72543 12.4958 7.9141 12.4958C8.10277 12.4958 8.2559 12.3427 8.2559 12.154V11.6298H8.27559C8.76559 11.6298 9.16426 11.2312 9.16426 10.7412V5.60273C9.16426 5.11273 8.76559 4.71406 8.27559 4.71406ZM4.94375 3.58777H4.92406V2.87875C4.92406 2.69008 4.77094 2.53695 4.58227 2.53695C4.39359 2.53695 4.24047 2.69008 4.24047 2.87875V3.58777H4.22078C3.73078 3.58777 3.33211 3.98645 3.33211 4.47645V7.62508C3.33211 8.11508 3.73078 8.51375 4.22078 8.51375H4.24047V9.22277C4.24047 9.41145 4.39359 9.56457 4.58227 9.56457C4.77094 9.56457 4.92406 9.41145 4.92406 9.22277V8.51375H4.94375C5.43375 8.51375 5.83242 8.11508 5.83242 7.62508V4.47645C5.83242 3.98645 5.43375 3.58777 4.94375 3.58777ZM1.61164 1.55969H1.59195V0.341797C1.59195 0.153125 1.43883 0 1.25016 0C1.06148 0 0.908359 0.153125 0.908359 0.341797V1.55969H0.888672C0.398672 1.55969 0 1.95836 0 2.44836V8.79539C0 9.28539 0.398672 9.68406 0.888672 9.68406H0.908359V10.902C0.908359 11.0906 1.06148 11.2438 1.25016 11.2438C1.43883 11.2438 1.59195 11.0906 1.59195 10.902V9.68406H1.61164C2.10164 9.68406 2.50031 9.28539 2.50031 8.79539V2.44836C2.50031 1.95836 2.10164 1.55969 1.61164 1.55969Z" fill="white"/>
</svg>
