<svg width="20" height="16" viewBox="0 0 20 16" fill="none" xmlns="http://www.w3.org/2000/svg">
<path d="M19.4419 1.86007C18.7325 2.1744 17.9705 2.38679 17.1694 2.48278C17.996 1.98818 18.6144 1.20973 18.9092 0.292681C18.1326 0.753969 17.2827 1.07867 16.3963 1.25266C15.8003 0.616239 15.0108 0.194412 14.1504 0.0526647C13.2901 -0.0890821 12.407 0.0571821 11.6383 0.468749C10.8696 0.880316 10.2582 1.53416 9.89919 2.32876C9.54016 3.12337 9.45351 4.01428 9.6527 4.86318C8.07909 4.78417 6.53968 4.37516 5.13438 3.66271C3.72907 2.95025 2.48928 1.95026 1.49546 0.727643C1.15564 1.31382 0.960252 1.99345 0.960252 2.71725C0.959873 3.36884 1.12033 4.01045 1.42739 4.58516C1.73445 5.15986 2.17862 5.64988 2.72049 6.01175C2.09207 5.99176 1.47751 5.82195 0.927969 5.51647V5.56744C0.927906 6.48132 1.24402 7.36708 1.82269 8.07442C2.40135 8.78176 3.20691 9.26711 4.10268 9.44812C3.51972 9.60589 2.90852 9.62913 2.31526 9.51609C2.56799 10.3024 3.0603 10.9901 3.72325 11.4827C4.38621 11.9753 5.18662 12.2483 6.01244 12.2635C4.61056 13.364 2.87926 13.9609 1.09703 13.9583C0.781323 13.9584 0.465887 13.94 0.152344 13.9031C1.96141 15.0662 4.06729 15.6836 6.21803 15.6812C13.4985 15.6812 17.4786 9.65116 17.4786 4.42142C17.4786 4.25151 17.4744 4.07991 17.4667 3.91C18.2409 3.35014 18.9092 2.65685 19.4402 1.86262L19.4419 1.86007Z" fill="#697589"/>
</svg>
