<svg width="18" height="17" viewBox="0 0 18 17" fill="none" xmlns="http://www.w3.org/2000/svg">
<path d="M17.75 13V14.5625C17.75 15.4244 17.0487 16.125 16.1875 16.125H2.75C1.37125 16.125 0.25 15.0037 0.25 13.625V3C0.25 1.62125 1.37125 0.5 2.75 0.5H14.3125C14.4356 0.5 14.5575 0.524249 14.6713 0.571363C14.785 0.618477 14.8884 0.687532 14.9754 0.774587C15.0625 0.861642 15.1315 0.964992 15.1786 1.07873C15.2257 1.19248 15.25 1.31439 15.25 1.4375C15.25 1.56061 15.2257 1.68252 15.1786 1.79627C15.1315 1.91001 15.0625 2.01336 14.9754 2.10041C14.8884 2.18747 14.785 2.25652 14.6713 2.30364C14.5575 2.35075 14.4356 2.375 14.3125 2.375H2.75C2.58908 2.3822 2.43713 2.45119 2.3258 2.56761C2.21447 2.68404 2.15233 2.83891 2.15233 3C2.15233 3.16109 2.21447 3.31596 2.3258 3.43239C2.43713 3.54881 2.58908 3.6178 2.75 3.625H16.1875C17.0487 3.625 17.75 4.32562 17.75 5.1875V6.75H14.625C12.9019 6.75 11.5 8.15188 11.5 9.875C11.5 11.5981 12.9019 13 14.625 13H17.75Z" fill="#FE2B56"/>
<path d="M17.75 8V11.75H14.625C14.1277 11.75 13.6508 11.5525 13.2992 11.2008C12.9475 10.8492 12.75 10.3723 12.75 9.875C12.75 9.37772 12.9475 8.90081 13.2992 8.54917C13.6508 8.19754 14.1277 8 14.625 8H17.75Z" fill="#FE2B56"/>
</svg>
